<svg width="140" height="26" viewBox="0 0 140 26" fill="none" xmlns="http://www.w3.org/2000/svg">
<path d="M64.32 11.6717C60.4644 10.2808 57.4784 9.93309 54.8807 10.4444C52.2626 10.9558 50.0329 12.3467 47.7318 14.5149C45.5637 16.5603 43.0071 19.6181 40.614 21.684C39.8674 22.3283 39.141 22.8806 38.4456 23.2488C37.8728 23.5556 37.3311 23.7499 36.83 23.7192C36.2266 23.6783 35.7456 23.2488 35.3263 22.4306C34.4877 20.7636 34.0176 17.7159 34.0176 12.7353C34.0176 7.33546 33.3934 4.06277 32.4116 2.26281C31.6139 0.790118 30.5711 0.176536 29.4154 0.104946C27.8916 0.00267607 26.0608 0.984551 24.1892 2.53906C21.6632 4.62538 18.994 7.71382 16.8054 9.77968C12.3464 13.9932 8.0815 14.7398 1.11689 12.2342C0.687359 12.0705 0.206848 12.2956 0.0534425 12.7251C-0.11019 13.1649 0.114645 13.6354 0.554407 13.7888C4.38954 15.1797 7.47827 15.6296 10.2293 15.1796C13.0111 14.7194 15.4554 13.3388 17.9508 10.9866C20.1087 8.94114 22.7471 5.8833 25.2527 3.81744C26.7254 2.5902 28.1064 1.68003 29.3131 1.76185C30.1722 1.81298 30.8264 2.50834 31.3378 3.9299C31.9923 5.71963 32.3605 8.54225 32.3605 12.7353C32.3605 18.1148 32.9332 21.3875 33.8434 23.1875C34.6002 24.6806 35.6024 25.2941 36.707 25.3759C38.149 25.4782 39.9083 24.4965 41.7082 22.942C44.1116 20.8557 46.6888 17.7876 48.8671 15.7217C50.9126 13.7991 52.876 12.5308 55.1975 12.0706C57.56 11.6104 60.2598 11.9683 63.7575 13.2365C64.187 13.3899 64.6679 13.1649 64.8213 12.7353C64.9747 12.3058 64.7495 11.8251 64.32 11.6717ZM107.141 12.7353C107.141 16.3557 110.301 18.5444 115.68 18.5444C121.06 18.5444 124.22 16.3557 124.22 12.7353C124.22 9.11496 121.06 6.9265 115.68 6.9265C110.301 6.9265 107.141 9.11496 107.141 12.7353ZM90.2966 8.83887V7.23331H76.6847V18.3602H78.6378V13.5843H89.6115V11.9991H78.6378V8.83887H90.2966ZM94.8069 16.7956V7.23331H92.8534V18.3602H105.668V16.7956H94.8069ZM139.97 7.23331H137.72L132.309 13.3388L126.889 7.23331H124.619L124.588 7.29463L131.328 14.8525V18.3602H133.281V14.8525L140 7.29463L139.97 7.23331ZM122.195 12.7353C122.195 15.3432 119.884 16.949 115.68 16.949C111.477 16.949 109.165 15.3432 109.165 12.7353C109.165 10.1377 111.477 8.53206 115.68 8.53206C119.884 8.53206 122.195 10.1377 122.195 12.7353Z" fill="white"/>
</svg>
