<svg width="89" height="50" viewBox="0 0 89 50" fill="none" xmlns="http://www.w3.org/2000/svg">
<path d="M0.350106 45.5728H0.0994073C0.0493209 45.5728 0.0175781 45.6151 0.0175781 45.6617V48.967C0.0175781 49.0186 0.0538355 49.061 0.0994073 49.061H0.350106C0.400189 49.061 0.431932 49.0143 0.431932 48.967V45.6617C0.431932 45.61 0.395252 45.5728 0.350106 45.5728ZM3.19822 45.5728H1.00754C0.957452 45.5728 0.91654 45.61 0.91654 45.6573V45.8631C0.91654 45.9154 0.957452 45.9386 1.00754 45.9386H1.89564V48.967C1.89564 49.0186 1.93204 49.061 1.97747 49.061H2.22788C2.27797 49.061 2.31013 49.0143 2.31013 48.967V45.9386H3.19824C3.24833 45.9386 3.28459 45.9105 3.28459 45.8631V45.6573C3.28459 45.6052 3.24833 45.5728 3.19824 45.5728H3.19822ZM5.97142 47.1973L5.55244 46.9391C5.20651 46.7224 5.05623 46.5912 5.05623 46.3706C5.05623 46.0275 5.25657 45.9245 5.72569 45.9245C5.98977 45.9245 6.30861 45.9386 6.50895 45.9527H6.51812C6.5637 45.9527 6.5957 45.9245 6.5957 45.8772V45.6757C6.5957 45.629 6.5637 45.6052 6.51812 45.5959C6.34501 45.5677 5.99443 45.5396 5.72569 45.5396C5.03326 45.5396 4.63724 45.8024 4.63724 46.3706C4.63724 46.7466 4.84676 46.9857 5.2656 47.2485L5.70763 47.526C6.1221 47.7882 6.254 47.9203 6.254 48.1551C6.254 48.4831 6.10827 48.7088 5.56161 48.7088C5.3521 48.7088 5.01986 48.6998 4.81035 48.6806H4.79666C4.75574 48.6806 4.71934 48.704 4.71934 48.7554V48.9439C4.71934 48.9952 4.72851 49.0143 4.80584 49.0284C5.00617 49.061 5.24274 49.0941 5.56161 49.0941C6.45885 49.0941 6.68671 48.6051 6.68671 48.1551C6.68671 47.7791 6.49977 47.5209 5.97142 47.1973ZM8.88191 46.4786H8.62656C8.58564 46.4786 8.54938 46.5114 8.54021 46.549L7.98463 48.6947H7.91171C7.87996 48.6947 7.84778 48.6857 7.82521 48.5917L7.28773 46.5541C7.27855 46.5165 7.24681 46.4786 7.21055 46.4786H6.95968C6.9054 46.4786 6.87788 46.5114 6.87788 46.5581C6.87788 46.5681 6.87788 46.5822 6.88253 46.5912L7.48803 48.7369C7.5703 49.0284 7.68837 49.061 7.82521 49.061H7.88914L7.84356 49.2534C7.76598 49.5821 7.65211 49.6528 7.39254 49.6528C7.29235 49.6528 7.08739 49.6337 6.9872 49.6243H6.97351C6.92346 49.6243 6.88705 49.6479 6.88705 49.6995V49.8736C6.88705 49.9201 6.92797 49.9343 6.98269 49.9482C7.07821 49.9714 7.23763 49.9905 7.3653 49.9905C7.88914 49.9905 8.0573 49.8031 8.1988 49.2957L8.95006 46.5912C8.95458 46.5822 8.95458 46.5681 8.95458 46.5581C8.95458 46.5114 8.92749 46.4786 8.88191 46.4786ZM10.443 47.7043L9.9922 47.427C9.78273 47.3003 9.67803 47.2114 9.67803 47.0702C9.67803 46.8311 9.84618 46.7979 10.1016 46.7979C10.3566 46.7979 10.648 46.8213 10.8074 46.8354H10.8211C10.8666 46.8354 10.8984 46.8119 10.8984 46.7556V46.6002C10.8984 46.549 10.8711 46.5165 10.8119 46.5067C10.5979 46.4692 10.3566 46.4461 10.1016 46.4461C9.63245 46.4461 9.27695 46.5822 9.27695 47.0702C9.27695 47.3659 9.46385 47.5682 9.74181 47.7419L10.2017 48.0233C10.4613 48.1826 10.5431 48.272 10.5431 48.4133C10.5431 48.6665 10.3884 48.7464 10.0924 48.7464C9.92846 48.7464 9.59579 48.7228 9.3771 48.6947H9.35919C9.31361 48.6947 9.27695 48.7228 9.27695 48.7654V48.9298C9.27695 48.9811 9.31361 49.0092 9.37288 49.0233C9.59579 49.08 9.9238 49.0941 10.0924 49.0941C10.6024 49.0941 10.9438 48.8922 10.9438 48.4133C10.9438 48.1359 10.8211 47.9344 10.443 47.7043ZM12.5561 48.7605H12.301C12.119 48.7605 12.0552 48.7228 12.0552 48.465V46.826H12.5472C12.5972 46.826 12.6382 46.7838 12.6382 46.7324V46.5722C12.6382 46.5208 12.5972 46.4786 12.5472 46.4786H12.0552V45.9672C12.0552 45.9198 12.0231 45.8874 11.9868 45.8874H11.973L11.7364 45.9245C11.6863 45.9339 11.6546 45.9712 11.6546 46.0184V46.4786H11.2125C11.1625 46.4786 11.1262 46.5114 11.1262 46.5632V46.6898C11.1262 46.7415 11.1625 46.7697 11.2125 46.7748L11.6546 46.826V48.465C11.6546 48.9811 11.8549 49.0941 12.2739 49.0941C12.3603 49.0941 12.4788 49.084 12.5698 49.07C12.629 49.061 12.6516 49.0328 12.6516 48.9904V48.8262C12.6516 48.7795 12.6198 48.7605 12.5561 48.7605ZM13.8977 46.4461C13.2467 46.4461 12.8865 46.8725 12.8865 47.5444V47.9669C12.8865 48.8402 13.3969 49.0941 13.9206 49.0941C14.2257 49.0941 14.4762 49.0659 14.7357 49.0143C14.8087 49.0002 14.827 48.967 14.827 48.9056V48.7464C14.827 48.6998 14.7904 48.6806 14.7541 48.6806H14.7311C14.5216 48.7138 14.1848 48.7322 13.9206 48.7322C13.5016 48.7322 13.2876 48.5257 13.2876 47.9669V47.9012H14.8134C14.8679 47.9012 14.8997 47.859 14.8997 47.7983V47.5444C14.8997 46.8776 14.5625 46.4461 13.8977 46.4461ZM14.4945 47.5867H13.2876V47.5444C13.2876 47.0369 13.5062 46.8072 13.8977 46.8072C14.2987 46.8072 14.4945 47.0137 14.4945 47.5444V47.5867ZM17.6336 46.441C17.3968 46.441 17.128 46.5114 16.8776 46.6335C16.7638 46.4974 16.618 46.441 16.422 46.441C16.1715 46.441 15.9394 46.5447 15.7572 46.6616V46.5722C15.7572 46.5208 15.7208 46.4786 15.6707 46.4786H15.4428C15.3928 46.4786 15.3565 46.5208 15.3565 46.5722V48.967C15.3565 49.0186 15.3885 49.061 15.4337 49.061H15.6754C15.7254 49.061 15.7572 49.0143 15.7572 48.967V46.9857C15.9486 46.8866 16.1489 46.8028 16.313 46.8028C16.5496 46.8028 16.6636 46.8866 16.6636 47.2952V48.967C16.6636 49.0186 16.6954 49.061 16.7408 49.061H16.9824C17.0325 49.061 17.0643 49.0143 17.0643 48.967V47.2952C17.0643 47.155 17.0505 47.033 17.0234 46.9292C17.2011 46.8586 17.3923 46.8028 17.5562 46.8028C17.793 46.8028 17.9707 46.9109 17.9707 47.3052V48.967C17.9707 49.0186 18.0116 49.061 18.0617 49.061H18.2804C18.3305 49.061 18.3714 49.0186 18.3714 48.967V47.3052C18.3714 46.6526 18.0437 46.441 17.6336 46.441ZM19.9663 47.7043L19.5155 47.427C19.3059 47.3003 19.2012 47.2114 19.2012 47.0702C19.2012 46.8311 19.3698 46.7979 19.6249 46.7979C19.8798 46.7979 20.1711 46.8213 20.3306 46.8354H20.3442C20.3898 46.8354 20.4216 46.8119 20.4216 46.7556V46.6002C20.4216 46.549 20.3945 46.5165 20.3352 46.5067C20.1211 46.4692 19.8798 46.4461 19.6249 46.4461C19.1558 46.4461 18.8005 46.5822 18.8005 47.0702C18.8005 47.3659 18.9872 47.5682 19.2651 47.7419L19.7251 48.0233C19.9846 48.1826 20.0665 48.272 20.0665 48.4133C20.0665 48.6665 19.9116 48.7464 19.6157 48.7464C19.4516 48.7464 19.1194 48.7228 18.9007 48.6947H18.8824C18.837 48.6947 18.8005 48.7228 18.8005 48.7654V48.9298C18.8005 48.9811 18.837 49.0092 18.8962 49.0233C19.1194 49.08 19.4471 49.0941 19.6157 49.0941C20.1257 49.0941 20.4674 48.8922 20.4674 48.4133C20.4674 48.1359 20.3442 47.9344 19.9663 47.7043ZM23.8737 45.5677C23.6826 45.5486 23.2544 45.5396 22.9856 45.5396C22.3479 45.5396 22.0157 45.7883 22.0157 46.4129V48.2208C22.0157 48.845 22.3479 49.0941 22.9856 49.0941C23.2544 49.0941 23.7006 49.089 23.8737 49.07C23.9012 49.0659 23.9193 49.0328 23.9193 49.0045V48.7654C23.9193 48.7322 23.9012 48.7088 23.8692 48.7088H22.9903C22.5074 48.7088 22.4302 48.5776 22.4302 48.2208V47.4314H23.8283C23.8784 47.4314 23.9193 47.3897 23.9193 47.3374V47.1591C23.9193 47.1077 23.8784 47.0655 23.8283 47.0655H22.4302V46.4129C22.4302 46.056 22.5074 45.9245 22.9903 45.9245H23.8692C23.9012 45.9245 23.9193 45.9015 23.9193 45.8682V45.6334C23.9193 45.6052 23.9012 45.5728 23.8737 45.5677ZM25.5064 46.4461C25.2377 46.4461 25.0327 46.5165 24.7823 46.6616V46.5722C24.7823 46.5208 24.7456 46.4786 24.6955 46.4786H24.4681C24.418 46.4786 24.3816 46.5208 24.3816 46.5722V48.967C24.3816 49.0186 24.4225 49.061 24.4681 49.061H24.6913C24.7414 49.061 24.7823 49.0143 24.7823 48.967V46.9857C24.9918 46.8776 25.206 46.8028 25.3971 46.8028C25.743 46.8028 25.8982 46.9482 25.8982 47.4223V48.967C25.8982 49.0186 25.9391 49.061 25.9892 49.061H26.2079C26.258 49.061 26.2989 49.0186 26.2989 48.967V47.4223C26.2989 46.7979 26.0527 46.4461 25.5064 46.4461ZM28.7911 46.4786H27.7936C27.0103 46.4786 26.7825 46.8917 26.7825 47.3093V47.3475C26.7825 47.5867 26.8509 47.756 26.992 47.8921C26.8646 47.9669 26.8054 48.103 26.8054 48.2299V48.235C26.8054 48.3801 26.8688 48.5354 27.0149 48.6008L27.0466 48.6151C26.8964 48.7322 26.7595 48.9478 26.7595 49.2111V49.2534C26.7595 49.7135 27.0875 50 27.807 50C28.5541 50 28.8454 49.7233 28.8454 49.2726V49.2342C28.8454 48.7936 28.4176 48.6614 27.9711 48.5445L27.2925 48.366C27.1877 48.3378 27.1514 48.2956 27.1514 48.2158C27.1514 48.1453 27.1877 48.0937 27.2653 48.0565C27.3972 48.1129 27.5521 48.15 27.7936 48.15C28.4948 48.15 28.8045 47.8636 28.8045 47.3475V47.3093C28.8045 47.0561 28.7318 46.9153 28.6497 46.826L28.8136 46.7931C28.8637 46.7838 28.8955 46.765 28.8955 46.7044V46.5822C28.8955 46.5255 28.8454 46.4786 28.7911 46.4786ZM27.3746 48.7322L27.8893 48.8684C28.2991 48.9763 28.4447 49.0519 28.4447 49.2342V49.2726C28.4447 49.5308 28.3262 49.681 27.807 49.681C27.3017 49.681 27.1514 49.5167 27.1514 49.2534V49.2111C27.1514 48.967 27.2424 48.8499 27.3746 48.7322ZM28.4084 47.3475C28.4084 47.6289 28.2853 47.8264 27.7936 47.8264C27.2699 47.8264 27.1785 47.5541 27.1785 47.3475V47.3093C27.1785 47.047 27.2836 46.8072 27.7936 46.8072C28.2853 46.8072 28.4084 47.0279 28.4084 47.3093V47.3475ZM29.6502 46.4786H29.4316C29.3815 46.4786 29.3406 46.5208 29.3406 46.5722V48.967C29.3406 49.0186 29.3815 49.061 29.4316 49.061H29.6502C29.7003 49.061 29.7413 49.0186 29.7413 48.967V46.5722C29.7413 46.5208 29.7003 46.4786 29.6502 46.4786ZM29.6594 45.5019H29.4273C29.3773 45.5019 29.3361 45.5446 29.3361 45.5959V45.9712C29.3361 46.0235 29.3773 46.0657 29.4273 46.0657H29.6594C29.7095 46.0657 29.7504 46.0235 29.7504 45.9712V45.5959C29.7504 45.5446 29.7095 45.5019 29.6594 45.5019ZM31.4617 46.4461C31.193 46.4461 30.9877 46.5165 30.7373 46.6616V46.5722C30.7373 46.5208 30.701 46.4786 30.6509 46.4786H30.4233C30.373 46.4786 30.3366 46.5208 30.3366 46.5722V48.967C30.3366 49.0186 30.3775 49.061 30.4233 49.061H30.6463C30.6964 49.061 30.7373 49.0143 30.7373 48.967V46.9857C30.9468 46.8776 31.1609 46.8028 31.3524 46.8028C31.6983 46.8028 31.8532 46.9482 31.8532 47.4223V48.967C31.8532 49.0186 31.8941 49.061 31.9442 49.061H32.1629C32.213 49.061 32.2539 49.0186 32.2539 48.967V47.4223C32.2539 46.7979 32.0081 46.4461 31.4617 46.4461ZM33.7465 46.4461C33.0951 46.4461 32.7354 46.8725 32.7354 47.5444V47.9669C32.7354 48.8402 33.2454 49.0941 33.7691 49.0941C34.0742 49.0941 34.3249 49.0659 34.5845 49.0143C34.6572 49.0002 34.6755 48.967 34.6755 48.9056V48.7464C34.6755 48.6998 34.6388 48.6806 34.6026 48.6806H34.5796C34.3701 48.7138 34.0333 48.7322 33.7691 48.7322C33.3501 48.7322 33.1361 48.5257 33.1361 47.9669V47.9012H34.6618C34.7164 47.9012 34.7482 47.859 34.7482 47.7983V47.5444C34.7482 46.8776 34.4114 46.4461 33.7465 46.4461ZM34.343 47.5867H33.1361V47.5444C33.1361 47.0369 33.3547 46.8072 33.7465 46.8072C34.1472 46.8072 34.343 47.0137 34.343 47.5444V47.5867ZM36.1753 46.4461C35.5238 46.4461 35.1641 46.8725 35.1641 47.5444V47.9669C35.1641 48.8402 35.6741 49.0941 36.1977 49.0941C36.5033 49.0941 36.7536 49.0659 37.0132 49.0143C37.0858 49.0002 37.1043 48.967 37.1043 48.9056V48.7464C37.1043 48.6998 37.0674 48.6806 37.0313 48.6806H37.0085C36.7991 48.7138 36.4621 48.7322 36.1977 48.7322C35.7788 48.7322 35.565 48.5257 35.565 47.9669V47.9012H37.0905C37.1451 47.9012 37.1768 47.859 37.1768 47.7983V47.5444C37.1768 46.8776 36.8402 46.4461 36.1753 46.4461ZM36.7716 47.5867H35.565V47.5444C35.565 47.0369 35.7835 46.8072 36.1753 46.8072C36.5759 46.8072 36.7716 47.0137 36.7716 47.5444V47.5867ZM38.6858 46.4461C38.4807 46.4461 38.2712 46.5067 38.044 46.6711V46.5722C38.044 46.5208 38.0072 46.4786 37.957 46.4786H37.7435C37.693 46.4786 37.6565 46.5208 37.6565 46.5722V48.967C37.6565 49.0186 37.6976 49.061 37.7435 49.061H37.9664C38.0162 49.061 38.0574 49.0143 38.0574 48.967V46.9998C38.2853 46.8585 38.4763 46.8028 38.6858 46.8028C38.7497 46.8028 38.7819 46.7748 38.7819 46.7224V46.5305C38.7819 46.4743 38.7497 46.4461 38.6858 46.4461ZM39.5161 46.4786H39.2972C39.2474 46.4786 39.2062 46.5208 39.2062 46.5722V48.967C39.2062 49.0186 39.2474 49.061 39.2972 49.061H39.5161C39.566 49.061 39.6071 49.0186 39.6071 48.967V46.5722C39.6071 46.5208 39.566 46.4786 39.5161 46.4786ZM39.5251 45.5019H39.2933C39.2431 45.5019 39.2019 45.5446 39.2019 45.5959V45.9712C39.2019 46.0235 39.2431 46.0657 39.2933 46.0657H39.5251C39.5753 46.0657 39.6162 46.0235 39.6162 45.9712V45.5959C39.6162 45.5446 39.5753 45.5019 39.5251 45.5019ZM41.3266 46.4461C41.0579 46.4461 40.8531 46.5165 40.6025 46.6616V46.5722C40.6025 46.5208 40.5664 46.4786 40.5162 46.4786H40.2883C40.2384 46.4786 40.202 46.5208 40.202 46.5722V48.967C40.202 49.0186 40.2428 49.061 40.2883 49.061H40.5118C40.5617 49.061 40.6025 49.0143 40.6025 48.967V46.9857C40.8123 46.8776 41.0261 46.8028 41.2176 46.8028C41.5639 46.8028 41.7185 46.9482 41.7185 47.4223V48.967C41.7185 49.0186 41.7597 49.061 41.8095 49.061H42.0284C42.0782 49.061 42.1194 49.0186 42.1194 48.967V47.4223C42.1194 46.7979 41.8734 46.4461 41.3266 46.4461ZM44.6114 46.4786H43.6139C42.8305 46.4786 42.603 46.8917 42.603 47.3093V47.3475C42.603 47.5867 42.6712 47.756 42.8125 47.8921C42.685 47.9669 42.6257 48.103 42.6257 48.2299V48.235C42.6257 48.3801 42.6897 48.5354 42.8352 48.6008L42.867 48.6151C42.7168 48.7322 42.5802 48.9478 42.5802 49.2111V49.2534C42.5802 49.7135 42.9082 50 43.6276 50C44.3745 50 44.666 49.7233 44.666 49.2726V49.2342C44.666 48.7936 44.238 48.6614 43.7916 48.5445L43.113 48.366C43.0086 48.3378 42.9717 48.2956 42.9717 48.2158C42.9717 48.1453 43.0086 48.0937 43.0855 48.0565C43.2181 48.1129 43.3723 48.15 43.6139 48.15C44.3156 48.15 44.6252 47.8636 44.6252 47.3475V47.3093C44.6252 47.0561 44.5522 46.9153 44.4702 46.826L44.6342 46.7931C44.6844 46.7838 44.7162 46.765 44.7162 46.7044V46.5822C44.7162 46.5255 44.666 46.4786 44.6114 46.4786ZM43.1949 48.7322L43.7096 48.8684C44.1195 48.9763 44.2654 49.0519 44.2654 49.2342V49.2726C44.2654 49.5308 44.147 49.681 43.6276 49.681C43.122 49.681 42.9717 49.5167 42.9717 49.2534V49.2111C42.9717 48.967 43.0628 48.8499 43.1949 48.7322ZM44.229 47.3475C44.229 47.6289 44.1062 47.8264 43.6139 47.8264C43.0902 47.8264 42.9992 47.5541 42.9992 47.3475V47.3093C42.9992 47.047 43.1039 46.8072 43.6139 46.8072C44.1062 46.8072 44.229 47.0279 44.229 47.3093V47.3475ZM46.5332 45.5728H46.2963C46.2508 45.5728 46.2099 45.6151 46.2099 45.6617V49.8826C46.2099 49.9291 46.2508 49.9713 46.2963 49.9713H46.5332C46.5787 49.9713 46.6152 49.9291 46.6152 49.8826V45.6617C46.6152 45.6151 46.5787 45.5728 46.5332 45.5728ZM50.532 45.5728H50.2861C50.2359 45.5728 50.1994 45.6151 50.1994 45.6617V47.7932C50.1994 48.4035 50.0173 48.7279 49.4521 48.7279C48.888 48.7279 48.7056 48.3993 48.7056 47.7932V45.6617C48.7056 45.61 48.6648 45.5728 48.6193 45.5728H48.373C48.3228 45.5728 48.2866 45.6151 48.2866 45.6617V47.7932C48.2866 48.6899 48.7146 49.0941 49.4521 49.0941C50.19 49.0941 50.6183 48.6899 50.6183 47.7932V45.6617C50.6183 45.61 50.5775 45.5728 50.532 45.5728ZM52.3599 46.4461C52.0912 46.4461 51.886 46.5165 51.6354 46.6616V46.5722C51.6354 46.5208 51.5993 46.4786 51.549 46.4786H51.3215C51.2717 46.4786 51.2348 46.5208 51.2348 46.5722V48.967C51.2348 49.0186 51.2756 49.061 51.3215 49.061H51.5444C51.5946 49.061 51.6354 49.0143 51.6354 48.967V46.9857C51.8448 46.8776 52.059 46.8028 52.2504 46.8028C52.5964 46.8028 52.7514 46.9482 52.7514 47.4223V48.967C52.7514 49.0186 52.7922 49.061 52.8424 49.061H53.0612C53.1111 49.061 53.1523 49.0186 53.1523 48.967V47.4223C53.1523 46.7979 52.9063 46.4461 52.3599 46.4461ZM54.0797 45.5019H53.8471C53.7973 45.5019 53.7558 45.5446 53.7558 45.5959V45.9712C53.7558 46.0235 53.7973 46.0657 53.8471 46.0657H54.0797C54.1299 46.0657 54.1707 46.0235 54.1707 45.9712V45.5959C54.1707 45.5446 54.1299 45.5019 54.0797 45.5019ZM54.0707 46.4786H53.8518C53.8016 46.4786 53.7608 46.5208 53.7608 46.5722V48.967C53.7608 49.0186 53.8016 49.061 53.8518 49.061H54.0707C54.1205 49.061 54.1614 49.0186 54.1614 48.967V46.5722C54.1614 46.5208 54.1205 46.4786 54.0707 46.4786ZM56.6241 46.4786H56.3735C56.337 46.4786 56.3052 46.5067 56.2868 46.5681L55.7631 48.6151C55.736 48.7279 55.7086 48.7515 55.6674 48.7515C55.6215 48.7515 55.5992 48.7279 55.5717 48.6151L55.0484 46.5681C55.03 46.5067 54.9982 46.4786 54.9613 46.4786H54.7111C54.6655 46.4786 54.6385 46.5114 54.6385 46.5581C54.6385 46.5681 54.6385 46.5771 54.6428 46.5912L55.2579 48.8262C55.3171 49.0374 55.4713 49.0941 55.6674 49.0941C55.8632 49.0941 56.0181 49.0374 56.0773 48.8262L56.692 46.5912C56.6967 46.5771 56.6967 46.5681 56.6967 46.5581C56.6967 46.5114 56.6693 46.4786 56.6241 46.4786ZM57.9792 46.4461C57.3281 46.4461 56.9683 46.8725 56.9683 47.5444V47.9669C56.9683 48.8402 57.4783 49.0941 58.002 49.0941C58.3072 49.0941 58.5575 49.0659 58.8171 49.0143C58.8897 49.0002 58.9081 48.967 58.9081 48.9056V48.7464C58.9081 48.6998 58.8717 48.6806 58.8356 48.6806H58.8124C58.603 48.7138 58.2664 48.7322 58.002 48.7322C57.583 48.7322 57.3689 48.5257 57.3689 47.9669V47.9012H58.8948C58.949 47.9012 58.9811 47.859 58.9811 47.7983V47.5444C58.9811 46.8776 58.6445 46.4461 57.9792 46.4461ZM58.5759 47.5867H57.3689V47.5444C57.3689 47.0369 57.5877 46.8072 57.9792 46.8072C58.3798 46.8072 58.5759 47.0137 58.5759 47.5444V47.5867ZM60.4669 46.4461C60.2622 46.4461 60.0527 46.5067 59.8251 46.6711V46.5722C59.8251 46.5208 59.7887 46.4786 59.7385 46.4786H59.5247C59.4745 46.4786 59.438 46.5208 59.438 46.5722V48.967C59.438 49.0186 59.4788 49.061 59.5247 49.061H59.7475C59.7977 49.061 59.8385 49.0143 59.8385 48.967V46.9998C60.0664 46.8585 60.2575 46.8028 60.4669 46.8028C60.5309 46.8028 60.563 46.7748 60.563 46.7224V46.5305C60.563 46.4743 60.5309 46.4461 60.4669 46.4461ZM61.9791 47.7043L61.5284 47.427C61.3189 47.3003 61.2142 47.2114 61.2142 47.0702C61.2142 46.8311 61.3829 46.7979 61.6378 46.7979C61.8928 46.7979 62.1839 46.8213 62.3436 46.8354H62.3573C62.4028 46.8354 62.4346 46.8119 62.4346 46.7556V46.6002C62.4346 46.549 62.4075 46.5165 62.3479 46.5067C62.1341 46.4692 61.8928 46.4461 61.6378 46.4461C61.1687 46.4461 60.8133 46.5822 60.8133 47.0702C60.8133 47.3659 61 47.5682 61.2778 47.7419L61.7379 48.0233C61.9976 48.1826 62.0795 48.272 62.0795 48.4133C62.0795 48.6665 61.9246 48.7464 61.6284 48.7464C61.4645 48.7464 61.1322 48.7228 60.9137 48.6947H60.8953C60.8498 48.6947 60.8133 48.7228 60.8133 48.7654V48.9298C60.8133 48.9811 60.8498 49.0092 60.909 49.0233C61.1322 49.08 61.4598 49.0941 61.6284 49.0941C62.1384 49.0941 62.4804 48.8922 62.4804 48.4133C62.4804 48.1359 62.3573 47.9344 61.9791 47.7043ZM63.2436 46.4786H63.0251C62.9749 46.4786 62.9341 46.5208 62.9341 46.5722V48.967C62.9341 49.0186 62.9749 49.061 63.0251 49.061H63.2436C63.2938 49.061 63.3346 49.0186 63.3346 48.967V46.5722C63.3346 46.5208 63.2938 46.4786 63.2436 46.4786ZM63.2526 45.5019H63.0204C62.9702 45.5019 62.929 45.5446 62.929 45.5959V45.9712C62.929 46.0235 62.9702 46.0657 63.0204 46.0657H63.2526C63.3028 46.0657 63.3436 46.0235 63.3436 45.9712V45.5959C63.3436 45.5446 63.3028 45.5019 63.2526 45.5019ZM65.1642 48.7605H64.9096C64.7272 48.7605 64.6637 48.7228 64.6637 48.465V46.826H65.1552C65.2054 46.826 65.2466 46.7838 65.2466 46.7324V46.5722C65.2466 46.5208 65.2054 46.4786 65.1552 46.4786H64.6637V45.9672C64.6637 45.9198 64.6319 45.8874 64.5951 45.8874H64.5817L64.3448 45.9245C64.2946 45.9339 64.2628 45.9712 64.2628 46.0184V46.4786H63.8211C63.7709 46.4786 63.7344 46.5114 63.7344 46.5632V46.6898C63.7344 46.7415 63.7709 46.7697 63.8211 46.7748L64.2628 46.826V48.465C64.2628 48.9811 64.4632 49.0941 64.8822 49.0941C64.9685 49.0941 65.087 49.084 65.178 49.07C65.2372 49.061 65.2603 49.0328 65.2603 48.9904V48.8262C65.2603 48.7795 65.2282 48.7605 65.1642 48.7605ZM66.0321 46.0517H66.2098C66.2553 46.0517 66.3008 46.0134 66.3008 45.9621V45.5818C66.3008 45.5345 66.2553 45.4878 66.2098 45.4878H66.0321C65.9866 45.4878 65.9411 45.5345 65.9411 45.5818V45.9621C65.9411 46.0134 65.9866 46.0517 66.0321 46.0517ZM66.8292 46.0517H67.0069C67.0521 46.0517 67.0979 46.0134 67.0979 45.9621V45.5818C67.0979 45.5345 67.0521 45.4878 67.0069 45.4878H66.8292C66.7833 45.4878 66.7382 45.5345 66.7382 45.5818V45.9621C66.7382 46.0134 66.7833 46.0517 66.8292 46.0517ZM66.4966 46.4461C66.1867 46.4461 65.9772 46.4743 65.7909 46.5067C65.7269 46.5165 65.6948 46.5447 65.6948 46.5963V46.7606C65.6948 46.8213 65.7356 46.8354 65.7771 46.8354H65.7999C65.9819 46.8169 66.2004 46.7979 66.4966 46.7979C66.8516 46.7979 66.9838 46.934 66.9838 47.3284V47.5161H66.6468C65.8364 47.5161 65.5496 47.7701 65.5496 48.2771V48.3329C65.5496 48.9198 65.9043 49.0941 66.2914 49.0941C66.5464 49.0941 66.7743 48.9952 66.9928 48.864V48.967C66.9928 49.0186 67.034 49.061 67.0842 49.061H67.2937C67.3439 49.061 67.3847 49.0186 67.3847 48.967V47.3284C67.3847 46.7748 67.1297 46.4461 66.4966 46.4461ZM66.9838 48.5679C66.7653 48.6899 66.5786 48.7554 66.3691 48.7554C66.1047 48.7554 65.9501 48.6665 65.9501 48.3287V48.272C65.9501 47.9388 66.0957 47.8124 66.6468 47.8124H66.9838V48.5679ZM69.1295 48.7605H68.8745C68.6921 48.7605 68.6285 48.7228 68.6285 48.465V46.826H69.1201C69.1703 46.826 69.2111 46.7838 69.2111 46.7324V46.5722C69.2111 46.5208 69.1703 46.4786 69.1201 46.4786H68.6285V45.9672C68.6285 45.9198 68.5964 45.8874 68.5603 45.8874H68.5466L68.3096 45.9245C68.2598 45.9339 68.2277 45.9712 68.2277 46.0184V46.4786H67.7856C67.7354 46.4786 67.6996 46.5114 67.6996 46.5632V46.6898C67.6996 46.7415 67.7354 46.7697 67.7856 46.7748L68.2277 46.826V48.465C68.2277 48.9811 68.4281 49.0941 68.8474 49.0941C68.9334 49.0941 69.0518 49.084 69.1428 49.07C69.2021 49.061 69.2248 49.0328 69.2248 48.9904V48.8262C69.2248 48.7795 69.193 48.7605 69.1295 48.7605ZM71.5933 45.5396C71.329 45.5396 71.0332 45.5536 70.8371 45.5767C70.7688 45.5869 70.728 45.629 70.728 45.6948V48.967C70.728 49.0186 70.7645 49.061 70.8096 49.061H71.0559C71.1061 49.061 71.1376 49.0143 71.1376 48.967V47.6481C71.2564 47.6571 71.4474 47.6712 71.5933 47.6712C72.3312 47.6712 72.8683 47.4038 72.8683 46.6194V46.5581C72.8683 45.8024 72.3312 45.5396 71.5933 45.5396ZM72.454 46.6194C72.454 47.1077 72.2171 47.3143 71.5933 47.3143C71.4749 47.3143 71.2427 47.3003 71.1376 47.2952V45.9198C71.247 45.9105 71.4521 45.9015 71.5933 45.9015C72.181 45.9015 72.454 46.0842 72.454 46.5581V46.6194ZM74.214 46.4461C73.5444 46.4461 73.2031 46.9007 73.2031 47.5916V47.9485C73.2031 48.6383 73.5444 49.0941 74.214 49.0941C74.8836 49.0941 75.2296 48.6383 75.2296 47.9485V47.5916C75.2296 46.9007 74.8836 46.4461 74.214 46.4461ZM74.829 47.9485C74.829 48.4317 74.638 48.7322 74.214 48.7322C73.786 48.7322 73.604 48.4274 73.604 47.9485V47.5916C73.604 47.1077 73.7907 46.8072 74.214 46.8072C74.6423 46.8072 74.829 47.1124 74.829 47.5916V47.9485ZM76.879 48.7605H76.624C76.4416 48.7605 76.3781 48.7228 76.3781 48.465V46.826H76.8696C76.9198 46.826 76.9606 46.7838 76.9606 46.7324V46.5722C76.9606 46.5208 76.9198 46.4786 76.8696 46.4786H76.3781V45.9672C76.3781 45.9198 76.3459 45.8874 76.3098 45.8874H76.2961L76.0592 45.9245C76.0093 45.9339 75.9772 45.9712 75.9772 46.0184V46.4786H75.5351C75.4853 46.4786 75.4491 46.5114 75.4491 46.5632V46.6898C75.4491 46.7415 75.4853 46.7697 75.5351 46.7748L75.9772 46.826V48.465C75.9772 48.9811 76.1776 49.0941 76.5969 49.0941C76.6829 49.0941 76.8014 49.084 76.8924 49.07C76.9516 49.061 76.9747 49.0328 76.9747 48.9904V48.8262C76.9747 48.7795 76.9426 48.7605 76.879 48.7605ZM78.4732 47.7043L78.0224 47.427C77.813 47.3003 77.7082 47.2114 77.7082 47.0702C77.7082 46.8311 77.8765 46.7979 78.1319 46.7979C78.3869 46.7979 78.6783 46.8213 78.838 46.8354H78.8513C78.8968 46.8354 78.929 46.8119 78.929 46.7556V46.6002C78.929 46.549 78.9012 46.5165 78.8419 46.5067C78.6285 46.4692 78.3869 46.4461 78.1319 46.4461C77.6627 46.4461 77.307 46.5822 77.307 47.0702C77.307 47.3659 77.4941 47.5682 77.7722 47.7419L78.2319 48.0233C78.4916 48.1826 78.5732 48.272 78.5732 48.4133C78.5732 48.6665 78.419 48.7464 78.1225 48.7464C77.9585 48.7464 77.6259 48.7228 77.4074 48.6947H77.3893C77.3438 48.6947 77.307 48.7228 77.307 48.7654V48.9298C77.307 48.9811 77.3438 49.0092 77.403 49.0233C77.6259 49.08 77.9538 49.0941 78.1225 49.0941C78.6325 49.0941 78.9741 48.8922 78.9741 48.4133C78.9741 48.1359 78.8513 47.9344 78.4732 47.7043ZM81.1931 45.5306H80.9613C80.911 45.5306 80.8746 45.5728 80.8746 45.6193V46.4926C80.6972 46.4601 80.4827 46.4461 80.3419 46.4461C79.6769 46.4461 79.349 46.8585 79.349 47.5957V47.9344C79.349 48.6383 79.6632 49.0941 80.3419 49.0941C80.6196 49.0941 80.8977 49.07 81.1798 49.0143C81.2617 49.0002 81.2755 48.967 81.2755 48.9056V45.6193C81.2755 45.5677 81.239 45.5306 81.1931 45.5306ZM80.8746 48.704C80.72 48.7182 80.4964 48.7322 80.3419 48.7322C79.8911 48.7322 79.7499 48.4459 79.7499 47.9344V47.5957C79.7499 47.0936 79.8951 46.8072 80.3419 46.8072C80.4878 46.8072 80.724 46.8119 80.8746 46.8401V48.704ZM82.693 46.4461C82.3832 46.4461 82.1737 46.4743 81.9866 46.5067C81.9234 46.5165 81.8913 46.5447 81.8913 46.5963V46.7606C81.8913 46.8213 81.9321 46.8354 81.9732 46.8354H81.996C82.178 46.8169 82.3965 46.7979 82.693 46.7979C83.0481 46.7979 83.1802 46.934 83.1802 47.3284V47.5161H82.8433C82.0325 47.5161 81.7453 47.7701 81.7453 48.2771V48.3329C81.7453 48.9198 82.1007 49.0941 82.4875 49.0941C82.7429 49.0941 82.9708 48.9952 83.1893 48.864V48.967C83.1893 49.0186 83.2304 49.061 83.2803 49.061H83.4901C83.54 49.061 83.5811 49.0186 83.5811 48.967V47.3284C83.5811 46.7748 83.3254 46.4461 82.693 46.4461ZM83.1802 48.5679C82.9617 48.6899 82.7747 48.7554 82.5652 48.7554C82.3012 48.7554 82.1462 48.6665 82.1462 48.3287V48.272C82.1462 47.9388 82.2921 47.8124 82.8433 47.8124H83.1802V48.5679ZM86.4441 46.441C86.2072 46.441 85.9385 46.5114 85.6882 46.6335C85.574 46.4974 85.4285 46.441 85.2324 46.441C84.9817 46.441 84.7499 46.5447 84.5678 46.6616V46.5722C84.5678 46.5208 84.531 46.4786 84.4812 46.4786H84.2533C84.2031 46.4786 84.1669 46.5208 84.1669 46.5722V48.967C84.1669 49.0186 84.1987 49.061 84.2439 49.061H84.4855C84.5357 49.061 84.5678 49.0143 84.5678 48.967V46.9857C84.7589 46.8866 84.9593 46.8028 85.123 46.8028C85.3599 46.8028 85.474 46.8866 85.474 47.2952V48.967C85.474 49.0186 85.5061 49.061 85.5513 49.061H85.7929C85.8428 49.061 85.8749 49.0143 85.8749 48.967V47.2952C85.8749 47.155 85.8608 47.033 85.8337 46.9292C86.0111 46.8586 86.2025 46.8028 86.3664 46.8028C86.6037 46.8028 86.7811 46.9109 86.7811 47.3052V48.967C86.7811 49.0186 86.8219 49.061 86.8721 49.061H87.0906C87.1408 49.061 87.1816 49.0186 87.1816 48.967V47.3052C87.1816 46.6526 86.854 46.441 86.4441 46.441Z" fill="white" fill-opacity="0.8"/>
<path d="M45.3595 17.8537H46.5398C46.6705 17.8537 46.7781 17.7468 46.7781 17.6153V13.9687H50.1626V17.6153C50.1626 17.7468 50.2699 17.8537 50.401 17.8537H51.5813C51.712 17.8537 51.8196 17.7468 51.8196 17.6153V9.22511C51.8196 9.09364 51.712 8.99866 51.5813 8.99866H50.401C50.2699 8.99866 50.1626 9.09364 50.1626 9.22511V12.5146H46.7781V9.22511C46.7781 9.09364 46.6705 8.99866 46.5398 8.99866H45.3595C45.2284 8.99866 45.1211 9.09364 45.1211 9.22511V17.6153C45.1211 17.7468 45.2284 17.8537 45.3595 17.8537ZM55.2994 17.9491C55.8715 17.9491 56.4317 17.7587 56.9799 17.425V17.6153C56.9799 17.7468 57.0872 17.8537 57.2183 17.8537H58.2314C58.3625 17.8537 58.4698 17.7468 58.4698 17.6153V13.3247C58.4698 11.7995 57.5401 11.0483 55.8477 11.0483C55.0253 11.0483 54.3341 11.1436 53.8577 11.2393C53.7024 11.2747 53.6312 11.3582 53.6312 11.4893V12.2524C53.6312 12.4189 53.7262 12.4546 53.8454 12.4546H53.9053C54.2983 12.407 55.0849 12.3597 55.8477 12.3597C56.5509 12.3597 56.8965 12.5504 56.8965 13.3247V13.8495H56.146C54.0718 13.8495 53.2376 14.5527 53.2376 15.9114V15.9587C53.2376 17.5677 54.3106 17.9491 55.2994 17.9491ZM54.8231 15.9114C54.8231 15.2439 55.0611 14.8979 56.146 14.8979H56.8965V16.3639C56.5509 16.555 56.1099 16.6976 55.6812 16.6976C55.0849 16.6976 54.8231 16.5427 54.8231 15.9587V15.9114ZM60.7819 14.4808L62.4148 15.4823C62.7962 15.7207 62.9392 15.8633 62.9392 16.0898C62.9392 16.4119 62.8319 16.6619 62.093 16.6619C61.7354 16.6619 60.6624 16.6026 60.0907 16.5308H60.043C59.9242 16.5308 59.8404 16.6265 59.8404 16.7218V17.4369C59.8404 17.5796 59.9242 17.6749 60.0668 17.711C60.7343 17.8898 61.7354 17.9491 62.2002 17.9491C63.7615 17.9491 64.5362 17.127 64.5362 16.0898C64.5362 15.4823 64.3936 14.8864 63.3921 14.2785L61.8308 13.3247C61.5328 13.1459 61.354 13.0267 61.354 12.8364C61.354 12.4666 61.6043 12.3355 62.1764 12.3355C62.8557 12.3355 63.8092 12.4312 64.1429 12.4788H64.1906C64.3098 12.4788 64.3813 12.3954 64.3813 12.2524V11.5611C64.3813 11.4177 64.3098 11.3224 64.1668 11.287C63.5589 11.1555 63.0107 11.0483 62.0453 11.0483C60.5316 11.0483 59.7808 11.6442 59.7808 12.8364C59.7808 13.5277 60.1976 14.1232 60.7819 14.4808ZM69.2202 14.2785L67.6589 13.3247C67.3609 13.1459 67.1821 13.0267 67.1821 12.8364C67.1821 12.4666 67.4324 12.3355 68.0045 12.3355C68.6835 12.3355 69.6373 12.4312 69.9711 12.4788H70.0187C70.1379 12.4788 70.2094 12.3954 70.2094 12.2524V11.5611C70.2094 11.4177 70.1379 11.3224 69.9949 11.287C69.3871 11.1555 68.8388 11.0483 67.873 11.0483C66.3598 11.0483 65.6089 11.6442 65.6089 12.8364C65.6089 13.5277 66.0261 14.1232 66.6101 14.4808L68.2429 15.4823C68.6243 15.7207 68.7673 15.8633 68.7673 16.0898C68.7673 16.4119 68.66 16.6619 67.9211 16.6619C67.5635 16.6619 66.4909 16.6026 65.9188 16.5308H65.8711C65.7519 16.5308 65.6685 16.6265 65.6685 16.7218V17.4369C65.6685 17.5796 65.7519 17.6749 65.8949 17.711C66.5624 17.8898 67.5635 17.9491 68.0283 17.9491C69.5897 17.9491 70.3644 17.127 70.3644 16.0898C70.3644 15.4823 70.2213 14.8864 69.2202 14.2785ZM74.3213 17.9491C76.1925 17.9491 77.1698 16.6861 77.1698 14.9814V14.016C77.1698 12.3116 76.1925 11.0483 74.3213 11.0483C72.4501 11.0483 71.4728 12.3116 71.4728 14.016V14.9814C71.4728 16.6861 72.4501 17.9491 74.3213 17.9491ZM73.046 14.016C73.046 13.0387 73.4866 12.407 74.3213 12.407C75.1556 12.407 75.5966 13.0387 75.5966 14.016V14.9814C75.5966 15.9587 75.1556 16.5903 74.3213 16.5903C73.4866 16.5903 73.046 15.9587 73.046 14.9814V14.016ZM51.2714 23.3207V23.2134C51.2714 21.1038 49.6743 20.4602 47.8389 20.4602C46.9685 20.4602 46.1226 20.5202 45.5028 20.6155C45.2645 20.6509 45.1211 20.7347 45.1211 20.9731V29.1726C45.1211 29.3038 45.2284 29.411 45.3595 29.411H46.5517C46.6824 29.411 46.7781 29.3038 46.7781 29.1726V26.0618C47.0522 26.0737 47.5286 26.1098 47.8389 26.1098C49.6743 26.1098 51.2714 25.4305 51.2714 23.3206V23.3207ZM49.6266 23.3207C49.6266 24.2745 49.1257 24.7512 47.8389 24.7512C47.6359 24.7512 46.9685 24.7274 46.7781 24.7151V21.8789C46.9927 21.8551 47.5882 21.8309 47.8389 21.8309C49.0303 21.8309 49.6266 22.2126 49.6266 23.2134V23.3207ZM52.6774 29.411H53.7858C53.9173 29.411 54.0123 29.2918 54.0123 29.1606V20.5793C54.0123 20.4486 53.9173 20.3409 53.7858 20.3409H52.6774C52.5463 20.3409 52.439 20.4486 52.439 20.5793V29.1606C52.439 29.2918 52.5463 29.411 52.6774 29.411ZM59.0299 28.9821V29.1726C59.0299 29.3038 59.1372 29.411 59.2683 29.411H60.2814C60.4125 29.411 60.5197 29.3038 60.5197 29.1726V24.8823C60.5197 23.3567 59.5901 22.6055 57.8977 22.6055C57.0753 22.6055 56.384 22.7012 55.9073 22.7966C55.7523 22.832 55.6812 22.9158 55.6812 23.0469V23.8096C55.6812 23.9761 55.7762 24.0119 55.8954 24.0119H55.955C56.3483 23.9646 57.1349 23.9169 57.8977 23.9169C58.6009 23.9169 58.9465 24.1072 58.9465 24.8823V25.4067H58.1956C56.1218 25.4067 55.2875 26.1099 55.2875 27.4686V27.5163C55.2875 29.1254 56.3602 29.5063 57.3494 29.5063C57.9215 29.5063 58.4813 29.3159 59.0299 28.9822V28.9821ZM56.8727 27.5162V27.4685C56.8727 26.8011 57.1111 26.4551 58.1956 26.4551H58.9465V27.921C58.6009 28.1121 58.1599 28.2548 57.7308 28.2548C57.1349 28.2548 56.8727 28.0998 56.8727 27.5162ZM62.5932 27.6115C62.5932 29.2086 63.1418 29.5062 64.4882 29.5062C64.7508 29.5062 65.0126 29.4709 65.2987 29.423C65.4536 29.399 65.5251 29.3278 65.5251 29.2086V28.4576C65.5251 28.3384 65.4301 28.2788 65.2752 28.2788H64.6432C64.2141 28.2788 64.1787 28.2076 64.1787 27.6115V23.8688H64.9082C65.0397 23.8688 65.147 23.7615 65.147 23.6311V22.9276C65.147 22.7965 65.0397 22.6892 64.9082 22.6892H64.1787V21.4612C64.1787 21.3421 64.0949 21.2828 63.988 21.2828H63.9403L62.8315 21.4735C62.7004 21.497 62.5932 21.5808 62.5932 21.7115V22.6892H61.4732C61.3417 22.6892 61.2345 22.7965 61.2345 22.9276V23.4639C61.2345 23.595 61.3417 23.6781 61.4732 23.7023L62.5932 23.8688V27.6115ZM69.685 28.2788H69.0533C68.6239 28.2788 68.5885 28.2076 68.5885 27.6115V23.8688H69.6612C69.7923 23.8688 69.8995 23.7615 69.8995 23.6311V22.9276C69.8995 22.7965 69.7923 22.6892 69.6612 22.6892H68.5885V21.4612C68.5885 21.3421 68.5051 21.2828 68.3975 21.2828H68.3501L67.2417 21.4735C67.1106 21.497 67.0034 21.5808 67.0034 21.7115V22.6892H66.2279C66.0968 22.6892 65.9896 22.7965 65.9896 22.9276V23.4639C65.9896 23.595 66.0968 23.6781 66.2279 23.7023L67.0034 23.8688V27.6115C67.0034 29.2086 67.5516 29.5062 68.898 29.5062C69.1606 29.5062 69.4228 29.4709 69.7085 29.423C69.8638 29.399 69.9349 29.3278 69.9349 29.2086V28.4576C69.9349 28.3384 69.84 28.2788 69.685 28.2788ZM76.7288 29.1606V25.2752C76.7288 23.7615 76.3832 22.6054 74.6669 22.6054C73.8803 22.6054 73.4274 22.7365 72.7361 23.1775V22.9276C72.7361 22.7965 72.6289 22.6892 72.4978 22.6892H71.4609C71.3298 22.6892 71.2225 22.7965 71.2225 22.9276V29.1606C71.2225 29.2918 71.3298 29.411 71.4609 29.411H72.5574C72.6881 29.411 72.7954 29.2918 72.7954 29.1606V24.3694C73.2963 24.1072 73.7373 23.9407 74.1425 23.9407C75.0602 23.9407 75.1552 24.2383 75.1552 25.2752V29.1606C75.1552 29.2918 75.2628 29.411 75.394 29.411H76.4904C76.6215 29.411 76.7288 29.2918 76.7288 29.1606ZM83.4505 26.5984C83.6173 26.5984 83.6888 26.4912 83.6888 26.3001V25.6327C83.6888 23.8572 82.688 22.6054 80.8526 22.6054C79.0291 22.6054 77.9922 23.7734 77.9922 25.6327V26.5147C77.9922 28.8629 79.6842 29.5062 80.8761 29.5062C81.9487 29.5062 82.4136 29.447 83.1886 29.3038C83.4028 29.2678 83.4385 29.1846 83.4385 28.9941V28.2076C83.4385 28.0883 83.3432 28.0283 83.224 28.0283H83.1886C82.688 28.0763 81.8657 28.1476 80.9953 28.1476C79.8511 28.1476 79.565 27.3251 79.565 26.6338V26.5984H83.4505ZM79.5773 25.4304C79.5773 24.4889 80.1133 23.9645 80.8526 23.9645C81.5915 23.9645 82.104 24.5008 82.104 25.4304V25.4781H79.5773V25.4304ZM88.1705 22.6054C87.6934 22.6054 87.0498 22.725 86.4658 23.1775V22.9276C86.4658 22.7965 86.3586 22.6892 86.2278 22.6892H85.1909C85.0595 22.6892 84.9522 22.7965 84.9522 22.9276V29.1606C84.9522 29.2917 85.0595 29.4109 85.1909 29.4109H86.287C86.4182 29.4109 86.5254 29.2917 86.5254 29.1606V24.3693C87.0264 24.1071 87.5266 23.9406 88.1705 23.9406C88.3013 23.9406 88.4089 23.8334 88.4089 23.7023V22.8434C88.4089 22.713 88.3013 22.6054 88.1705 22.6054ZM46.5643 32.1127H45.3728C45.2403 32.1127 45.1323 32.2082 45.1323 32.3391V40.7297C45.1323 40.8609 45.2403 40.9681 45.3728 40.9681H46.5643C46.6969 40.9681 46.8052 40.8609 46.8052 40.7297V32.3391C46.8052 32.2082 46.6969 32.1127 46.5643 32.1127ZM52.3303 34.1629C51.5357 34.1629 51.0785 34.2938 50.3804 34.735V34.4846C50.3804 34.3538 50.272 34.2466 50.1395 34.2466H49.0921C48.9596 34.2466 48.8516 34.3538 48.8516 34.4846V40.7175C48.8516 40.849 48.9596 40.9682 49.0921 40.9682H50.1998C50.3323 40.9682 50.4403 40.849 50.4403 40.7175V35.9267C50.946 35.6645 51.3916 35.498 51.8005 35.498C52.7276 35.498 52.824 35.7957 52.824 36.8325V40.7175C52.824 40.849 52.9324 40.9682 53.0646 40.9682H54.1723C54.3044 40.9682 54.4131 40.849 54.4131 40.7175V36.8325C54.4131 35.3188 54.0639 34.1629 52.3303 34.1629V34.1629ZM59.7457 37.3926L58.1685 36.4392C57.8673 36.2603 57.6867 36.1413 57.6867 35.9508C57.6867 35.5812 57.9399 35.45 58.5178 35.45C59.204 35.45 60.1669 35.5452 60.5038 35.5932H60.5522C60.6725 35.5932 60.7447 35.5099 60.7447 35.3667V34.6754C60.7447 34.5322 60.6725 34.437 60.528 34.4009C59.9137 34.2701 59.36 34.1629 58.3852 34.1629C56.8568 34.1629 56.098 34.7587 56.098 35.9508C56.098 36.6421 56.5195 37.2377 57.1092 37.5952L58.7583 38.5963C59.1437 38.8352 59.2882 38.9774 59.2882 39.2045C59.2882 39.5263 59.1794 39.7766 58.4333 39.7766C58.0725 39.7766 56.989 39.7168 56.4111 39.6455H56.3627C56.2424 39.6455 56.1583 39.7405 56.1583 39.8359V40.551C56.1583 40.6943 56.2424 40.7897 56.3869 40.8249C57.0612 41.0039 58.0725 41.0631 58.542 41.0631C60.1188 41.0631 60.9011 40.2408 60.9011 39.2045C60.9011 38.5963 60.7566 38.0004 59.7457 37.3926ZM66.0051 39.8359H65.3673C64.9339 39.8359 64.8974 39.7648 64.8974 39.1684V35.426H65.9809C66.1135 35.426 66.2218 35.3188 66.2218 35.1879V34.4846C66.2218 34.3538 66.1135 34.2466 65.9809 34.2466H64.8974V33.0185C64.8974 32.8996 64.8136 32.84 64.7049 32.84H64.6569L63.5376 33.0305C63.4047 33.0545 63.2967 33.1377 63.2967 33.2689V34.2466H62.1652C62.033 34.2466 61.9243 34.3538 61.9243 34.4846V35.0211C61.9243 35.1523 62.033 35.2356 62.1652 35.2595L63.2967 35.426V39.1684C63.2967 40.7656 63.8504 41.0631 65.2105 41.0631C65.4756 41.0631 65.7404 41.0281 66.0293 40.98C66.1857 40.9562 66.2579 40.8848 66.2579 40.7656V40.0143C66.2579 39.8951 66.1615 39.8359 66.0051 39.8359ZM69.0869 34.2465H67.9792C67.8467 34.2465 67.7383 34.3537 67.7383 34.4845V40.7175C67.7383 40.849 67.8467 40.9682 67.9792 40.9682H69.0869C69.2191 40.9682 69.3275 40.849 69.3275 40.7175V34.4845C69.3275 34.3537 69.2191 34.2465 69.0869 34.2465ZM69.1227 31.827H67.955C67.8228 31.827 67.7022 31.9342 67.7022 32.0654V33.1139C67.7022 33.2451 67.8228 33.3523 67.955 33.3523H69.1227C69.2552 33.3523 69.3632 33.2451 69.3632 33.1139V32.0654C69.3632 31.9342 69.2552 31.827 69.1227 31.827ZM74.8284 39.8358H74.1905C73.7572 39.8358 73.721 39.7647 73.721 39.1683V35.4259H74.8045C74.9367 35.4259 75.0454 35.3187 75.0454 35.1878V34.4845C75.0454 34.3537 74.9367 34.2465 74.8045 34.2465H73.721V33.0184C73.721 32.8995 73.6365 32.84 73.5285 32.84H73.4801L72.3605 33.0304C72.2283 33.0544 72.12 33.1376 72.12 33.2688V34.2465H70.9885C70.8559 34.2465 70.7476 34.3537 70.7476 34.4845V35.021C70.7476 35.1522 70.8559 35.2355 70.9885 35.2595L72.12 35.4259V39.1683C72.12 40.7655 72.6737 41.063 74.0338 41.063C74.2989 41.063 74.5636 41.028 74.8529 40.9799C75.009 40.9561 75.0812 40.8847 75.0812 40.7655V40.0143C75.0812 39.895 74.9851 39.8358 74.8284 39.8358ZM81.8462 34.2464H80.7388C80.6063 34.2464 80.4983 34.3652 80.4983 34.4964V39.2638C80.161 39.4422 79.5831 39.7405 79.1381 39.7405C78.7647 39.7405 78.5599 39.6687 78.3913 39.5263C78.163 39.3231 78.1146 38.9774 78.1146 38.3822V34.4964C78.1146 34.3652 78.0063 34.2464 77.8741 34.2464H76.7664C76.6338 34.2464 76.5255 34.3652 76.5255 34.4964V38.3822C76.5255 39.3712 76.6822 40.1104 77.1275 40.551C77.4768 40.8971 78.0063 41.0513 78.6083 41.0513C79.3787 41.0513 79.872 40.861 80.4983 40.4561V40.7298C80.4983 40.861 80.6063 40.9682 80.7388 40.9682H81.8462C81.9787 40.9682 82.0871 40.861 82.0871 40.7298V34.4964C82.0871 34.3652 81.9787 34.2464 81.8462 34.2464ZM87.5522 39.8358H86.914C86.4806 39.8358 86.4445 39.7647 86.4445 39.1683V35.4259H87.528C87.6606 35.4259 87.7685 35.3187 87.7685 35.1878V34.4845C87.7685 34.3537 87.6606 34.2465 87.528 34.2465H86.4445V33.0184C86.4445 32.8995 86.3604 32.84 86.252 32.84H86.204L85.0847 33.0304C84.9522 33.0544 84.8438 33.1376 84.8438 33.2688V34.2465H83.7123C83.5798 34.2465 83.4714 34.3537 83.4714 34.4845V35.021C83.4714 35.1522 83.5798 35.2355 83.7123 35.2595L84.8438 35.4259V39.1683C84.8438 40.7655 85.3975 41.063 86.758 41.063C87.0224 41.063 87.2871 41.028 87.576 40.9799C87.7328 40.9561 87.805 40.8847 87.805 40.7655V40.0143C87.805 39.895 87.7086 39.8358 87.5522 39.8358Z" fill="white" fill-opacity="0.8"/>
<path fill-rule="evenodd" clip-rule="evenodd" d="M35.8315 40.951H0V5.11908H35.8315V40.951ZM19.4694 9.09558H20.6493C20.7804 9.09558 20.8877 9.19093 20.8877 9.32203V17.7126C20.8877 17.8437 20.7804 17.951 20.6493 17.951H19.4694C19.3382 17.951 19.231 17.8437 19.231 17.7126V14.0656H15.8462V17.7126C15.8462 17.8437 15.739 17.951 15.6077 17.951H14.4279C14.2967 17.951 14.1895 17.8437 14.1895 17.7126V9.32203C14.1895 9.19093 14.2967 9.09558 14.4279 9.09558H15.6077C15.739 9.09558 15.8462 9.19093 15.8462 9.32203V12.6119H19.231V9.32203C19.231 9.19093 19.3382 9.09558 19.4694 9.09558ZM23.0767 9.15517C23.6968 9.05982 24.5428 9.00023 25.413 9.00023C27.2485 9.00023 28.8455 9.64382 28.8455 11.7534V11.8607C28.8455 13.9702 27.2485 14.6496 25.413 14.6496C25.2015 14.6496 24.9122 14.6329 24.6627 14.6186C24.5466 14.6119 24.4391 14.6057 24.3521 14.6019V17.7126C24.3521 17.8437 24.2569 17.951 24.1256 17.951H22.9339C22.8028 17.951 22.6955 17.8437 22.6955 17.7126V9.51272C22.6955 9.27472 22.8383 9.19093 23.0767 9.15517ZM25.413 13.2912C26.7001 13.2912 27.2005 12.8141 27.2005 11.8607V11.7534C27.2005 10.7522 26.6049 10.3709 25.413 10.3709C25.1626 10.3709 24.5665 10.3947 24.3521 10.4185V13.2551C24.5428 13.267 25.2103 13.2912 25.413 13.2912ZM30.4638 9.09558H31.6439C31.7748 9.09558 31.8823 9.19093 31.8823 9.32203V17.7126C31.8823 17.8437 31.7748 17.951 31.6439 17.951H30.4638C30.3326 17.951 30.2253 17.8437 30.2253 17.7126V9.32203C30.2253 9.19093 30.3326 9.09558 30.4638 9.09558Z" fill="white" fill-opacity="0.8"/>
<path fill-rule="evenodd" clip-rule="evenodd" d="M40.9514 30.7131H10.2383V0H40.9514V30.7131ZM19.4694 9.09556H20.6493C20.7804 9.09556 20.8877 9.19091 20.8877 9.32201V17.7126C20.8877 17.8437 20.7804 17.951 20.6493 17.951H19.4694C19.3382 17.951 19.231 17.8437 19.231 17.7126V14.0656H15.8462V17.7126C15.8462 17.8437 15.739 17.951 15.6077 17.951H14.4279C14.2967 17.951 14.1895 17.8437 14.1895 17.7126V9.32201C14.1895 9.19091 14.2967 9.09556 14.4279 9.09556H15.6077C15.739 9.09556 15.8462 9.19091 15.8462 9.32201V12.6119H19.231V9.32201C19.231 9.19091 19.3382 9.09556 19.4694 9.09556ZM23.0767 9.15516C23.6968 9.05981 24.5428 9.00022 25.413 9.00022C27.2485 9.00022 28.8455 9.64381 28.8455 11.7534V11.8606C28.8455 13.9702 27.2485 14.6496 25.413 14.6496C25.2015 14.6496 24.9122 14.6329 24.6627 14.6185C24.5466 14.6119 24.4391 14.6057 24.3521 14.6019V17.7126C24.3521 17.8437 24.2569 17.951 24.1256 17.951H22.9339C22.8028 17.951 22.6955 17.8437 22.6955 17.7126V9.51271C22.6955 9.2747 22.8383 9.19091 23.0767 9.15516ZM25.413 13.2912C26.7001 13.2912 27.2005 12.8141 27.2005 11.8606V11.7534C27.2005 10.7522 26.6049 10.3708 25.413 10.3708C25.1626 10.3708 24.5665 10.3947 24.3521 10.4185V13.2551C24.5428 13.267 25.2103 13.2912 25.413 13.2912ZM30.4638 9.09556H31.6439C31.7748 9.09556 31.8823 9.19091 31.8823 9.32201V17.7126C31.8823 17.8437 31.7748 17.951 31.6439 17.951H30.4638C30.3326 17.951 30.2253 17.8437 30.2253 17.7126V9.32201C30.2253 9.19091 30.3326 9.09556 30.4638 9.09556Z" fill="white" fill-opacity="0.8"/>
</svg>
