<?xml version="1.0" encoding="UTF-8" standalone="no"?>
<!DOCTYPE svg PUBLIC "-//W3C//DTD SVG 1.1//EN" "http://www.w3.org/Graphics/SVG/1.1/DTD/svg11.dtd">
<svg width="100%" height="100%" viewBox="0 0 78 21" version="1.1" xmlns="http://www.w3.org/2000/svg" xmlns:xlink="http://www.w3.org/1999/xlink" xml:space="preserve" style="fill-rule:evenodd;clip-rule:evenodd;stroke-linejoin:round;stroke-miterlimit:2;">
    <g transform="matrix(1,0,0,1,-1371.73,-2554.28)">
        <g transform="matrix(1,0,0,1,324.545,-236.027)">
            <g transform="matrix(0.229575,0,0,0.229575,865.962,2651.65)">
                <g>
                    <g transform="matrix(121.447,0,0,121.447,790.225,690.08)">
                        <path d="M0.433,-0.7L0.262,-0.153L0.09,-0.7L-0.007,-0.7L0.224,0.01L0.298,0.01L0.53,-0.7L0.433,-0.7Z" style="fill:white;fill-rule:nonzero;"/>
                    </g>
                    <g transform="matrix(121.447,0,0,121.447,856.742,690.08)">
                        <rect x="0.078" y="-0.7" width="0.093" height="0.71" style="fill:white;"/>
                    </g>
                    <g transform="matrix(121.447,0,0,121.447,887.982,690.08)">
                        <path d="M0.094,-0.037C0.136,-0.002 0.192,0.016 0.264,0.016C0.34,0.016 0.399,-0.002 0.443,-0.038C0.488,-0.074 0.51,-0.125 0.51,-0.191C0.51,-0.248 0.494,-0.293 0.461,-0.325C0.429,-0.357 0.382,-0.378 0.323,-0.388L0.243,-0.402C0.203,-0.409 0.174,-0.421 0.155,-0.439C0.137,-0.456 0.128,-0.48 0.128,-0.511C0.128,-0.547 0.14,-0.574 0.164,-0.595C0.188,-0.616 0.223,-0.626 0.268,-0.626C0.357,-0.626 0.403,-0.584 0.408,-0.497L0.5,-0.497C0.494,-0.57 0.469,-0.624 0.426,-0.659C0.385,-0.692 0.333,-0.709 0.269,-0.709C0.2,-0.709 0.144,-0.691 0.102,-0.656C0.059,-0.62 0.037,-0.57 0.037,-0.506C0.037,-0.451 0.053,-0.407 0.085,-0.376C0.117,-0.346 0.162,-0.326 0.219,-0.316L0.297,-0.303C0.339,-0.296 0.37,-0.283 0.389,-0.266C0.408,-0.248 0.418,-0.222 0.418,-0.187C0.418,-0.148 0.406,-0.119 0.381,-0.099C0.356,-0.078 0.319,-0.068 0.269,-0.068C0.171,-0.068 0.12,-0.113 0.114,-0.205L0.022,-0.205C0.027,-0.131 0.051,-0.075 0.094,-0.037Z" style="fill:white;fill-rule:nonzero;"/>
                    </g>
                    <g transform="matrix(121.447,0,0,121.447,954.292,690.08)">
                        <rect x="0.078" y="-0.7" width="0.093" height="0.71" style="fill:white;"/>
                    </g>
                    <g transform="matrix(121.447,0,0,121.447,986.532,690.08)">
                        <path d="M0.149,-0.156L0.428,-0.156L0.486,0.01L0.584,0.01L0.326,-0.7L0.251,-0.7L-0.007,0.01L0.091,0.01L0.149,-0.156ZM0.288,-0.558L0.4,-0.238L0.177,-0.238L0.288,-0.558Z" style="fill:white;fill-rule:nonzero;"/>
                    </g>
                    <g transform="matrix(121.447,0,0,121.447,1057.58,690.08)">
                        <path d="M0.494,-0.7L0.494,-0.169L0.158,-0.7L0.07,-0.7L0.07,0.01L0.163,0.01L0.163,-0.523L0.499,0.01L0.587,0.01L0.587,-0.7L0.494,-0.7Z" style="fill:white;fill-rule:nonzero;"/>
                    </g>
                </g>
            </g>
        </g>
    </g>
</svg>
