<svg width="70" height="35" viewBox="0 0 70 35" fill="none" xmlns="http://www.w3.org/2000/svg">
<path d="M11.0387 0.355469L6.74865 14.0786L2.43353 0.355469H0L5.79531 18.1679H7.65181L13.4722 0.355469H11.0387Z" fill="white"/>
<path d="M18.2355 0.359375H15.9023V18.1718H18.2355V0.359375Z" fill="white"/>
<path d="M22.6384 16.9411C23.6921 17.8192 25.097 18.2708 26.9033 18.2708C28.81 18.2708 30.2902 17.8192 31.394 16.916C32.523 16.0129 33.0749 14.7334 33.0749 13.0776C33.0749 11.6476 32.6735 10.5186 31.8456 9.71579C31.0428 8.91297 29.8637 8.38613 28.3835 8.13525L26.3765 7.78402C25.3729 7.6084 24.6454 7.30735 24.1687 6.85577C23.7171 6.42927 23.4913 5.82716 23.4913 5.04944C23.4913 4.14627 23.7924 3.4689 24.3945 2.94205C24.9966 2.41521 25.8747 2.16433 27.0037 2.16433C29.2365 2.16433 30.3905 3.21802 30.516 5.40067H32.8241C32.6735 3.56925 32.0463 2.2145 30.9675 1.33643C29.9389 0.508526 28.6344 0.0820312 27.0287 0.0820312C25.2977 0.0820312 23.8928 0.533613 22.8391 1.41169C21.7603 2.31485 21.2083 3.56925 21.2083 5.17488C21.2083 6.55471 21.6098 7.65858 22.4126 8.4363C23.2154 9.18894 24.3443 9.6907 25.7743 9.94158L27.7312 10.2677C28.7849 10.4433 29.5626 10.7695 30.0393 11.196C30.516 11.6476 30.7668 12.2998 30.7668 13.1779C30.7668 14.1563 30.4658 14.8839 29.8386 15.3857C29.2114 15.9125 28.2831 16.1634 27.0287 16.1634C24.5701 16.1634 23.2906 15.0344 23.1401 12.7263H20.832C20.9575 14.5828 21.5596 15.9878 22.6384 16.9411Z" fill="white"/>
<path d="M38.2472 0.355469H35.9141V18.1679H38.2472V0.355469Z" fill="white"/>
<path d="M44.4879 14.0033H51.4875L52.9426 18.1679H55.4012L48.9285 0.355469H47.0469L40.5742 18.1679H43.0328L44.4879 14.0033ZM47.9752 3.91795L50.785 11.9461H45.1904L47.9752 3.91795Z" fill="white"/>
<path d="M67.6685 0.359375V13.6811L59.239 0.359375H57.0312V18.1718H59.3644V4.79993L67.794 18.1718H70.0017V0.359375H67.6685Z" fill="white"/>
<path d="M49.0829 33.7414H49.0233C49.0114 33.7414 49.0039 33.7515 49.0039 33.7625V34.5476C49.0039 34.5599 49.0125 34.5699 49.0233 34.5699H49.0829C49.0948 34.5699 49.1023 34.5588 49.1023 34.5476V33.7625C49.1023 33.7503 49.0936 33.7414 49.0829 33.7414ZM49.7594 33.7414H49.239C49.2271 33.7414 49.2174 33.7503 49.2174 33.7615V33.8104C49.2174 33.8228 49.2271 33.8283 49.239 33.8283H49.45V34.5476C49.45 34.5599 49.4586 34.5699 49.4694 34.5699H49.5289C49.5408 34.5699 49.5484 34.5588 49.5484 34.5476V33.8283H49.7594C49.7713 33.8283 49.7799 33.8216 49.7799 33.8104V33.7615C49.7799 33.7491 49.7713 33.7414 49.7594 33.7414H49.7594ZM50.418 34.1273L50.3185 34.066C50.2364 34.0145 50.2007 33.9833 50.2007 33.9309C50.2007 33.8494 50.2482 33.825 50.3597 33.825C50.4224 33.825 50.4981 33.8283 50.5457 33.8317H50.5479C50.5587 33.8317 50.5663 33.825 50.5663 33.8137V33.7659C50.5663 33.7548 50.5587 33.7491 50.5479 33.7469C50.5068 33.7402 50.4235 33.7336 50.3597 33.7336C50.1952 33.7336 50.1011 33.796 50.1011 33.9309C50.1011 34.0202 50.1509 34.077 50.2504 34.1394L50.3554 34.2054C50.4538 34.2676 50.4851 34.299 50.4851 34.3548C50.4851 34.4327 50.4505 34.4863 50.3207 34.4863C50.2709 34.4863 50.192 34.4842 50.1423 34.4796H50.139C50.1293 34.4796 50.1206 34.4852 50.1206 34.4974V34.5421C50.1206 34.5543 50.1228 34.5588 50.1412 34.5622C50.1888 34.5699 50.245 34.5778 50.3207 34.5778C50.5338 34.5778 50.5879 34.4617 50.5879 34.3548C50.5879 34.2655 50.5435 34.2042 50.418 34.1273ZM51.1093 33.9566H51.0487C51.0389 33.9566 51.0303 33.9644 51.0282 33.9733L50.8962 34.4829H50.8789C50.8713 34.4829 50.8637 34.4808 50.8583 34.4585L50.7307 33.9745C50.7285 33.9656 50.721 33.9566 50.7123 33.9566H50.6528C50.6399 33.9566 50.6333 33.9644 50.6333 33.9755C50.6333 33.9778 50.6333 33.9812 50.6344 33.9833L50.7782 34.493C50.7978 34.5622 50.8258 34.5699 50.8583 34.5699H50.8735L50.8627 34.6156C50.8443 34.6937 50.8172 34.7105 50.7556 34.7105C50.7318 34.7105 50.6831 34.706 50.6593 34.7037H50.656C50.6442 34.7037 50.6355 34.7093 50.6355 34.7216V34.7629C50.6355 34.774 50.6452 34.7774 50.6582 34.7807C50.6809 34.7862 50.7188 34.7907 50.7491 34.7907C50.8735 34.7907 50.9135 34.7462 50.9471 34.6257L51.1255 33.9833C51.1266 33.9812 51.1266 33.9778 51.1266 33.9755C51.1266 33.9644 51.1201 33.9566 51.1093 33.9566ZM51.4801 34.2477L51.373 34.1818C51.3233 34.1517 51.2984 34.1306 51.2984 34.0971C51.2984 34.0403 51.3383 34.0324 51.399 34.0324C51.4596 34.0324 51.5288 34.038 51.5666 34.0413H51.5699C51.5807 34.0413 51.5883 34.0357 51.5883 34.0224V33.9855C51.5883 33.9733 51.5818 33.9656 51.5677 33.9633C51.5169 33.9543 51.4596 33.9489 51.399 33.9489C51.2876 33.9489 51.2031 33.9812 51.2031 34.0971C51.2031 34.1673 51.2475 34.2154 51.3136 34.2566L51.4228 34.3235C51.4844 34.3613 51.5039 34.3826 51.5039 34.4161C51.5039 34.4762 51.4671 34.4952 51.3968 34.4952C51.3579 34.4952 51.2789 34.4896 51.2269 34.4829H51.2227C51.2119 34.4829 51.2031 34.4896 51.2031 34.4997V34.5388C51.2031 34.551 51.2119 34.5576 51.2259 34.561C51.2789 34.5745 51.3568 34.5778 51.3968 34.5778C51.518 34.5778 51.599 34.5299 51.599 34.4161C51.599 34.3502 51.5699 34.3024 51.4801 34.2477ZM51.982 34.4986H51.9214C51.8782 34.4986 51.863 34.4896 51.863 34.4284V34.0391H51.9799C51.9918 34.0391 52.0015 34.0291 52.0015 34.0169V33.9788C52.0015 33.9666 51.9918 33.9566 51.9799 33.9566H51.863V33.8351C51.863 33.8239 51.8554 33.8162 51.8468 33.8162H51.8435L51.7873 33.825C51.7754 33.8272 51.7679 33.8361 51.7679 33.8473V33.9566H51.6629C51.651 33.9566 51.6424 33.9644 51.6424 33.9767V34.0068C51.6424 34.019 51.651 34.0257 51.6629 34.0269L51.7679 34.0391V34.4284C51.7679 34.551 51.8154 34.5778 51.915 34.5778C51.9355 34.5778 51.9636 34.5754 51.9852 34.5721C51.9993 34.5699 52.0047 34.5632 52.0047 34.5532V34.5142C52.0047 34.5031 51.9971 34.4986 51.982 34.4986ZM52.3006 33.9489C52.146 33.9489 52.0605 34.0501 52.0605 34.2097V34.3101C52.0605 34.5175 52.1817 34.5778 52.3061 34.5778C52.3786 34.5778 52.438 34.5711 52.4997 34.5588C52.517 34.5555 52.5214 34.5476 52.5214 34.533V34.4952C52.5214 34.4842 52.5127 34.4796 52.504 34.4796H52.4986C52.4488 34.4875 52.3688 34.4919 52.3061 34.4919C52.2066 34.4919 52.1557 34.4428 52.1557 34.3101V34.2945H52.5181C52.5311 34.2945 52.5386 34.2844 52.5386 34.27V34.2097C52.5386 34.0514 52.4585 33.9489 52.3006 33.9489ZM52.4424 34.2198H52.1557V34.2097C52.1557 34.0892 52.2077 34.0346 52.3006 34.0346C52.3959 34.0346 52.4424 34.0837 52.4424 34.2097V34.2198ZM53.188 33.9476C53.1317 33.9476 53.0679 33.9644 53.0084 33.9934C52.9814 33.961 52.9468 33.9476 52.9002 33.9476C52.8407 33.9476 52.7856 33.9723 52.7423 34.0001V33.9788C52.7423 33.9666 52.7337 33.9566 52.7218 33.9566H52.6676C52.6557 33.9566 52.6471 33.9666 52.6471 33.9788V34.5476C52.6471 34.5599 52.6547 34.5699 52.6655 34.5699H52.7229C52.7348 34.5699 52.7423 34.5588 52.7423 34.5476V34.077C52.7878 34.0535 52.8353 34.0336 52.8743 34.0336C52.9305 34.0336 52.9576 34.0535 52.9576 34.1505V34.5476C52.9576 34.5599 52.9651 34.5699 52.9759 34.5699H53.0333C53.0452 34.5699 53.0528 34.5588 53.0528 34.5476V34.1505C53.0528 34.1172 53.0495 34.0883 53.043 34.0636C53.0853 34.0468 53.1307 34.0336 53.1696 34.0336C53.2258 34.0336 53.268 34.0593 53.268 34.1529V34.5476C53.268 34.5599 53.2778 34.5699 53.2897 34.5699H53.3416C53.3535 34.5699 53.3632 34.5599 53.3632 34.5476V34.1529C53.3632 33.9979 53.2854 33.9476 53.188 33.9476ZM53.742 34.2477L53.635 34.1818C53.5852 34.1517 53.5603 34.1306 53.5603 34.0971C53.5603 34.0403 53.6004 34.0324 53.6609 34.0324C53.7215 34.0324 53.7907 34.038 53.8285 34.0413H53.8318C53.8426 34.0413 53.8502 34.0357 53.8502 34.0224V33.9855C53.8502 33.9733 53.8437 33.9656 53.8296 33.9633C53.7788 33.9543 53.7215 33.9489 53.6609 33.9489C53.5495 33.9489 53.4651 33.9812 53.4651 34.0971C53.4651 34.1673 53.5095 34.2154 53.5755 34.2566L53.6847 34.3235C53.7464 34.3613 53.7658 34.3826 53.7658 34.4161C53.7658 34.4762 53.729 34.4952 53.6588 34.4952C53.6198 34.4952 53.5409 34.4896 53.4889 34.4829H53.4846C53.4738 34.4829 53.4651 34.4896 53.4651 34.4997V34.5388C53.4651 34.551 53.4738 34.5576 53.4879 34.561C53.5409 34.5745 53.6187 34.5778 53.6588 34.5778C53.7799 34.5778 53.861 34.5299 53.861 34.4161C53.861 34.3502 53.8318 34.3024 53.742 34.2477ZM54.6701 33.7402C54.6247 33.7357 54.523 33.7336 54.4592 33.7336C54.3077 33.7336 54.2288 33.7926 54.2288 33.941V34.3704C54.2288 34.5186 54.3077 34.5778 54.4592 34.5778C54.523 34.5778 54.629 34.5766 54.6701 34.5721C54.6766 34.5711 54.6809 34.5632 54.6809 34.5565V34.4997C54.6809 34.4919 54.6766 34.4863 54.669 34.4863H54.4603C54.3456 34.4863 54.3272 34.4551 54.3272 34.3704V34.1829H54.6593C54.6712 34.1829 54.6809 34.173 54.6809 34.1606V34.1182C54.6809 34.106 54.6712 34.096 54.6593 34.096H54.3272V33.941C54.3272 33.8562 54.3456 33.825 54.4603 33.825H54.669C54.6766 33.825 54.6809 33.8195 54.6809 33.8116V33.7558C54.6809 33.7491 54.6766 33.7414 54.6701 33.7402ZM55.0579 33.9489C54.9941 33.9489 54.9454 33.9656 54.8859 34.0001V33.9788C54.8859 33.9666 54.8772 33.9566 54.8653 33.9566H54.8113C54.7994 33.9566 54.7907 33.9666 54.7907 33.9788V34.5476C54.7907 34.5599 54.8004 34.5699 54.8113 34.5699H54.8643C54.8762 34.5699 54.8859 34.5588 54.8859 34.5476V34.077C54.9357 34.0514 54.9865 34.0336 55.0319 34.0336C55.1141 34.0336 55.1509 34.0681 55.1509 34.1807V34.5476C55.1509 34.5599 55.1607 34.5699 55.1726 34.5699H55.2245C55.2364 34.5699 55.2461 34.5599 55.2461 34.5476V34.1807C55.2461 34.0324 55.1876 33.9489 55.0579 33.9489ZM55.838 33.9566H55.6011C55.4151 33.9566 55.361 34.0547 55.361 34.1539V34.163C55.361 34.2198 55.3772 34.26 55.4107 34.2923C55.3805 34.3101 55.3664 34.3424 55.3664 34.3725V34.3737C55.3664 34.4082 55.3815 34.4451 55.4162 34.4606L55.4237 34.464C55.388 34.4919 55.3555 34.5431 55.3555 34.6056V34.6156C55.3555 34.7249 55.4334 34.793 55.6043 34.793C55.7817 34.793 55.8509 34.7273 55.8509 34.6202V34.6111C55.8509 34.5064 55.7493 34.475 55.6433 34.4473L55.4821 34.4049C55.4572 34.3982 55.4486 34.3881 55.4486 34.3692C55.4486 34.3525 55.4572 34.3402 55.4756 34.3313C55.507 34.3448 55.5438 34.3536 55.6011 34.3536C55.7677 34.3536 55.8412 34.2856 55.8412 34.163V34.1539C55.8412 34.0937 55.824 34.0603 55.8045 34.0391L55.8434 34.0313C55.8553 34.0291 55.8628 34.0246 55.8628 34.0102V33.9812C55.8628 33.9677 55.8509 33.9566 55.838 33.9566ZM55.5016 34.4919L55.6238 34.5242C55.7212 34.5498 55.7558 34.5678 55.7558 34.6111V34.6202C55.7558 34.6815 55.7276 34.7172 55.6043 34.7172C55.4843 34.7172 55.4486 34.6782 55.4486 34.6156V34.6056C55.4486 34.5476 55.4702 34.5198 55.5016 34.4919ZM55.7472 34.163C55.7472 34.2298 55.7179 34.2767 55.6011 34.2767C55.4767 34.2767 55.455 34.212 55.455 34.163V34.1539C55.455 34.0916 55.48 34.0346 55.6011 34.0346C55.7179 34.0346 55.7472 34.087 55.7472 34.1539V34.163ZM56.0421 33.9566H55.9902C55.9783 33.9566 55.9686 33.9666 55.9686 33.9788V34.5476C55.9686 34.5599 55.9783 34.5699 55.9902 34.5699H56.0421C56.054 34.5699 56.0637 34.5599 56.0637 34.5476V33.9788C56.0637 33.9666 56.054 33.9566 56.0421 33.9566ZM56.0443 33.7246H55.9892C55.9773 33.7246 55.9675 33.7347 55.9675 33.7469V33.8361C55.9675 33.8485 55.9773 33.8585 55.9892 33.8585H56.0443C56.0562 33.8585 56.0659 33.8485 56.0659 33.8361V33.7469C56.0659 33.7347 56.0562 33.7246 56.0443 33.7246ZM56.4724 33.9489C56.4085 33.9489 56.3598 33.9656 56.3003 34.0001V33.9788C56.3003 33.9666 56.2917 33.9566 56.2798 33.9566H56.2257C56.2138 33.9566 56.2051 33.9666 56.2051 33.9788V34.5476C56.2051 34.5599 56.2148 34.5699 56.2257 34.5699H56.2787C56.2906 34.5699 56.3003 34.5588 56.3003 34.5476V34.077C56.3501 34.0514 56.4009 34.0336 56.4464 34.0336C56.5285 34.0336 56.5653 34.0681 56.5653 34.1807V34.5476C56.5653 34.5599 56.5751 34.5699 56.587 34.5699H56.6389C56.6508 34.5699 56.6605 34.5599 56.6605 34.5476V34.1807C56.6605 34.0324 56.6021 33.9489 56.4724 33.9489ZM57.015 33.9489C56.8603 33.9489 56.7749 34.0501 56.7749 34.2097V34.3101C56.7749 34.5175 56.896 34.5778 57.0204 34.5778C57.0929 34.5778 57.1524 34.5711 57.2141 34.5588C57.2313 34.5555 57.2357 34.5476 57.2357 34.533V34.4952C57.2357 34.4842 57.227 34.4796 57.2184 34.4796H57.2129C57.1631 34.4875 57.0832 34.4919 57.0204 34.4919C56.9209 34.4919 56.87 34.4428 56.87 34.3101V34.2945H57.2324C57.2454 34.2945 57.2529 34.2844 57.2529 34.27V34.2097C57.2529 34.0514 57.1729 33.9489 57.015 33.9489ZM57.1567 34.2198H56.87V34.2097C56.87 34.0892 56.922 34.0346 57.015 34.0346C57.1102 34.0346 57.1567 34.0837 57.1567 34.2097V34.2198ZM57.5919 33.9489C57.4372 33.9489 57.3517 34.0501 57.3517 34.2097V34.3101C57.3517 34.5175 57.4729 34.5778 57.5972 34.5778C57.6698 34.5778 57.7292 34.5711 57.7909 34.5588C57.8082 34.5555 57.8125 34.5476 57.8125 34.533V34.4952C57.8125 34.4842 57.8038 34.4796 57.7952 34.4796H57.7898C57.7401 34.4875 57.66 34.4919 57.5972 34.4919C57.4977 34.4919 57.447 34.4428 57.447 34.3101V34.2945H57.8093C57.8222 34.2945 57.8298 34.2844 57.8298 34.27V34.2097C57.8298 34.0514 57.7498 33.9489 57.5919 33.9489ZM57.7335 34.2198H57.447V34.2097C57.447 34.0892 57.4988 34.0346 57.5919 34.0346C57.687 34.0346 57.7335 34.0837 57.7335 34.2097V34.2198ZM58.1882 33.9489C58.1395 33.9489 58.0897 33.9633 58.0357 34.0023V33.9788C58.0357 33.9666 58.027 33.9566 58.0151 33.9566H57.9644C57.9524 33.9566 57.9437 33.9666 57.9437 33.9788V34.5476C57.9437 34.5599 57.9535 34.5699 57.9644 34.5699H58.0173C58.0291 34.5699 58.0389 34.5588 58.0389 34.5476V34.0804C58.093 34.0468 58.1384 34.0336 58.1882 34.0336C58.2034 34.0336 58.211 34.0269 58.211 34.0145V33.9689C58.211 33.9556 58.2034 33.9489 58.1882 33.9489ZM58.3854 33.9566H58.3334C58.3216 33.9566 58.3118 33.9666 58.3118 33.9788V34.5476C58.3118 34.5599 58.3216 34.5699 58.3334 34.5699H58.3854C58.3972 34.5699 58.407 34.5599 58.407 34.5476V33.9788C58.407 33.9666 58.3972 33.9566 58.3854 33.9566ZM58.3875 33.7246H58.3325C58.3205 33.7246 58.3108 33.7347 58.3108 33.7469V33.8361C58.3108 33.8485 58.3205 33.8585 58.3325 33.8585H58.3875C58.3995 33.8585 58.4092 33.8485 58.4092 33.8361V33.7469C58.4092 33.7347 58.3995 33.7246 58.3875 33.7246ZM58.8154 33.9489C58.7516 33.9489 58.703 33.9656 58.6434 34.0001V33.9788C58.6434 33.9666 58.6348 33.9566 58.6229 33.9566H58.5688C58.557 33.9566 58.5483 33.9666 58.5483 33.9788V34.5476C58.5483 34.5599 58.558 34.5699 58.5688 34.5699H58.6219C58.6337 34.5699 58.6434 34.5588 58.6434 34.5476V34.077C58.6933 34.0514 58.744 34.0336 58.7895 34.0336C58.8718 34.0336 58.9085 34.0681 58.9085 34.1807V34.5476C58.9085 34.5599 58.9183 34.5699 58.9301 34.5699H58.9821C58.9939 34.5699 59.0037 34.5599 59.0037 34.5476V34.1807C59.0037 34.0324 58.9453 33.9489 58.8154 33.9489ZM59.5956 33.9566H59.3587C59.1726 33.9566 59.1186 34.0547 59.1186 34.1539V34.163C59.1186 34.2198 59.1348 34.26 59.1683 34.2923C59.138 34.3101 59.124 34.3424 59.124 34.3725V34.3737C59.124 34.4082 59.1392 34.4451 59.1737 34.4606L59.1813 34.464C59.1456 34.4919 59.1132 34.5431 59.1132 34.6056V34.6156C59.1132 34.7249 59.1911 34.793 59.3619 34.793C59.5393 34.793 59.6086 34.7273 59.6086 34.6202V34.6111C59.6086 34.5064 59.5069 34.475 59.4009 34.4473L59.2397 34.4049C59.2149 34.3982 59.2062 34.3881 59.2062 34.3692C59.2062 34.3525 59.2149 34.3402 59.2332 34.3313C59.2647 34.3448 59.3013 34.3536 59.3587 34.3536C59.5254 34.3536 59.5989 34.2856 59.5989 34.163V34.1539C59.5989 34.0937 59.5815 34.0603 59.5621 34.0391L59.601 34.0313C59.6129 34.0291 59.6205 34.0246 59.6205 34.0102V33.9812C59.6205 33.9677 59.6086 33.9566 59.5956 33.9566ZM59.2592 34.4919L59.3814 34.5242C59.4788 34.5498 59.5134 34.5678 59.5134 34.6111V34.6202C59.5134 34.6815 59.4853 34.7172 59.3619 34.7172C59.2418 34.7172 59.2062 34.6782 59.2062 34.6156V34.6056C59.2062 34.5476 59.2278 34.5198 59.2592 34.4919ZM59.5048 34.163C59.5048 34.2298 59.4756 34.2767 59.3587 34.2767C59.2343 34.2767 59.2127 34.212 59.2127 34.163V34.1539C59.2127 34.0916 59.2376 34.0346 59.3587 34.0346C59.4756 34.0346 59.5048 34.087 59.5048 34.1539V34.163ZM60.0521 33.7414H59.9958C59.985 33.7414 59.9753 33.7515 59.9753 33.7625V34.7651C59.9753 34.7761 59.985 34.7862 59.9958 34.7862H60.0521C60.0629 34.7862 60.0715 34.7761 60.0715 34.7651V33.7625C60.0715 33.7515 60.0629 33.7414 60.0521 33.7414ZM61.0018 33.7414H60.9434C60.9315 33.7414 60.9228 33.7515 60.9228 33.7625V34.2688C60.9228 34.4138 60.8796 34.4908 60.7453 34.4908C60.6114 34.4908 60.568 34.4128 60.568 34.2688V33.7625C60.568 33.7503 60.5583 33.7414 60.5475 33.7414H60.489C60.4771 33.7414 60.4685 33.7515 60.4685 33.7625V34.2688C60.4685 34.4818 60.5702 34.5778 60.7453 34.5778C60.9206 34.5778 61.0223 34.4818 61.0223 34.2688V33.7625C61.0223 33.7503 61.0126 33.7414 61.0018 33.7414ZM61.436 33.9489C61.3722 33.9489 61.3234 33.9656 61.2639 34.0001V33.9788C61.2639 33.9666 61.2553 33.9566 61.2434 33.9566H61.1894C61.1775 33.9566 61.1688 33.9666 61.1688 33.9788V34.5476C61.1688 34.5599 61.1785 34.5699 61.1894 34.5699H61.2423C61.2542 34.5699 61.2639 34.5588 61.2639 34.5476V34.077C61.3137 34.0514 61.3645 34.0336 61.41 34.0336C61.4922 34.0336 61.529 34.0681 61.529 34.1807V34.5476C61.529 34.5599 61.5387 34.5699 61.5506 34.5699H61.6026C61.6144 34.5699 61.6242 34.5599 61.6242 34.5476V34.1807C61.6242 34.0324 61.5658 33.9489 61.436 33.9489ZM61.8445 33.7246H61.7892C61.7774 33.7246 61.7675 33.7347 61.7675 33.7469V33.8361C61.7675 33.8485 61.7774 33.8585 61.7892 33.8585H61.8445C61.8564 33.8585 61.8661 33.8485 61.8661 33.8361V33.7469C61.8661 33.7347 61.8564 33.7246 61.8445 33.7246ZM61.8423 33.9566H61.7903C61.7784 33.9566 61.7687 33.9666 61.7687 33.9788V34.5476C61.7687 34.5599 61.7784 34.5699 61.7903 34.5699H61.8423C61.8542 34.5699 61.8639 34.5599 61.8639 34.5476V33.9788C61.8639 33.9666 61.8542 33.9566 61.8423 33.9566ZM62.4488 33.9566H62.3893C62.3806 33.9566 62.3731 33.9633 62.3687 33.9778L62.2443 34.464C62.2379 34.4908 62.2313 34.4964 62.2216 34.4964C62.2107 34.4964 62.2054 34.4908 62.1988 34.464L62.0745 33.9778C62.0702 33.9633 62.0626 33.9566 62.0539 33.9566H61.9944C61.9836 33.9566 61.9772 33.9644 61.9772 33.9755C61.9772 33.9778 61.9772 33.98 61.9782 33.9833L62.1243 34.5142C62.1384 34.5643 62.175 34.5778 62.2216 34.5778C62.2681 34.5778 62.3049 34.5643 62.3189 34.5142L62.4649 33.9833C62.466 33.98 62.466 33.9778 62.466 33.9755C62.466 33.9644 62.4595 33.9566 62.4488 33.9566ZM62.7707 33.9489C62.616 33.9489 62.5306 34.0501 62.5306 34.2097V34.3101C62.5306 34.5175 62.6517 34.5778 62.7761 34.5778C62.8485 34.5778 62.908 34.5711 62.9697 34.5588C62.9869 34.5555 62.9913 34.5476 62.9913 34.533V34.4952C62.9913 34.4842 62.9826 34.4796 62.974 34.4796H62.9686C62.9188 34.4875 62.8389 34.4919 62.7761 34.4919C62.6766 34.4919 62.6257 34.4428 62.6257 34.3101V34.2945H62.9881C63.001 34.2945 63.0086 34.2844 63.0086 34.27V34.2097C63.0086 34.0514 62.9287 33.9489 62.7707 33.9489ZM62.9124 34.2198H62.6257V34.2097C62.6257 34.0892 62.6777 34.0346 62.7707 34.0346C62.8658 34.0346 62.9124 34.0837 62.9124 34.2097V34.2198ZM63.3615 33.9489C63.3129 33.9489 63.2631 33.9633 63.2091 34.0023V33.9788C63.2091 33.9666 63.2004 33.9566 63.1885 33.9566H63.1377C63.1258 33.9566 63.1171 33.9666 63.1171 33.9788V34.5476C63.1171 34.5599 63.1268 34.5699 63.1377 34.5699H63.1906C63.2026 34.5699 63.2123 34.5588 63.2123 34.5476V34.0804C63.2664 34.0468 63.3118 34.0336 63.3615 34.0336C63.3767 34.0336 63.3843 34.0269 63.3843 34.0145V33.9689C63.3843 33.9556 63.3767 33.9489 63.3615 33.9489ZM63.7207 34.2477L63.6136 34.1818C63.5639 34.1517 63.539 34.1306 63.539 34.0971C63.539 34.0403 63.5791 34.0324 63.6396 34.0324C63.7002 34.0324 63.7693 34.038 63.8073 34.0413H63.8105C63.8213 34.0413 63.8289 34.0357 63.8289 34.0224V33.9855C63.8289 33.9733 63.8224 33.9656 63.8083 33.9633C63.7575 33.9543 63.7002 33.9489 63.6396 33.9489C63.5282 33.9489 63.4438 33.9812 63.4438 34.0971C63.4438 34.1673 63.4881 34.2154 63.5541 34.2566L63.6634 34.3235C63.7251 34.3613 63.7445 34.3826 63.7445 34.4161C63.7445 34.4762 63.7077 34.4952 63.6374 34.4952C63.5985 34.4952 63.5195 34.4896 63.4676 34.4829H63.4633C63.4525 34.4829 63.4438 34.4896 63.4438 34.4997V34.5388C63.4438 34.551 63.4525 34.5576 63.4665 34.561C63.5195 34.5745 63.5973 34.5778 63.6374 34.5778C63.7585 34.5778 63.8398 34.5299 63.8398 34.4161C63.8398 34.3502 63.8105 34.3024 63.7207 34.2477ZM64.021 33.9566H63.9691C63.9572 33.9566 63.9475 33.9666 63.9475 33.9788V34.5476C63.9475 34.5599 63.9572 34.5699 63.9691 34.5699H64.021C64.0329 34.5699 64.0426 34.5599 64.0426 34.5476V33.9788C64.0426 33.9666 64.0329 33.9566 64.021 33.9566ZM64.0232 33.7246H63.968C63.9561 33.7246 63.9463 33.7347 63.9463 33.7469V33.8361C63.9463 33.8485 63.9561 33.8585 63.968 33.8585H64.0232C64.0351 33.8585 64.0448 33.8485 64.0448 33.8361V33.7469C64.0448 33.7347 64.0351 33.7246 64.0232 33.7246ZM64.4772 34.4986H64.4167C64.3734 34.4986 64.3583 34.4896 64.3583 34.4284V34.0391H64.4751C64.487 34.0391 64.4968 34.0291 64.4968 34.0169V33.9788C64.4968 33.9666 64.487 33.9566 64.4751 33.9566H64.3583V33.8351C64.3583 33.8239 64.3508 33.8162 64.342 33.8162H64.3388L64.2826 33.825C64.2706 33.8272 64.2631 33.8361 64.2631 33.8473V33.9566H64.1582C64.1463 33.9566 64.1376 33.9644 64.1376 33.9767V34.0068C64.1376 34.019 64.1463 34.0257 64.1582 34.0269L64.2631 34.0391V34.4284C64.2631 34.551 64.3107 34.5778 64.4102 34.5778C64.4307 34.5778 64.4588 34.5754 64.4805 34.5721C64.4945 34.5699 64.5 34.5632 64.5 34.5532V34.5142C64.5 34.5031 64.4924 34.4986 64.4772 34.4986ZM64.6833 33.8552H64.7255C64.7364 33.8552 64.7472 33.8461 64.7472 33.8339V33.7436C64.7472 33.7324 64.7364 33.7213 64.7255 33.7213H64.6833C64.6725 33.7213 64.6617 33.7324 64.6617 33.7436V33.8339C64.6617 33.8461 64.6725 33.8552 64.6833 33.8552ZM64.8727 33.8552H64.9149C64.9256 33.8552 64.9365 33.8461 64.9365 33.8339V33.7436C64.9365 33.7324 64.9256 33.7213 64.9149 33.7213H64.8727C64.8618 33.7213 64.851 33.7324 64.851 33.7436V33.8339C64.851 33.8461 64.8618 33.8552 64.8727 33.8552ZM64.7937 33.9489C64.7201 33.9489 64.6703 33.9556 64.626 33.9633C64.6109 33.9656 64.6032 33.9723 64.6032 33.9845V34.0236C64.6032 34.038 64.6129 34.0413 64.6228 34.0413H64.6282C64.6714 34.0369 64.7233 34.0324 64.7937 34.0324C64.878 34.0324 64.9094 34.0648 64.9094 34.1584V34.203H64.8293C64.6368 34.203 64.5687 34.2633 64.5687 34.3838V34.397C64.5687 34.5364 64.653 34.5778 64.7449 34.5778C64.8055 34.5778 64.8596 34.5543 64.9115 34.5232V34.5476C64.9115 34.5599 64.9213 34.5699 64.9332 34.5699H64.983C64.9949 34.5699 65.0046 34.5599 65.0046 34.5476V34.1584C65.0046 34.0269 64.944 33.9489 64.7937 33.9489ZM64.9094 34.4528C64.8575 34.4818 64.8131 34.4974 64.7634 34.4974C64.7006 34.4974 64.6639 34.4762 64.6639 34.396V34.3826C64.6639 34.3034 64.6984 34.2734 64.8293 34.2734H64.9094V34.4528ZM65.419 34.4986H65.3584C65.3151 34.4986 65.3 34.4896 65.3 34.4284V34.0391H65.4168C65.4287 34.0391 65.4384 34.0291 65.4384 34.0169V33.9788C65.4384 33.9666 65.4287 33.9566 65.4168 33.9566H65.3V33.8351C65.3 33.8239 65.2924 33.8162 65.2838 33.8162H65.2806L65.2243 33.825C65.2124 33.8272 65.2048 33.8361 65.2048 33.8473V33.9566H65.0998C65.0879 33.9566 65.0794 33.9644 65.0794 33.9767V34.0068C65.0794 34.019 65.0879 34.0257 65.0998 34.0269L65.2048 34.0391V34.4284C65.2048 34.551 65.2524 34.5778 65.352 34.5778C65.3724 34.5778 65.4006 34.5754 65.4222 34.5721C65.4363 34.5699 65.4417 34.5632 65.4417 34.5532V34.5142C65.4417 34.5031 65.4341 34.4986 65.419 34.4986ZM66.0042 33.7336C65.9414 33.7336 65.8712 33.7369 65.8246 33.7424C65.8084 33.7448 65.7987 33.7548 65.7987 33.7704V34.5476C65.7987 34.5599 65.8073 34.5699 65.8181 34.5699H65.8766C65.8885 34.5699 65.896 34.5588 65.896 34.5476V34.2343C65.9242 34.2365 65.9696 34.2398 66.0042 34.2398C66.1795 34.2398 66.307 34.1763 66.307 33.99V33.9755C66.307 33.796 66.1795 33.7336 66.0042 33.7336ZM66.2086 33.99C66.2086 34.106 66.1524 34.1551 66.0042 34.1551C65.9761 34.1551 65.9209 34.1517 65.896 34.1505V33.8239C65.9219 33.8217 65.9707 33.8195 66.0042 33.8195C66.1438 33.8195 66.2086 33.8629 66.2086 33.9755V33.99ZM66.6266 33.9489C66.4676 33.9489 66.3865 34.0568 66.3865 34.2209V34.3057C66.3865 34.4695 66.4676 34.5778 66.6266 34.5778C66.7857 34.5778 66.8679 34.4695 66.8679 34.3057V34.2209C66.8679 34.0568 66.7857 33.9489 66.6266 33.9489ZM66.7727 34.3057C66.7727 34.4205 66.7274 34.4919 66.6266 34.4919C66.525 34.4919 66.4818 34.4194 66.4818 34.3057V34.2209C66.4818 34.106 66.5261 34.0346 66.6266 34.0346C66.7284 34.0346 66.7727 34.1071 66.7727 34.2209V34.3057ZM67.2596 34.4986H67.1991C67.1558 34.4986 67.1407 34.4896 67.1407 34.4284V34.0391H67.2574C67.2693 34.0391 67.279 34.0291 67.279 34.0169V33.9788C67.279 33.9666 67.2693 33.9566 67.2574 33.9566H67.1407V33.8351C67.1407 33.8239 67.133 33.8162 67.1244 33.8162H67.1212L67.0649 33.825C67.0531 33.8272 67.0454 33.8361 67.0454 33.8473V33.9566H66.9404C66.9286 33.9566 66.92 33.9644 66.92 33.9767V34.0068C66.92 34.019 66.9286 34.0257 66.9404 34.0269L67.0454 34.0391V34.4284C67.0454 34.551 67.093 34.5778 67.1926 34.5778C67.2131 34.5778 67.2412 34.5754 67.2628 34.5721C67.2769 34.5699 67.2824 34.5632 67.2824 34.5532V34.5142C67.2824 34.5031 67.2747 34.4986 67.2596 34.4986ZM67.6383 34.2477L67.5312 34.1818C67.4815 34.1517 67.4566 34.1306 67.4566 34.0971C67.4566 34.0403 67.4966 34.0324 67.5572 34.0324C67.6178 34.0324 67.687 34.038 67.7249 34.0413H67.7281C67.7389 34.0413 67.7465 34.0357 67.7465 34.0224V33.9855C67.7465 33.9733 67.7399 33.9656 67.7259 33.9633C67.6752 33.9543 67.6178 33.9489 67.5572 33.9489C67.4458 33.9489 67.3613 33.9812 67.3613 34.0971C67.3613 34.1673 67.4057 34.2154 67.4718 34.2566L67.581 34.3235C67.6427 34.3613 67.662 34.3826 67.662 34.4161C67.662 34.4762 67.6254 34.4952 67.555 34.4952C67.516 34.4952 67.437 34.4896 67.3851 34.4829H67.3808C67.37 34.4829 67.3613 34.4896 67.3613 34.4997V34.5388C67.3613 34.551 67.37 34.5576 67.3841 34.561C67.437 34.5745 67.5149 34.5778 67.555 34.5778C67.6761 34.5778 67.7573 34.5299 67.7573 34.4161C67.7573 34.3502 67.7281 34.3024 67.6383 34.2477ZM68.2843 33.7314H68.2292C68.2173 33.7314 68.2086 33.7414 68.2086 33.7525V33.9599C68.1665 33.9522 68.1156 33.9489 68.0821 33.9489C67.9242 33.9489 67.8463 34.0468 67.8463 34.2219V34.3024C67.8463 34.4695 67.9209 34.5778 68.0821 34.5778C68.1481 34.5778 68.2141 34.5721 68.2811 34.5588C68.3006 34.5555 68.3039 34.5476 68.3039 34.533V33.7525C68.3039 33.7402 68.2952 33.7314 68.2843 33.7314ZM68.2086 34.4852C68.1719 34.4885 68.1188 34.4919 68.0821 34.4919C67.9751 34.4919 67.9415 34.4238 67.9415 34.3024V34.2219C67.9415 34.1027 67.976 34.0346 68.0821 34.0346C68.1168 34.0346 68.1729 34.0357 68.2086 34.0424V34.4852ZM68.6406 33.9489C68.567 33.9489 68.5172 33.9556 68.4728 33.9633C68.4578 33.9656 68.4501 33.9723 68.4501 33.9845V34.0236C68.4501 34.038 68.4598 34.0413 68.4696 34.0413H68.475C68.5182 34.0369 68.5701 34.0324 68.6406 34.0324C68.7249 34.0324 68.7563 34.0648 68.7563 34.1584V34.203H68.6762C68.4837 34.203 68.4155 34.2633 68.4155 34.3838V34.397C68.4155 34.5364 68.4999 34.5778 68.5917 34.5778C68.6524 34.5778 68.7065 34.5543 68.7584 34.5232V34.5476C68.7584 34.5599 68.7682 34.5699 68.78 34.5699H68.8299C68.8417 34.5699 68.8515 34.5599 68.8515 34.5476V34.1584C68.8515 34.0269 68.7908 33.9489 68.6406 33.9489ZM68.7563 34.4528C68.7044 34.4818 68.6599 34.4974 68.6102 34.4974C68.5475 34.4974 68.5107 34.4762 68.5107 34.396V34.3826C68.5107 34.3034 68.5453 34.2734 68.6762 34.2734H68.7563V34.4528ZM69.5315 33.9476C69.4752 33.9476 69.4114 33.9644 69.3519 33.9934C69.3248 33.961 69.2903 33.9476 69.2437 33.9476C69.1842 33.9476 69.1291 33.9723 69.0858 34.0001V33.9788C69.0858 33.9666 69.0771 33.9566 69.0653 33.9566H69.0111C68.9992 33.9566 68.9906 33.9666 68.9906 33.9788V34.5476C68.9906 34.5599 68.9982 34.5699 69.0089 34.5699H69.0663C69.0782 34.5699 69.0858 34.5588 69.0858 34.5476V34.077C69.1312 34.0535 69.1788 34.0336 69.2177 34.0336C69.274 34.0336 69.3011 34.0535 69.3011 34.1505V34.5476C69.3011 34.5599 69.3087 34.5699 69.3194 34.5699H69.3768C69.3887 34.5699 69.3963 34.5588 69.3963 34.5476V34.1505C69.3963 34.1172 69.3929 34.0883 69.3865 34.0636C69.4286 34.0468 69.4741 34.0336 69.513 34.0336C69.5694 34.0336 69.6115 34.0593 69.6115 34.1529V34.5476C69.6115 34.5599 69.6212 34.5699 69.6331 34.5699H69.685C69.697 34.5699 69.7067 34.5599 69.7067 34.5476V34.1529C69.7067 33.9979 69.6288 33.9476 69.5315 33.9476Z" fill="white"/>
<path d="M59.7676 27.1554H60.0479C60.0789 27.1554 60.1045 27.13 60.1045 27.0988V26.2326H60.9084V27.0988C60.9084 27.13 60.9338 27.1554 60.965 27.1554H61.2453C61.2764 27.1554 61.3019 27.13 61.3019 27.0988V25.106C61.3019 25.0747 61.2764 25.0522 61.2453 25.0522H60.965C60.9338 25.0522 60.9084 25.0747 60.9084 25.106V25.8873H60.1045V25.106C60.1045 25.0747 60.0789 25.0522 60.0479 25.0522H59.7676C59.7364 25.0522 59.7109 25.0747 59.7109 25.106V27.0988C59.7109 27.13 59.7364 27.1554 59.7676 27.1554ZM62.1284 27.178C62.2643 27.178 62.3974 27.1328 62.5276 27.0536V27.0988C62.5276 27.13 62.5531 27.1554 62.5842 27.1554H62.8248C62.856 27.1554 62.8814 27.13 62.8814 27.0988V26.0797C62.8814 25.7174 62.6606 25.539 62.2587 25.539C62.0633 25.539 61.8992 25.5616 61.786 25.5844C61.7491 25.5928 61.7322 25.6126 61.7322 25.6437V25.825C61.7322 25.8645 61.7548 25.873 61.7831 25.873H61.7973C61.8907 25.8617 62.0775 25.8505 62.2587 25.8505C62.4257 25.8505 62.5078 25.8958 62.5078 26.0797V26.2043H62.3295C61.8369 26.2043 61.6387 26.3713 61.6387 26.6941V26.7053C61.6387 27.0875 61.8936 27.178 62.1284 27.178ZM62.0153 26.6941C62.0153 26.5355 62.0718 26.4534 62.3295 26.4534H62.5078V26.8015C62.4257 26.8469 62.3209 26.8808 62.2191 26.8808C62.0775 26.8808 62.0153 26.844 62.0153 26.7053V26.6941ZM63.4306 26.3543L63.8184 26.5921C63.909 26.6488 63.943 26.6826 63.943 26.7364C63.943 26.8129 63.9175 26.8723 63.742 26.8723C63.6571 26.8723 63.4022 26.8582 63.2664 26.8412H63.2551C63.2269 26.8412 63.207 26.8639 63.207 26.8865V27.0564C63.207 27.0903 63.2269 27.1129 63.2608 27.1215C63.4193 27.164 63.6571 27.178 63.7675 27.178C64.1383 27.178 64.3223 26.9828 64.3223 26.7364C64.3223 26.5921 64.2884 26.4506 64.0506 26.3062L63.6797 26.0797C63.609 26.0372 63.5665 26.0089 63.5665 25.9637C63.5665 25.8759 63.6259 25.8447 63.7618 25.8447C63.9232 25.8447 64.1496 25.8675 64.2289 25.8788H64.2402C64.2685 25.8788 64.2855 25.859 64.2855 25.825V25.6608C64.2855 25.6268 64.2685 25.6041 64.2346 25.5957C64.0902 25.5645 63.96 25.539 63.7307 25.539C63.3712 25.539 63.1928 25.6805 63.1928 25.9637C63.1928 26.1279 63.2918 26.2693 63.4306 26.3543ZM65.4348 26.3062L65.064 26.0797C64.9932 26.0372 64.9508 26.0089 64.9508 25.9637C64.9508 25.8759 65.0102 25.8447 65.1461 25.8447C65.3074 25.8447 65.5339 25.8675 65.6132 25.8788H65.6245C65.6528 25.8788 65.6698 25.859 65.6698 25.825V25.6608C65.6698 25.6268 65.6528 25.6041 65.6188 25.5957C65.4745 25.5645 65.3442 25.539 65.1149 25.539C64.7554 25.539 64.5771 25.6805 64.5771 25.9637C64.5771 26.1279 64.6762 26.2693 64.8149 26.3543L65.2027 26.5921C65.2933 26.6488 65.3273 26.6826 65.3273 26.7364C65.3273 26.8129 65.3018 26.8723 65.1263 26.8723C65.0413 26.8723 64.7866 26.8582 64.6507 26.8412H64.6394C64.6111 26.8412 64.5912 26.8639 64.5912 26.8865V27.0564C64.5912 27.0903 64.6111 27.1129 64.645 27.1215C64.8036 27.164 65.0413 27.178 65.1518 27.178C65.5226 27.178 65.7066 26.9828 65.7066 26.7364C65.7066 26.5921 65.6726 26.4506 65.4348 26.3062ZM66.6464 27.178C67.0909 27.178 67.323 26.8781 67.323 26.4732V26.2439C67.323 25.8391 67.0909 25.539 66.6464 25.539C66.202 25.539 65.9699 25.8391 65.9699 26.2439V26.4732C65.9699 26.8781 66.202 27.178 66.6464 27.178ZM66.3435 26.2439C66.3435 26.0117 66.4482 25.8617 66.6464 25.8617C66.8446 25.8617 66.9493 26.0117 66.9493 26.2439V26.4732C66.9493 26.7053 66.8446 26.8553 66.6464 26.8553C66.4482 26.8553 66.3435 26.7053 66.3435 26.4732V26.2439ZM61.1717 28.4539V28.4284C61.1717 27.9273 60.7924 27.7745 60.3564 27.7745C60.1497 27.7745 59.9488 27.7887 59.8016 27.8114C59.745 27.8198 59.7109 27.8397 59.7109 27.8963V29.8438C59.7109 29.875 59.7364 29.9004 59.7676 29.9004H60.0507C60.0818 29.9004 60.1045 29.875 60.1045 29.8438V29.1049C60.1696 29.1078 60.2828 29.1163 60.3564 29.1163C60.7924 29.1163 61.1717 28.955 61.1717 28.4538V28.4539ZM60.7811 28.4539C60.7811 28.6804 60.6621 28.7937 60.3564 28.7937C60.3082 28.7937 60.1497 28.788 60.1045 28.7851V28.1114C60.1555 28.1058 60.2969 28.1 60.3564 28.1C60.6394 28.1 60.7811 28.1907 60.7811 28.4284V28.4539ZM61.5057 29.9004H61.7689C61.8002 29.9004 61.8227 29.8721 61.8227 29.8409V27.8028C61.8227 27.7717 61.8002 27.7461 61.7689 27.7461H61.5057C61.4745 27.7461 61.4491 27.7717 61.4491 27.8028V29.8409C61.4491 29.8721 61.4745 29.9004 61.5057 29.9004ZM63.0145 29.7986V29.8438C63.0145 29.8749 63.04 29.9004 63.0711 29.9004H63.3117C63.3429 29.9004 63.3683 29.8749 63.3683 29.8438V28.8248C63.3683 28.4624 63.1475 28.284 62.7456 28.284C62.5502 28.284 62.3861 28.3067 62.2728 28.3294C62.236 28.3378 62.2191 28.3577 62.2191 28.3888V28.57C62.2191 28.6096 62.2417 28.6181 62.27 28.6181H62.2841C62.3776 28.6068 62.5644 28.5955 62.7456 28.5955C62.9126 28.5955 62.9947 28.6407 62.9947 28.8248V28.9493H62.8163C62.3238 28.9493 62.1256 29.1164 62.1256 29.4391V29.4504C62.1256 29.8326 62.3804 29.9231 62.6153 29.9231C62.7512 29.9231 62.8842 29.8778 63.0145 29.7986V29.7986ZM62.5021 29.4504V29.439C62.5021 29.2805 62.5587 29.1983 62.8163 29.1983H62.9947V29.5465C62.9126 29.5919 62.8078 29.6258 62.7059 29.6258C62.5644 29.6258 62.5021 29.589 62.5021 29.4504ZM63.8608 29.473C63.8608 29.8523 63.9911 29.923 64.3109 29.923C64.3733 29.923 64.4355 29.9147 64.5034 29.9033C64.5402 29.8976 64.5572 29.8807 64.5572 29.8523V29.674C64.5572 29.6457 64.5346 29.6315 64.4978 29.6315H64.3477C64.2458 29.6315 64.2374 29.6146 64.2374 29.473V28.5841H64.4107C64.4419 28.5841 64.4674 28.5586 64.4674 28.5276V28.3605C64.4674 28.3294 64.4419 28.3039 64.4107 28.3039H64.2374V28.0122C64.2374 27.9839 64.2175 27.9699 64.1921 27.9699H64.1808L63.9174 28.0152C63.8863 28.0207 63.8608 28.0406 63.8608 28.0717V28.3039H63.5948C63.5636 28.3039 63.5381 28.3294 63.5381 28.3605V28.4879C63.5381 28.519 63.5636 28.5388 63.5948 28.5445L63.8608 28.5841V29.473ZM65.5452 29.6315H65.3952C65.2932 29.6315 65.2848 29.6146 65.2848 29.473V28.5841H65.5396C65.5707 28.5841 65.5962 28.5586 65.5962 28.5276V28.3605C65.5962 28.3294 65.5707 28.3039 65.5396 28.3039H65.2848V28.0122C65.2848 27.9839 65.265 27.9699 65.2394 27.9699H65.2282L64.9649 28.0152C64.9338 28.0207 64.9083 28.0406 64.9083 28.0717V28.3039H64.7241C64.693 28.3039 64.6675 28.3294 64.6675 28.3605V28.4879C64.6675 28.519 64.693 28.5388 64.7241 28.5445L64.9083 28.5841V29.473C64.9083 29.8523 65.0385 29.923 65.3583 29.923C65.4207 29.923 65.483 29.9147 65.5508 29.9033C65.5877 29.8976 65.6046 29.8807 65.6046 29.8523V29.674C65.6046 29.6457 65.582 29.6315 65.5452 29.6315ZM67.2182 29.8409V28.9181C67.2182 28.5586 67.1361 28.284 66.7285 28.284C66.5417 28.284 66.4341 28.3151 66.2699 28.4199V28.3605C66.2699 28.3294 66.2444 28.3039 66.2133 28.3039H65.967C65.9359 28.3039 65.9104 28.3294 65.9104 28.3605V29.8409C65.9104 29.8721 65.9359 29.9004 65.967 29.9004H66.2275C66.2585 29.9004 66.284 29.8721 66.284 29.8409V28.703C66.403 28.6407 66.5077 28.6011 66.604 28.6011C66.8219 28.6011 66.8445 28.6718 66.8445 28.9181V29.8409C66.8445 29.8721 66.8701 29.9004 66.9012 29.9004H67.1616C67.1928 29.9004 67.2182 29.8721 67.2182 29.8409ZM68.8147 29.2324C68.8544 29.2324 68.8713 29.2069 68.8713 29.1615V29.003C68.8713 28.5813 68.6336 28.284 68.1977 28.284C67.7646 28.284 67.5183 28.5614 67.5183 29.003V29.2125C67.5183 29.7702 67.9202 29.923 68.2033 29.923C68.458 29.923 68.5684 29.909 68.7525 29.8749C68.8034 29.8664 68.8119 29.8466 68.8119 29.8014V29.6146C68.8119 29.5862 68.7893 29.572 68.7609 29.572H68.7525C68.6336 29.5834 68.4383 29.6004 68.2316 29.6004C67.9598 29.6004 67.8919 29.405 67.8919 29.2408V29.2324H68.8147ZM67.8948 28.955C67.8948 28.7313 68.0221 28.6068 68.1977 28.6068C68.3732 28.6068 68.4949 28.7342 68.4949 28.955V28.9663H67.8948V28.955ZM69.9358 28.284C69.8225 28.284 69.6696 28.3124 69.5309 28.4199V28.3605C69.5309 28.3294 69.5054 28.3039 69.4744 28.3039H69.2281C69.1969 28.3039 69.1714 28.3294 69.1714 28.3605V29.8409C69.1714 29.8721 69.1969 29.9004 69.2281 29.9004H69.4885C69.5196 29.9004 69.5451 29.8721 69.5451 29.8409V28.703C69.6641 28.6407 69.7829 28.6011 69.9358 28.6011C69.9669 28.6011 69.9924 28.5757 69.9924 28.5445V28.3405C69.9924 28.3096 69.9669 28.284 69.9358 28.284ZM60.0537 30.5421H59.7707C59.7392 30.5421 59.7136 30.5648 59.7136 30.5959V32.5888C59.7136 32.6199 59.7392 32.6454 59.7707 32.6454H60.0537C60.0852 32.6454 60.1109 32.6199 60.1109 32.5888V30.5959C60.1109 30.5648 60.0852 30.5421 60.0537 30.5421ZM61.4232 31.0291C61.2345 31.0291 61.1259 31.0602 60.9601 31.1649V31.1055C60.9601 31.0744 60.9344 31.0489 60.9029 31.0489H60.6541C60.6226 31.0489 60.597 31.0744 60.597 31.1055V32.5859C60.597 32.6171 60.6226 32.6454 60.6541 32.6454H60.9172C60.9487 32.6454 60.9743 32.6171 60.9743 32.5859V31.448C61.0944 31.3857 61.2003 31.3462 61.2974 31.3462C61.5176 31.3462 61.5405 31.4169 61.5405 31.6631V32.5859C61.5405 32.6171 61.5662 32.6454 61.5976 32.6454H61.8607C61.8921 32.6454 61.9179 32.6171 61.9179 32.5859V31.6631C61.9179 31.3036 61.835 31.0291 61.4232 31.0291V31.0291ZM63.1845 31.7962L62.8099 31.5697C62.7384 31.5272 62.6955 31.499 62.6955 31.4537C62.6955 31.3659 62.7556 31.3348 62.8929 31.3348C63.0558 31.3348 63.2845 31.3574 63.3646 31.3688H63.3761C63.4046 31.3688 63.4218 31.349 63.4218 31.315V31.1508C63.4218 31.1168 63.4046 31.0942 63.3703 31.0856C63.2244 31.0545 63.0929 31.0291 62.8614 31.0291C62.4983 31.0291 62.3181 31.1706 62.3181 31.4537C62.3181 31.6179 62.4182 31.7594 62.5583 31.8443L62.95 32.0821C63.0415 32.1388 63.0758 32.1726 63.0758 32.2265C63.0758 32.303 63.05 32.3624 62.8728 32.3624C62.7871 32.3624 62.5297 32.3482 62.3925 32.3313H62.381C62.3524 32.3313 62.3324 32.3538 62.3324 32.3765V32.5463C62.3324 32.5804 62.3524 32.603 62.3867 32.6114C62.5469 32.6539 62.7871 32.668 62.8986 32.668C63.2731 32.668 63.4589 32.4727 63.4589 32.2265C63.4589 32.0821 63.4246 31.9405 63.1845 31.7962ZM64.6712 32.3765H64.5197C64.4168 32.3765 64.4081 32.3596 64.4081 32.2179V31.3291H64.6655C64.6969 31.3291 64.7227 31.3036 64.7227 31.2725V31.1055C64.7227 31.0744 64.6969 31.0489 64.6655 31.0489H64.4081V30.7573C64.4081 30.729 64.3882 30.7149 64.3624 30.7149H64.351L64.0851 30.7601C64.0536 30.7658 64.0279 30.7856 64.0279 30.8167V31.0489H63.7592C63.7278 31.0489 63.7019 31.0744 63.7019 31.1055V31.2329C63.7019 31.2641 63.7278 31.2838 63.7592 31.2895L64.0279 31.3291V32.2179C64.0279 32.5973 64.1594 32.668 64.4825 32.668C64.5454 32.668 64.6083 32.6597 64.6769 32.6482C64.7141 32.6426 64.7312 32.6256 64.7312 32.5973V32.4189C64.7312 32.3905 64.7083 32.3765 64.6712 32.3765ZM65.4032 31.0489H65.1401C65.1086 31.0489 65.0829 31.0744 65.0829 31.1054V32.5859C65.0829 32.6171 65.1086 32.6454 65.1401 32.6454H65.4032C65.4346 32.6454 65.4603 32.6171 65.4603 32.5859V31.1054C65.4603 31.0744 65.4346 31.0489 65.4032 31.0489ZM65.4117 30.4742H65.1343C65.1029 30.4742 65.0743 30.4997 65.0743 30.5309V30.7799C65.0743 30.8111 65.1029 30.8365 65.1343 30.8365H65.4117C65.4432 30.8365 65.4688 30.8111 65.4688 30.7799V30.5309C65.4688 30.4997 65.4432 30.4742 65.4117 30.4742ZM66.7669 32.3765H66.6154C66.5124 32.3765 66.5038 32.3596 66.5038 32.2179V31.3291H66.7612C66.7926 31.3291 66.8184 31.3036 66.8184 31.2725V31.1055C66.8184 31.0744 66.7926 31.0489 66.7612 31.0489H66.5038V30.7572C66.5038 30.729 66.4838 30.7148 66.4581 30.7148H66.4466L66.1807 30.7601C66.1493 30.7658 66.1236 30.7855 66.1236 30.8167V31.0489H65.8548C65.8233 31.0489 65.7976 31.0744 65.7976 31.1055V31.2329C65.7976 31.2641 65.8233 31.2838 65.8548 31.2895L66.1236 31.3291V32.2179C66.1236 32.5973 66.2551 32.668 66.5781 32.668C66.6411 32.668 66.704 32.6596 66.7727 32.6482C66.8097 32.6426 66.8269 32.6256 66.8269 32.5973V32.4188C66.8269 32.3905 66.8041 32.3765 66.7669 32.3765ZM68.4337 31.0489H68.1707C68.1392 31.0489 68.1135 31.0771 68.1135 31.1083V32.2406C68.0334 32.283 67.8962 32.3538 67.7905 32.3538C67.7018 32.3538 67.6532 32.3368 67.6131 32.303C67.5589 32.2547 67.5474 32.1726 67.5474 32.0312V31.1083C67.5474 31.0771 67.5217 31.0489 67.4903 31.0489H67.2272C67.1957 31.0489 67.1699 31.0771 67.1699 31.1083V32.0312C67.1699 32.2661 67.2072 32.4417 67.3129 32.5463C67.3959 32.6285 67.5217 32.6652 67.6647 32.6652C67.8476 32.6652 67.9648 32.62 68.1135 32.5238V32.5888C68.1135 32.62 68.1392 32.6454 68.1707 32.6454H68.4337C68.4652 32.6454 68.4909 32.62 68.4909 32.5888V31.1083C68.4909 31.0771 68.4652 31.0489 68.4337 31.0489ZM69.789 32.3765H69.6374C69.5344 32.3765 69.5259 32.3596 69.5259 32.2179V31.3291H69.7832C69.8147 31.3291 69.8403 31.3036 69.8403 31.2725V31.1055C69.8403 31.0744 69.8147 31.0489 69.7832 31.0489H69.5259V30.7572C69.5259 30.729 69.5059 30.7148 69.4801 30.7148H69.4687L69.2029 30.7601C69.1714 30.7658 69.1457 30.7855 69.1457 30.8167V31.0489H68.8769C68.8454 31.0489 68.8197 31.0744 68.8197 31.1055V31.2329C68.8197 31.2641 68.8454 31.2838 68.8769 31.2895L69.1457 31.3291V32.2179C69.1457 32.5973 69.2772 32.668 69.6003 32.668C69.6631 32.668 69.726 32.6596 69.7946 32.6482C69.8318 32.6426 69.849 32.6256 69.849 32.5973V32.4188C69.849 32.3905 69.8261 32.3765 69.789 32.3765Z" fill="white"/>
<path d="M48.9961 32.6406H57.5066V24.13H48.9961V32.6406Z" fill="white" fill-opacity="0.8"/>
<path d="M51.4258 30.207H58.7206V22.9122H51.4258V30.207Z" fill="white" fill-opacity="0.8"/>
<path d="M53.9015 25.0725H53.6213C53.5901 25.0725 53.5646 25.0951 53.5646 25.1263V25.9077H52.7607V25.1263C52.7607 25.0951 52.7352 25.0725 52.7041 25.0725H52.4238C52.3927 25.0725 52.3672 25.0951 52.3672 25.1263V27.1192C52.3672 27.1503 52.3927 27.1758 52.4238 27.1758H52.7041C52.7352 27.1758 52.7607 27.1503 52.7607 27.1192V26.2529H53.5646V27.1192C53.5646 27.1503 53.5901 27.1758 53.6213 27.1758H53.9015C53.9326 27.1758 53.9581 27.1503 53.9581 27.1192V25.1263C53.9581 25.0951 53.9326 25.0725 53.9015 25.0725ZM55.033 25.0498C54.8263 25.0498 54.6253 25.064 54.478 25.0866C54.4214 25.0951 54.3875 25.115 54.3875 25.1716V27.1192C54.3875 27.1503 54.413 27.1758 54.4441 27.1758H54.7272C54.7583 27.1758 54.781 27.1503 54.781 27.1192V26.3803C54.8461 26.3832 54.9593 26.3916 55.033 26.3916C55.4689 26.3916 55.8482 26.2303 55.8482 25.7292V25.7038C55.8482 25.2027 55.4689 25.0498 55.033 25.0498ZM55.4575 25.7292C55.4575 25.9557 55.3387 26.069 55.033 26.069C54.9848 26.069 54.8263 26.0633 54.781 26.0604V25.3867C54.8319 25.381 54.9735 25.3754 55.033 25.3754C55.316 25.3754 55.4575 25.466 55.4575 25.7038V25.7292ZM56.5129 25.0725H56.2326C56.2014 25.0725 56.1759 25.0951 56.1759 25.1263V27.1192C56.1759 27.1503 56.2014 27.1758 56.2326 27.1758H56.5129C56.544 27.1758 56.5695 27.1503 56.5695 27.1192V25.1263C56.5695 25.0951 56.544 25.0725 56.5129 25.0725Z" fill="#0C0E1B"/>
<path d="M1.24594 27.4258H0.277344V30.2213H1.24594C1.54518 30.2213 1.78536 30.1347 1.96254 29.9615C2.13972 29.7843 2.22635 29.5126 2.22635 29.1425V28.5046C2.22635 28.1345 2.13972 27.8628 1.96254 27.6856C1.78536 27.5124 1.54518 27.4258 1.24594 27.4258ZM1.24988 29.8827H0.647457V27.7644H1.24988C1.44674 27.7644 1.59637 27.8235 1.69874 27.9416C1.80505 28.0597 1.85623 28.2487 1.85623 28.5164V29.1582C1.85623 29.6465 1.65936 29.8827 1.24988 29.8827Z" fill="white"/>
<path d="M2.98663 29.3551V29.2763H4.23478V29.0007C4.23478 28.7054 4.1639 28.481 4.01822 28.3353C3.87254 28.1936 3.67961 28.1188 3.43943 28.1188C3.19925 28.1188 3.00631 28.1896 2.86063 28.3353C2.71495 28.481 2.64014 28.7054 2.64014 29.0007V29.3472C2.64014 29.6504 2.71495 29.8788 2.86063 30.0245C3.00631 30.1701 3.20318 30.2449 3.4473 30.2449C3.68354 30.2449 3.87254 30.1859 4.01035 30.0678C4.14815 29.9457 4.21903 29.7843 4.21903 29.5874V29.5283H3.88041V29.5795C3.88041 29.6898 3.84498 29.7725 3.7741 29.8315C3.70323 29.8945 3.60086 29.926 3.46699 29.926C3.31343 29.926 3.19531 29.8827 3.11262 29.8C3.02994 29.7173 2.98663 29.5717 2.98663 29.3551ZM3.10869 28.5637C3.19137 28.481 3.30162 28.4416 3.43943 28.4416C3.58117 28.4416 3.69142 28.481 3.77017 28.5558C3.84891 28.6306 3.88829 28.7684 3.88829 28.9653V28.9968H2.98663V28.9929C2.98663 28.7842 3.026 28.6424 3.10869 28.5637Z" fill="white"/>
<path d="M4.78573 30.0796C4.92354 30.1898 5.10466 30.2449 5.33303 30.2449C5.56927 30.2449 5.75826 30.1898 5.90395 30.0796C6.04963 29.9693 6.12444 29.8118 6.12444 29.611C6.12444 29.4417 6.07325 29.3118 5.97088 29.2212C5.87245 29.1346 5.71889 29.0716 5.51808 29.0322L5.25822 28.985C5.1401 28.9653 5.06135 28.9338 5.0141 28.8905C4.96685 28.8511 4.94323 28.7921 4.94323 28.7172C4.94323 28.6227 4.97473 28.5519 5.0456 28.5007C5.11253 28.4456 5.21491 28.418 5.34484 28.418C5.47871 28.418 5.58108 28.4456 5.65589 28.5007C5.72677 28.5558 5.7622 28.6227 5.7622 28.7172V28.7684H6.10082V28.7054C6.10082 28.5322 6.02994 28.3865 5.8882 28.2802C5.75039 28.1699 5.56533 28.1188 5.33697 28.1188C5.12435 28.1188 4.94717 28.1739 4.81329 28.2841C4.67549 28.3944 4.60461 28.544 4.60461 28.7291C4.60461 28.8944 4.65186 29.0244 4.7503 29.111C4.84873 29.2015 4.99835 29.2606 5.19522 29.296L5.44327 29.3393C5.56927 29.363 5.65983 29.3945 5.71102 29.4378C5.7622 29.4772 5.78583 29.5362 5.78583 29.6268C5.78583 29.7291 5.75039 29.8 5.67558 29.8551C5.59683 29.9103 5.48659 29.9378 5.34484 29.9378C5.21097 29.9378 5.10072 29.9063 5.02591 29.8512C4.94717 29.7921 4.91173 29.7173 4.91173 29.6189V29.5677H4.57311V29.6228C4.57311 29.8118 4.64399 29.9654 4.78573 30.0796Z" fill="white"/>
<path d="M6.88795 27.4652H6.52571V27.8983H6.88795V27.4652ZM6.88008 28.1463H6.53359V30.2213H6.88008V28.1463Z" fill="white"/>
<path d="M8.57463 28.1306V28.3235C8.45257 28.1818 8.2872 28.1069 8.07852 28.1069C7.86984 28.1069 7.69659 28.1778 7.56272 28.3156C7.42885 28.4534 7.36192 28.67 7.36192 28.9614V29.237C7.36192 29.5323 7.42885 29.7488 7.56272 29.8866C7.69659 30.0284 7.8659 30.0993 8.07458 30.0993C8.20451 30.0993 8.32264 30.0717 8.41713 30.0205C8.47619 29.9851 8.53132 29.9457 8.57463 29.8945V30.0481C8.57463 30.3749 8.43682 30.5324 8.14545 30.5324C8.02733 30.5324 7.93284 30.5087 7.86196 30.4576C7.78321 30.4024 7.74384 30.3316 7.7399 30.241H7.39341C7.40129 30.43 7.4761 30.5836 7.61785 30.6938C7.75172 30.7922 7.92496 30.8434 8.14545 30.8434C8.38957 30.8434 8.5825 30.7686 8.72031 30.6229C8.85812 30.4772 8.92505 30.2764 8.92505 30.0245V28.1306H8.57463ZM8.45651 29.6268C8.3817 29.7252 8.26751 29.7764 8.11395 29.7764C7.84228 29.7764 7.71234 29.5953 7.71234 29.2212V28.981C7.71234 28.607 7.85015 28.4259 8.1297 28.4259C8.27932 28.4259 8.38563 28.4771 8.46044 28.5755C8.53525 28.6818 8.57463 28.8236 8.57463 29.0007V29.2173C8.57463 29.3866 8.53525 29.5244 8.45651 29.6268Z" fill="white"/>
<path d="M9.77845 28.1463H9.4359V30.2213H9.78239V28.9102C9.78239 28.7566 9.82176 28.6424 9.90051 28.5597C9.97532 28.481 10.0816 28.4416 10.2116 28.4416C10.3454 28.4416 10.4478 28.481 10.5226 28.5597C10.5974 28.6385 10.6329 28.7527 10.6329 28.9102V30.2213H10.9794V28.8708C10.9794 28.6385 10.9203 28.4534 10.7982 28.3235C10.6762 28.1896 10.5029 28.1227 10.2785 28.1227C10.1604 28.1227 10.0462 28.1463 9.94776 28.1936C9.88476 28.2251 9.8257 28.2644 9.77845 28.3156V28.1463Z" fill="white"/>
<path d="M11.7765 29.3551V29.2763H13.0247V29.0007C13.0247 28.7054 12.9538 28.481 12.8081 28.3353C12.6624 28.1936 12.4695 28.1188 12.2293 28.1188C11.9891 28.1188 11.7962 28.1896 11.6505 28.3353C11.5048 28.481 11.43 28.7054 11.43 29.0007V29.3472C11.43 29.6504 11.5048 29.8788 11.6505 30.0245C11.7962 30.1701 11.9931 30.2449 12.2372 30.2449C12.4734 30.2449 12.6624 30.1859 12.8002 30.0678C12.938 29.9457 13.0089 29.7843 13.0089 29.5874V29.5283H12.6703V29.5795C12.6703 29.6898 12.6349 29.7725 12.564 29.8315C12.4931 29.8945 12.3907 29.926 12.2569 29.926C12.1033 29.926 11.9852 29.8827 11.9025 29.8C11.8198 29.7173 11.7765 29.5717 11.7765 29.3551ZM11.8986 28.5637C11.9813 28.481 12.0915 28.4416 12.2293 28.4416C12.3711 28.4416 12.4813 28.481 12.5601 28.5558C12.6388 28.6306 12.6782 28.7684 12.6782 28.9653V28.9968H11.7765V28.9929C11.7765 28.7842 11.8159 28.6424 11.8986 28.5637Z" fill="white"/>
<path d="M14.623 27.4258V28.3353C14.5009 28.1936 14.3355 28.1188 14.1269 28.1188C13.9182 28.1188 13.7449 28.1896 13.6111 28.3314C13.4772 28.4692 13.4102 28.6857 13.4102 28.9771V29.3866C13.4102 29.678 13.4772 29.8945 13.6111 30.0323C13.7449 30.1741 13.9142 30.2449 14.1229 30.2449C14.2528 30.2449 14.371 30.2213 14.4655 30.1662C14.5245 30.1347 14.5796 30.0914 14.623 30.0441V30.2213H14.9734V27.4258H14.623ZM14.5048 29.7764C14.43 29.8748 14.3158 29.926 14.1623 29.926C13.8906 29.926 13.7607 29.7449 13.7607 29.3708V28.9929C13.7607 28.6188 13.8985 28.4416 14.178 28.4416C14.3277 28.4416 14.434 28.4928 14.5088 28.5912C14.5836 28.6976 14.623 28.8393 14.623 29.0165V29.3669C14.623 29.5362 14.5836 29.674 14.5048 29.7764Z" fill="white"/>
<path d="M17.5821 28.2999C17.4521 28.1778 17.2631 28.1188 17.019 28.1188C16.7946 28.1188 16.6174 28.1739 16.4875 28.2802C16.3536 28.3904 16.2867 28.5401 16.2867 28.7212V28.7802H16.6253V28.7291C16.6253 28.6346 16.6568 28.5597 16.7276 28.5046C16.7946 28.4495 16.8969 28.4219 17.0229 28.4219C17.1568 28.4219 17.2592 28.4534 17.3301 28.5204C17.4009 28.5873 17.4364 28.6857 17.4364 28.8196V29.0086H16.9363C16.7158 29.0086 16.5426 29.0637 16.4166 29.17C16.2906 29.2803 16.2276 29.4299 16.2276 29.6189C16.2276 29.8197 16.2906 29.9772 16.4127 30.0874C16.5386 30.1938 16.708 30.2449 16.9284 30.2449C17.0623 30.2449 17.1765 30.2253 17.271 30.1859C17.334 30.1583 17.3891 30.1189 17.4403 30.0717V30.2213H17.7829V28.8236C17.7829 28.5952 17.7159 28.418 17.5821 28.2999ZM17.3261 29.8394C17.2553 29.9142 17.1371 29.9496 16.9718 29.9496C16.7001 29.9496 16.5741 29.8433 16.5741 29.615C16.5741 29.3905 16.704 29.2842 16.9757 29.2842H17.4364V29.5047C17.4364 29.6583 17.4009 29.7685 17.3261 29.8394Z" fill="white"/>
<path d="M18.6375 28.1463H18.295V30.2213H18.6415V28.9102C18.6415 28.7566 18.6809 28.6424 18.7596 28.5597C18.8344 28.481 18.9407 28.4416 19.0707 28.4416C19.2045 28.4416 19.3069 28.481 19.3817 28.5597C19.4565 28.6385 19.492 28.7527 19.492 28.9102V30.2213H19.8384V28.8708C19.8384 28.6385 19.7794 28.4534 19.6573 28.3235C19.5353 28.1896 19.362 28.1227 19.1376 28.1227C19.0195 28.1227 18.9053 28.1463 18.8069 28.1936C18.7439 28.2251 18.6848 28.2644 18.6375 28.3156V28.1463Z" fill="white"/>
<path d="M21.5018 27.4258V28.3353C21.3798 28.1936 21.2144 28.1188 21.0057 28.1188C20.797 28.1188 20.6238 28.1896 20.4899 28.3314C20.3561 28.4692 20.2891 28.6857 20.2891 28.9771V29.3866C20.2891 29.678 20.3561 29.8945 20.4899 30.0323C20.6238 30.1741 20.7931 30.2449 21.0018 30.2449C21.1317 30.2449 21.2498 30.2213 21.3443 30.1662C21.4034 30.1347 21.4585 30.0914 21.5018 30.0441V30.2213H21.8523V27.4258H21.5018ZM21.3837 29.7764C21.3089 29.8748 21.1947 29.926 21.0412 29.926C20.7695 29.926 20.6395 29.7449 20.6395 29.3708V28.9929C20.6395 28.6188 20.7774 28.4416 21.0569 28.4416C21.2065 28.4416 21.3128 28.4928 21.3877 28.5912C21.4625 28.6976 21.5018 28.8393 21.5018 29.0165V29.3669C21.5018 29.5362 21.4625 29.674 21.3837 29.7764Z" fill="white"/>
<path d="M24.3664 27.4258V28.3353C24.2444 28.1936 24.079 28.1188 23.8703 28.1188C23.6616 28.1188 23.4884 28.1896 23.3545 28.3314C23.2207 28.4692 23.1537 28.6857 23.1537 28.9771V29.3866C23.1537 29.678 23.2207 29.8945 23.3545 30.0323C23.4884 30.1741 23.6577 30.2449 23.8664 30.2449C23.9963 30.2449 24.1144 30.2213 24.2089 30.1662C24.268 30.1347 24.3231 30.0914 24.3664 30.0441V30.2213H24.7169V27.4258H24.3664ZM24.2483 29.7764C24.1735 29.8748 24.0593 29.926 23.9058 29.926C23.6341 29.926 23.5041 29.7449 23.5041 29.3708V28.9929C23.5041 28.6188 23.642 28.4416 23.9215 28.4416C24.0711 28.4416 24.1774 28.4928 24.2522 28.5912C24.3271 28.6976 24.3664 28.8393 24.3664 29.0165V29.3669C24.3664 29.5362 24.3271 29.674 24.2483 29.7764Z" fill="white"/>
<path d="M25.5112 29.3551V29.2763H26.7593V29.0007C26.7593 28.7054 26.6885 28.481 26.5428 28.3353C26.3971 28.1936 26.2042 28.1188 25.964 28.1188C25.7238 28.1188 25.5309 28.1896 25.3852 28.3353C25.2395 28.481 25.1647 28.7054 25.1647 29.0007V29.3472C25.1647 29.6504 25.2395 29.8788 25.3852 30.0245C25.5309 30.1701 25.7277 30.2449 25.9719 30.2449C26.2081 30.2449 26.3971 30.1859 26.5349 30.0678C26.6727 29.9457 26.7436 29.7843 26.7436 29.5874V29.5283H26.405V29.5795C26.405 29.6898 26.3695 29.7725 26.2987 29.8315C26.2278 29.8945 26.1254 29.926 25.9916 29.926C25.838 29.926 25.7199 29.8827 25.6372 29.8C25.5545 29.7173 25.5112 29.5717 25.5112 29.3551ZM25.6333 28.5637C25.7159 28.481 25.8262 28.4416 25.964 28.4416C26.1057 28.4416 26.216 28.481 26.2947 28.5558C26.3735 28.6306 26.4129 28.7684 26.4129 28.9653V28.9968H25.5112V28.9929C25.5112 28.7842 25.5506 28.6424 25.6333 28.5637Z" fill="white"/>
<path d="M28.3104 28.1463L27.8182 29.6543L27.326 28.1463H26.952L27.6686 30.2213H27.9639L28.6805 28.1463H28.3104Z" fill="white"/>
<path d="M29.2217 29.3551V29.2763H30.4699V29.0007C30.4699 28.7054 30.399 28.481 30.2533 28.3353C30.1076 28.1936 29.9147 28.1188 29.6745 28.1188C29.4343 28.1188 29.2414 28.1896 29.0957 28.3353C28.95 28.481 28.8752 28.7054 28.8752 29.0007V29.3472C28.8752 29.6504 28.95 29.8788 29.0957 30.0245C29.2414 30.1701 29.4383 30.2449 29.6824 30.2449C29.9186 30.2449 30.1076 30.1859 30.2454 30.0678C30.3832 29.9457 30.4541 29.7843 30.4541 29.5874V29.5283H30.1155V29.5795C30.1155 29.6898 30.0801 29.7725 30.0092 29.8315C29.9383 29.8945 29.8359 29.926 29.7021 29.926C29.5485 29.926 29.4304 29.8827 29.3477 29.8C29.265 29.7173 29.2217 29.5717 29.2217 29.3551ZM29.3438 28.5637C29.4265 28.481 29.5367 28.4416 29.6745 28.4416C29.8163 28.4416 29.9265 28.481 30.0052 28.5558C30.084 28.6306 30.1234 28.7684 30.1234 28.9653V28.9968H29.2217V28.9929C29.2217 28.7842 29.2611 28.6424 29.3438 28.5637Z" fill="white"/>
<path d="M31.0563 30.0756C31.1468 30.1741 31.2807 30.2213 31.45 30.2213H31.6784V29.8985H31.4776C31.3988 29.8985 31.3476 29.8788 31.3161 29.8433C31.2807 29.804 31.2649 29.737 31.2649 29.6425V27.4258H30.9184V29.6583C30.9184 29.8394 30.9657 29.9772 31.0563 30.0756Z" fill="white"/>
<path d="M32.1526 30.0402C32.2982 30.178 32.4951 30.2449 32.7392 30.2449C32.9794 30.2449 33.1684 30.1741 33.3141 30.0363C33.4637 29.8985 33.5346 29.6819 33.5346 29.3866V28.9771C33.5346 28.6818 33.4637 28.4652 33.3141 28.3274C33.1684 28.1896 32.9794 28.1188 32.7392 28.1188C32.4951 28.1188 32.2982 28.1896 32.1526 28.3274C32.0069 28.4652 31.9321 28.6818 31.9321 28.9771V29.3866C31.9321 29.6819 32.0069 29.9024 32.1526 30.0402ZM33.066 29.804C32.9873 29.8866 32.877 29.926 32.7392 29.926C32.5936 29.926 32.4833 29.8866 32.4006 29.804C32.3179 29.7252 32.2786 29.5795 32.2786 29.3708V28.9929C32.2786 28.7842 32.3179 28.6424 32.4006 28.5637C32.4833 28.481 32.5936 28.4416 32.7392 28.4416C32.877 28.4416 32.9873 28.481 33.066 28.5637C33.1487 28.6424 33.1881 28.7842 33.1881 28.9929V29.3708C33.1881 29.5795 33.1487 29.7252 33.066 29.804Z" fill="white"/>
<path d="M35.3374 28.3314C35.2036 28.1936 35.0264 28.1227 34.8098 28.1227C34.6878 28.1227 34.5775 28.1503 34.483 28.2054C34.424 28.2408 34.3728 28.2841 34.3295 28.3353V28.1463H33.983V30.8198H34.3295V30.0441C34.4476 30.178 34.6169 30.2449 34.8295 30.2449C35.0382 30.2449 35.2075 30.1741 35.3414 30.0363C35.4753 29.8985 35.5422 29.6819 35.5422 29.3866V28.9771C35.5422 28.6857 35.4753 28.4692 35.3374 28.3314ZM35.1957 29.3708C35.1957 29.7449 35.0618 29.926 34.7901 29.926C34.6405 29.926 34.5263 29.8748 34.4476 29.7725C34.3688 29.6701 34.3295 29.5323 34.3295 29.3669V29.0165C34.3295 28.8393 34.3688 28.6976 34.4437 28.5912C34.5185 28.4928 34.6248 28.4416 34.7744 28.4416C35.0579 28.4416 35.1957 28.6227 35.1957 28.9968V29.3708Z" fill="white"/>
<path d="M36.2736 29.3551V29.2763H37.5218V29.0007C37.5218 28.7054 37.4509 28.481 37.3052 28.3353C37.1595 28.1936 36.9666 28.1188 36.7264 28.1188C36.4862 28.1188 36.2933 28.1896 36.1476 28.3353C36.0019 28.481 35.9271 28.7054 35.9271 29.0007V29.3472C35.9271 29.6504 36.0019 29.8788 36.1476 30.0245C36.2933 30.1701 36.4902 30.2449 36.7343 30.2449C36.9705 30.2449 37.1595 30.1859 37.2973 30.0678C37.4351 29.9457 37.506 29.7843 37.506 29.5874V29.5283H37.1674V29.5795C37.1674 29.6898 37.132 29.7725 37.0611 29.8315C36.9902 29.8945 36.8878 29.926 36.754 29.926C36.6004 29.926 36.4823 29.8827 36.3996 29.8C36.3169 29.7173 36.2736 29.5717 36.2736 29.3551ZM36.3957 28.5637C36.4784 28.481 36.5886 28.4416 36.7264 28.4416C36.8682 28.4416 36.9784 28.481 37.0572 28.5558C37.1359 28.6306 37.1753 28.7684 37.1753 28.9653V28.9968H36.2736V28.9929C36.2736 28.7842 36.313 28.6424 36.3957 28.5637Z" fill="white"/>
<path d="M39.1201 27.4258V28.3353C38.998 28.1936 38.8326 28.1188 38.624 28.1188C38.4153 28.1188 38.242 28.1896 38.1082 28.3314C37.9743 28.4692 37.9073 28.6857 37.9073 28.9771V29.3866C37.9073 29.678 37.9743 29.8945 38.1082 30.0323C38.242 30.1741 38.4113 30.2449 38.62 30.2449C38.7499 30.2449 38.8681 30.2213 38.9626 30.1662C39.0216 30.1347 39.0767 30.0914 39.1201 30.0441V30.2213H39.4705V27.4258H39.1201ZM39.0019 29.7764C38.9271 29.8748 38.8129 29.926 38.6594 29.926C38.3877 29.926 38.2578 29.7449 38.2578 29.3708V28.9929C38.2578 28.6188 38.3956 28.4416 38.6751 28.4416C38.8248 28.4416 38.9311 28.4928 39.0059 28.5912C39.0807 28.6976 39.1201 28.8393 39.1201 29.0165V29.3669C39.1201 29.5362 39.0807 29.674 39.0019 29.7764Z" fill="white"/>
<path d="M42.0792 28.2999C41.9492 28.1778 41.7602 28.1188 41.5161 28.1188C41.2917 28.1188 41.1145 28.1739 40.9846 28.2802C40.8507 28.3904 40.7838 28.5401 40.7838 28.7212V28.7802H41.1224V28.7291C41.1224 28.6346 41.1539 28.5597 41.2247 28.5046C41.2917 28.4495 41.3941 28.4219 41.52 28.4219C41.6539 28.4219 41.7563 28.4534 41.8272 28.5204C41.898 28.5873 41.9335 28.6857 41.9335 28.8196V29.0086H41.4334C41.2129 29.0086 41.0397 29.0637 40.9137 29.17C40.7877 29.2803 40.7247 29.4299 40.7247 29.6189C40.7247 29.8197 40.7877 29.9772 40.9098 30.0874C41.0357 30.1938 41.2051 30.2449 41.4255 30.2449C41.5594 30.2449 41.6736 30.2253 41.7681 30.1859C41.8311 30.1583 41.8862 30.1189 41.9374 30.0717V30.2213H42.28V28.8236C42.28 28.5952 42.213 28.418 42.0792 28.2999ZM41.8232 29.8394C41.7523 29.9142 41.6342 29.9496 41.4689 29.9496C41.1972 29.9496 41.0712 29.8433 41.0712 29.615C41.0712 29.3905 41.2011 29.2842 41.4728 29.2842H41.9335V29.5047C41.9335 29.6583 41.898 29.7685 41.8232 29.8394Z" fill="white"/>
<path d="M43.2921 29.674V28.4377H43.741V28.1463H43.2921V27.54L42.9417 27.7053V28.1463H42.6307V28.4377H42.9417V29.6858C42.9417 29.8512 42.989 29.9811 43.0795 30.0756C43.174 30.1741 43.304 30.2213 43.4654 30.2213H43.7056V29.9063H43.5087C43.3591 29.9063 43.2921 29.8355 43.2921 29.674Z" fill="white"/>
</svg>
