<?xml version="1.0" encoding="UTF-8" standalone="no"?>
<!DOCTYPE svg PUBLIC "-//W3C//DTD SVG 1.1//EN" "http://www.w3.org/Graphics/SVG/1.1/DTD/svg11.dtd">
<svg width="100%" height="100%" viewBox="0 0 40 40" version="1.1" xmlns="http://www.w3.org/2000/svg" xmlns:xlink="http://www.w3.org/1999/xlink" xml:space="preserve" style="fill-rule:evenodd;clip-rule:evenodd;stroke-linejoin:round;stroke-miterlimit:2;">
    <g transform="matrix(1,0,0,1,-3766.16,-306.799)">
        <g id="Artboard1" transform="matrix(1,0,0,1,3766.16,306.799)">
            <rect x="0" y="0" width="40" height="40" style="fill:none;"/>
            <g transform="matrix(1,0,0,1,-3766.16,-306.799)">
                <path d="M3794.66,316.799L3777.66,316.799C3777.26,316.799 3776.88,316.957 3776.6,317.238C3776.32,317.519 3776.16,317.901 3776.16,318.299L3776.16,335.299C3776.16,335.697 3776.32,336.078 3776.6,336.359C3776.88,336.641 3777.26,336.799 3777.66,336.799L3794.66,336.799C3795.06,336.799 3795.44,336.641 3795.72,336.359C3796,336.078 3796.16,335.697 3796.16,335.299L3796.16,318.299C3796.16,317.901 3796,317.519 3795.72,317.238C3795.44,316.957 3795.06,316.799 3794.66,316.799ZM3794.66,317.799L3777.66,317.799C3777.53,317.799 3777.4,317.851 3777.31,317.945C3777.21,318.039 3777.16,318.166 3777.16,318.299L3777.16,335.299C3777.16,335.431 3777.21,335.558 3777.31,335.652C3777.4,335.746 3777.53,335.799 3777.66,335.799L3794.66,335.799C3794.79,335.799 3794.92,335.746 3795.01,335.652C3795.11,335.558 3795.16,335.431 3795.16,335.299L3795.16,318.299C3795.16,318.166 3795.11,318.039 3795.01,317.945C3794.92,317.851 3794.79,317.799 3794.66,317.799ZM3790.66,331.299L3789.16,331.299C3788.88,331.299 3788.66,331.523 3788.66,331.799C3788.66,332.075 3788.88,332.299 3789.16,332.299L3790.66,332.299L3790.66,333.799C3790.66,334.075 3790.88,334.299 3791.16,334.299C3791.44,334.299 3791.66,334.075 3791.66,333.799L3791.66,332.299L3793.16,332.299C3793.44,332.299 3793.66,332.075 3793.66,331.799C3793.66,331.523 3793.44,331.299 3793.16,331.299L3791.66,331.299L3791.66,329.799C3791.66,329.523 3791.44,329.299 3791.16,329.299C3790.88,329.299 3790.66,329.523 3790.66,329.799L3790.66,331.299ZM3785.42,332.341L3791.7,326.057C3792.31,325.446 3792.31,324.455 3791.7,323.844C3791.7,323.844 3789.11,321.257 3789.11,321.257C3788.5,320.646 3787.51,320.646 3786.9,321.257C3786.9,321.257 3780.62,327.541 3780.62,327.541C3780.01,328.151 3780.01,329.143 3780.62,329.753C3780.62,329.753 3783.2,332.341 3783.2,332.341C3783.82,332.951 3784.81,332.951 3785.42,332.341ZM3784.13,325.5L3787.46,328.832L3784.68,331.607C3784.48,331.812 3784.14,331.812 3783.94,331.607C3783.94,331.607 3781.35,329.019 3781.35,329.019C3781.15,328.814 3781.15,328.48 3781.35,328.275L3784.13,325.5ZM3780.66,321.299L3779.66,321.299C3779.38,321.299 3779.16,321.523 3779.16,321.799C3779.16,322.075 3779.38,322.299 3779.66,322.299L3780.66,322.299L3780.66,323.299C3780.66,323.575 3780.88,323.799 3781.16,323.799C3781.44,323.799 3781.66,323.575 3781.66,323.299L3781.66,322.299L3782.66,322.299C3782.94,322.299 3783.16,322.075 3783.16,321.799C3783.16,321.523 3782.94,321.299 3782.66,321.299L3781.66,321.299L3781.66,320.299C3781.66,320.023 3781.44,319.799 3781.16,319.799C3780.88,319.799 3780.66,320.023 3780.66,320.299L3780.66,321.299Z"/>
            </g>
        </g>
    </g>
</svg>
