<?xml version="1.0" encoding="UTF-8" standalone="no"?>
<!DOCTYPE svg PUBLIC "-//W3C//DTD SVG 1.1//EN" "http://www.w3.org/Graphics/SVG/1.1/DTD/svg11.dtd">
<svg width="100%" height="100%" viewBox="0 0 40 40" version="1.1" xmlns="http://www.w3.org/2000/svg" xmlns:xlink="http://www.w3.org/1999/xlink" xml:space="preserve" style="fill-rule:evenodd;clip-rule:evenodd;stroke-linejoin:round;stroke-miterlimit:2;">
    <g transform="matrix(1,0,0,1,-3830.16,-306.5)">
        <g id="Artboard1" transform="matrix(1,0,0,1,3830.16,306.5)">
            <rect x="0" y="0" width="40" height="40" style="fill:none;"/>
            <g transform="matrix(1,0,0,1,-0.494792,0.994792)">
                <g transform="matrix(1,0,0,1,-3830.65,-257.047)">
                    <path d="M3843.66,282.078L3848.66,282.078C3848.95,282.078 3849.18,281.845 3849.18,281.557C3849.18,281.27 3848.95,281.036 3848.66,281.036L3843.66,281.036C3843.37,281.036 3843.14,281.27 3843.14,281.557C3843.14,281.845 3843.37,282.078 3843.66,282.078ZM3842.66,280.078L3851.66,280.078C3851.95,280.078 3852.18,279.845 3852.18,279.557C3852.18,279.27 3851.95,279.036 3851.66,279.036L3842.66,279.036C3842.37,279.036 3842.14,279.27 3842.14,279.557C3842.14,279.845 3842.37,280.078 3842.66,280.078ZM3841.66,278.078L3852.66,278.078C3852.95,278.078 3853.18,277.845 3853.18,277.557C3853.18,277.27 3852.95,277.036 3852.66,277.036L3841.66,277.036C3841.37,277.036 3841.14,277.27 3841.14,277.557C3841.14,277.845 3841.37,278.078 3841.66,278.078ZM3839.66,276.078L3858.66,276.078C3858.95,276.078 3859.18,275.845 3859.18,275.557C3859.18,275.27 3858.95,275.036 3858.66,275.036L3839.66,275.036C3839.37,275.036 3839.14,275.27 3839.14,275.557C3839.14,275.845 3839.37,276.078 3839.66,276.078ZM3838.66,274.078L3861.66,274.078C3861.95,274.078 3862.18,273.845 3862.18,273.557C3862.18,273.27 3861.95,273.036 3861.66,273.036L3838.66,273.036C3838.37,273.036 3838.14,273.27 3838.14,273.557C3838.14,273.845 3838.37,274.078 3838.66,274.078ZM3838.66,272.078L3861.66,272.078C3861.95,272.078 3862.18,271.845 3862.18,271.557C3862.18,271.27 3861.95,271.036 3861.66,271.036L3838.66,271.036C3838.37,271.036 3838.14,271.27 3838.14,271.557C3838.14,271.845 3838.37,272.078 3838.66,272.078ZM3840.66,270.078L3860.66,270.078C3860.95,270.078 3861.18,269.845 3861.18,269.557C3861.18,269.27 3860.95,269.036 3860.66,269.036L3840.66,269.036C3840.37,269.036 3840.14,269.27 3840.14,269.557C3840.14,269.845 3840.37,270.078 3840.66,270.078ZM3843.66,268.078L3857.66,268.078C3857.95,268.078 3858.18,267.845 3858.18,267.557C3858.18,267.27 3857.95,267.036 3857.66,267.036L3843.66,267.036C3843.37,267.036 3843.14,267.27 3843.14,267.557C3843.14,267.845 3843.37,268.078 3843.66,268.078ZM3847.66,266.078L3853.66,266.078C3853.95,266.078 3854.18,265.845 3854.18,265.557C3854.18,265.27 3853.95,265.036 3853.66,265.036L3847.66,265.036C3847.37,265.036 3847.14,265.27 3847.14,265.557C3847.14,265.845 3847.37,266.078 3847.66,266.078Z"/>
                </g>
                <g transform="matrix(0.91351,0,0,0.91351,-3428.41,-229.878)">
                    <path d="M3782.91,285.118L3789.22,278.813C3789.83,278.2 3789.83,277.205 3789.22,276.593C3789.22,276.593 3786.62,273.996 3786.62,273.996C3786.01,273.383 3785.02,273.383 3784.4,273.996C3784.4,273.996 3778.1,280.302 3778.1,280.302C3777.49,280.914 3777.49,281.909 3778.1,282.522C3778.1,282.522 3780.7,285.118 3780.7,285.118C3781.31,285.731 3782.3,285.731 3782.91,285.118ZM3781.62,278.254L3784.96,281.597L3782.18,284.382C3781.97,284.588 3781.64,284.588 3781.43,284.382C3781.43,284.382 3778.84,281.785 3778.84,281.785C3778.63,281.579 3778.63,281.245 3778.84,281.038L3781.62,278.254Z"/>
                </g>
            </g>
        </g>
    </g>
</svg>
