<?xml version="1.0" encoding="UTF-8" standalone="no"?>
<!DOCTYPE svg PUBLIC "-//W3C//DTD SVG 1.1//EN" "http://www.w3.org/Graphics/SVG/1.1/DTD/svg11.dtd">
<svg width="100%" height="100%" viewBox="0 0 40 40" version="1.1" xmlns="http://www.w3.org/2000/svg" xmlns:xlink="http://www.w3.org/1999/xlink" xml:space="preserve" style="fill-rule:evenodd;clip-rule:evenodd;stroke-linejoin:round;stroke-miterlimit:2;">
    <g transform="matrix(1,0,0,1,-3881.46,-306.5)">
        <g id="Artboard1" transform="matrix(1,0,0,1,3881.46,306.5)">
            <rect x="0" y="0" width="40" height="40" style="fill:none;"/>
            <g transform="matrix(1,0,0,1,0.00520833,0.5)">
                <g transform="matrix(0.545455,-1.5011e-14,1.47693e-14,0.524564,-2006.94,-136.435)">
                    <path d="M3709.66,278.243L3720.66,278.243C3721.19,278.243 3721.62,277.798 3721.62,277.25C3721.62,276.702 3721.19,276.257 3720.66,276.257L3709.66,276.257C3709.13,276.257 3708.7,276.702 3708.7,277.25C3708.7,277.798 3709.13,278.243 3709.66,278.243Z" style="fill-opacity:0.35;"/>
                </g>
                <g transform="matrix(1.27273,-3.56814e-14,1.45829e-14,0.524564,-4708.87,-134.435)">
                    <path d="M3709.66,278.243L3720.66,278.243C3720.89,278.243 3721.07,277.798 3721.07,277.25C3721.07,276.702 3720.89,276.257 3720.66,276.257L3709.66,276.257C3709.43,276.257 3709.25,276.702 3709.25,277.25C3709.25,277.798 3709.43,278.243 3709.66,278.243Z" style="fill-opacity:0.35;"/>
                </g>
                <g transform="matrix(1.81818,-5.33988e-14,1.35303e-14,0.524564,-6735.33,-132.435)">
                    <path d="M3709.66,278.243L3720.66,278.243C3720.82,278.243 3720.95,277.798 3720.95,277.25C3720.95,276.702 3720.82,276.257 3720.66,276.257L3709.66,276.257C3709.5,276.257 3709.37,276.702 3709.37,277.25C3709.37,277.798 3709.5,278.243 3709.66,278.243Z" style="fill-opacity:0.35;"/>
                </g>
                <g transform="matrix(2.09091,-6.1385e-14,1.32619e-14,0.524564,-7749.05,-130.435)">
                    <path d="M3709.66,278.243L3720.66,278.243C3720.8,278.243 3720.91,277.798 3720.91,277.25C3720.91,276.702 3720.8,276.257 3720.66,276.257L3709.66,276.257C3709.52,276.257 3709.41,276.702 3709.41,277.25C3709.41,277.798 3709.52,278.243 3709.66,278.243Z" style="fill-opacity:0.35;"/>
                </g>
                <g transform="matrix(2.09091,-6.1385e-14,1.32619e-14,0.524564,-7749.05,-128.435)">
                    <path d="M3709.66,278.243L3720.66,278.243C3720.8,278.243 3720.91,277.798 3720.91,277.25C3720.91,276.702 3720.8,276.257 3720.66,276.257L3709.66,276.257C3709.52,276.257 3709.41,276.702 3709.41,277.25C3709.41,277.798 3709.52,278.243 3709.66,278.243Z"/>
                </g>
                <g transform="matrix(1.72727,-5.09375e-14,1.35727e-14,0.524564,-6399.08,-126.435)">
                    <path d="M3709.66,278.243L3720.66,278.243C3720.83,278.243 3720.96,277.798 3720.96,277.25C3720.96,276.702 3720.83,276.257 3720.66,276.257L3709.66,276.257C3709.49,276.257 3709.36,276.702 3709.36,277.25C3709.36,277.798 3709.49,278.243 3709.66,278.243Z" style="fill-opacity:0.35;"/>
                </g>
                <g transform="matrix(1,-2.84087e-14,1.46668e-14,0.524564,-3699.15,-124.435)">
                    <path d="M3709.66,278.243L3720.66,278.243C3720.95,278.243 3721.18,277.798 3721.18,277.25C3721.18,276.702 3720.95,276.257 3720.66,276.257L3709.66,276.257C3709.37,276.257 3709.14,276.702 3709.14,277.25C3709.14,277.798 3709.37,278.243 3709.66,278.243Z" style="fill-opacity:0.35;"/>
                </g>
                <g transform="matrix(0.818182,-2.30062e-14,1.48217e-14,0.524564,-3023.67,-122.435)">
                    <path d="M3709.66,278.243L3720.66,278.243C3721.01,278.243 3721.3,277.798 3721.3,277.25C3721.3,276.702 3721.01,276.257 3720.66,276.257L3709.66,276.257C3709.31,276.257 3709.02,276.702 3709.02,277.25C3709.02,277.798 3709.31,278.243 3709.66,278.243Z" style="fill-opacity:0.35;"/>
                </g>
                <g transform="matrix(0.454545,-1.2671e-14,1.48605e-14,0.524564,-1673.7,-120.435)">
                    <path d="M3709.66,278.243L3720.66,278.243C3721.29,278.243 3721.81,277.798 3721.81,277.25C3721.81,276.702 3721.29,276.257 3720.66,276.257L3709.66,276.257C3709.03,276.257 3708.51,276.702 3708.51,277.25C3708.51,277.798 3709.03,278.243 3709.66,278.243Z" style="fill-opacity:0.35;"/>
                </g>
                <g transform="matrix(0.91351,0,0,0.91351,-3428.91,-229.378)">
                    <path d="M3782.91,285.118L3789.22,278.813C3789.83,278.2 3789.83,277.205 3789.22,276.593C3789.22,276.593 3786.62,273.996 3786.62,273.996C3786.01,273.383 3785.02,273.383 3784.4,273.996C3784.4,273.996 3778.1,280.302 3778.1,280.302C3777.49,280.914 3777.49,281.909 3778.1,282.522C3778.1,282.522 3780.7,285.118 3780.7,285.118C3781.31,285.731 3782.3,285.731 3782.91,285.118ZM3781.62,278.254L3784.96,281.597L3782.18,284.382C3781.97,284.588 3781.64,284.588 3781.43,284.382C3781.43,284.382 3778.84,281.785 3778.84,281.785C3778.63,281.579 3778.63,281.245 3778.84,281.038L3781.62,278.254Z"/>
                </g>
            </g>
        </g>
    </g>
</svg>
