<?xml version="1.0" encoding="UTF-8" standalone="no"?>
<!DOCTYPE svg PUBLIC "-//W3C//DTD SVG 1.1//EN" "http://www.w3.org/Graphics/SVG/1.1/DTD/svg11.dtd">
<svg width="100%" height="100%" viewBox="0 0 40 40" version="1.1" xmlns="http://www.w3.org/2000/svg" xmlns:xlink="http://www.w3.org/1999/xlink" xml:space="preserve" style="fill-rule:evenodd;clip-rule:evenodd;stroke-linejoin:round;stroke-miterlimit:2;">
    <g transform="matrix(1,0,0,1,-2496,-273)">
        <g id="Artboard1" transform="matrix(1,0,0,1,2496,273)">
            <rect x="0" y="0" width="40" height="40" style="fill:none;"/>
            <g transform="matrix(1,0,0,1,-2495,-204)">
                <path d="M2525.02,216.5C2525.02,215.661 2524.34,214.979 2523.5,214.979L2520.5,214.979C2519.66,214.979 2518.98,215.661 2518.98,216.5C2518.98,216.5 2518.98,231.5 2518.98,231.5C2518.98,232.339 2519.66,233.021 2520.5,233.021L2523.5,233.021C2524.34,233.021 2525.02,232.339 2525.02,231.5C2525.02,231.5 2525.02,216.5 2525.02,216.5ZM2523.98,216.5L2523.98,231.5C2523.98,231.764 2523.76,231.979 2523.5,231.979C2523.5,231.979 2520.5,231.979 2520.5,231.979C2520.24,231.979 2520.02,231.764 2520.02,231.5L2520.02,216.5C2520.02,216.236 2520.24,216.021 2520.5,216.021C2520.5,216.021 2523.5,216.021 2523.5,216.021C2523.76,216.021 2523.98,216.236 2523.98,216.5Z"/>
            </g>
            <g transform="matrix(1,0,0,1,-2502,-204)">
                <path d="M2525.02,216.5C2525.02,215.661 2524.34,214.979 2523.5,214.979L2520.5,214.979C2519.66,214.979 2518.98,215.661 2518.98,216.5L2518.98,231.5C2518.98,232.339 2519.66,233.021 2520.5,233.021L2523.5,233.021C2524.34,233.021 2525.02,232.339 2525.02,231.5L2525.02,216.5ZM2523.98,216.5L2523.98,231.5C2523.98,231.764 2523.76,231.979 2523.5,231.979C2523.5,231.979 2520.5,231.979 2520.5,231.979C2520.24,231.979 2520.02,231.764 2520.02,231.5C2520.02,231.5 2520.02,216.5 2520.02,216.5C2520.02,216.236 2520.24,216.021 2520.5,216.021C2520.5,216.021 2523.5,216.021 2523.5,216.021C2523.76,216.021 2523.98,216.236 2523.98,216.5Z"/>
            </g>
            <g transform="matrix(1,0,0,1,-2509,-204)">
                <path d="M2525.02,216.5C2525.02,215.661 2524.34,214.979 2523.5,214.979L2520.5,214.979C2519.66,214.979 2518.98,215.661 2518.98,216.5L2518.98,231.5C2518.98,232.339 2519.66,233.021 2520.5,233.021L2523.5,233.021C2524.34,233.021 2525.02,232.339 2525.02,231.5L2525.02,216.5ZM2523.98,216.5L2523.98,231.5C2523.98,231.764 2523.76,231.979 2523.5,231.979C2523.5,231.979 2520.5,231.979 2520.5,231.979C2520.24,231.979 2520.02,231.764 2520.02,231.5C2520.02,231.5 2520.02,216.5 2520.02,216.5C2520.02,216.236 2520.24,216.021 2520.5,216.021C2520.5,216.021 2523.5,216.021 2523.5,216.021C2523.76,216.021 2523.98,216.236 2523.98,216.5Z"/>
            </g>
        </g>
    </g>
</svg>
