<?xml version="1.0" encoding="UTF-8" standalone="no"?>
<!DOCTYPE svg PUBLIC "-//W3C//DTD SVG 1.1//EN" "http://www.w3.org/Graphics/SVG/1.1/DTD/svg11.dtd">
<svg width="100%" height="100%" viewBox="0 0 48 48" version="1.1" xmlns="http://www.w3.org/2000/svg" xmlns:xlink="http://www.w3.org/1999/xlink" xml:space="preserve" style="fill-rule:evenodd;clip-rule:evenodd;stroke-linejoin:round;stroke-miterlimit:2;">
    <g transform="matrix(1,0,0,1,-2863.09,-699.966)">
        <g id="Artboard1" transform="matrix(0.75,0,0,0.75,2863.09,699.966)">
            <rect x="0" y="0" width="64" height="64" style="fill:none;"/>
            <g transform="matrix(1.33333,0,0,1.33333,-3817.45,-933.289)">
                <path d="M2872.09,719.966L2872.09,735.966C2872.09,737.622 2873.43,738.966 2875.09,738.966L2891.09,738.966C2892.74,738.966 2894.09,737.622 2894.09,735.966C2894.09,735.966 2894.09,733.966 2894.09,733.966C2894.09,733.415 2893.64,732.966 2893.09,732.966C2892.54,732.966 2892.09,733.415 2892.09,733.966L2892.09,735.966C2892.09,736.518 2891.64,736.966 2891.09,736.966L2875.09,736.966C2874.54,736.966 2874.09,736.518 2874.09,735.966L2874.09,719.966C2874.09,719.415 2874.54,718.966 2875.09,718.966C2875.09,718.966 2877.09,718.966 2877.09,718.966C2877.64,718.966 2878.09,718.518 2878.09,717.966C2878.09,717.415 2877.64,716.966 2877.09,716.966L2875.09,716.966C2873.43,716.966 2872.09,718.311 2872.09,719.966ZM2899.09,708.966L2883.09,708.966C2881.43,708.966 2880.09,710.311 2880.09,711.966L2880.09,727.966C2880.09,729.622 2881.43,730.966 2883.09,730.966L2899.09,730.966C2900.74,730.966 2902.09,729.622 2902.09,727.966L2902.09,711.966C2902.09,710.311 2900.74,708.966 2899.09,708.966ZM2883.09,710.966C2882.54,710.966 2882.09,711.415 2882.09,711.966L2882.09,727.966C2882.09,728.518 2882.54,728.966 2883.09,728.966L2899.09,728.966C2899.64,728.966 2900.09,728.518 2900.09,727.966L2900.09,711.966C2900.09,711.415 2899.64,710.966 2899.09,710.966L2883.09,710.966Z" />
            </g>
        </g>
    </g>
</svg>
