<?xml version="1.0" encoding="UTF-8" standalone="no"?>
<!DOCTYPE svg PUBLIC "-//W3C//DTD SVG 1.1//EN" "http://www.w3.org/Graphics/SVG/1.1/DTD/svg11.dtd">
<svg width="100%" height="100%" viewBox="0 0 40 40" version="1.1" xmlns="http://www.w3.org/2000/svg" xmlns:xlink="http://www.w3.org/1999/xlink" xml:space="preserve" style="fill-rule:evenodd;clip-rule:evenodd;stroke-linejoin:round;stroke-miterlimit:2;">
    <path d="M19.996,19.996L9.5,19.996C9.222,19.996 8.996,20.222 8.996,20.5C8.996,20.778 9.222,21.004 9.5,21.004L19.996,21.004L19.996,31.5C19.996,31.778 20.222,32.004 20.5,32.004C20.778,32.004 21.004,31.778 21.004,31.5L21.004,21.004L31.5,21.004C31.778,21.004 32.004,20.778 32.004,20.5C32.004,20.222 31.778,19.996 31.5,19.996L21.004,19.996L21.004,9.5C21.004,9.222 20.778,8.996 20.5,8.996C20.222,8.996 19.996,9.222 19.996,9.5L19.996,19.996Z"/>
</svg>
