<?xml version="1.0" encoding="UTF-8" standalone="no"?><!DOCTYPE svg PUBLIC "-//W3C//DTD SVG 1.1//EN" "http://www.w3.org/Graphics/SVG/1.1/DTD/svg11.dtd"><svg width="100%" height="100%" viewBox="0 0 167 167" version="1.1" xmlns="http://www.w3.org/2000/svg" xmlns:xlink="http://www.w3.org/1999/xlink" xml:space="preserve" style="fill-rule:evenodd;clip-rule:evenodd;stroke-linejoin:round;stroke-miterlimit:2;"><g><g><path d="M83.492,60.456l0,-21.048c0,-1.062 0.862,-1.925 1.925,-1.925c1.062,0 1.925,0.863 1.925,1.925l-0,21.048c12.26,0.939 22.05,10.763 22.937,23.034l21.145,0c1.062,0 1.924,0.866 1.924,1.925c0,1.062 -0.862,1.924 -1.924,1.924l-21.161,0c-0.984,12.18 -10.733,21.895 -22.921,22.827l-0,21.259c-0,1.059 -0.863,1.925 -1.925,1.925c-1.063,0 -1.925,-0.866 -1.925,-1.925l0,-21.259c-12.191,-0.932 -21.939,-10.651 -22.922,-22.827l-21.16,0c-1.062,0 -1.925,-0.862 -1.925,-1.924c0,-1.059 0.863,-1.925 1.925,-1.925l21.144,0c0.888,-12.271 10.677,-22.095 22.938,-23.034Zm22.907,26.883l-19.057,0l-0,18.966c10.065,-0.916 18.095,-8.915 19.057,-18.966Zm-41.964,0c0.962,10.051 8.993,18.05 19.057,18.966l0,-18.966l-19.057,0Zm22.907,-23.018l-0,19.169l19.076,0c-0.869,-10.147 -8.942,-18.253 -19.076,-19.169Zm-3.85,-0c-10.135,0.916 -18.207,9.022 -19.077,19.169l19.077,0l0,-19.169Z" style="fill-rule:nonzero;"/></g></g></svg>