<?xml version="1.0" encoding="UTF-8" standalone="no"?>
<!DOCTYPE svg PUBLIC "-//W3C//DTD SVG 1.1//EN" "http://www.w3.org/Graphics/SVG/1.1/DTD/svg11.dtd">
<svg width="100%" height="100%" viewBox="0 0 40 40" version="1.1" xmlns="http://www.w3.org/2000/svg" xmlns:xlink="http://www.w3.org/1999/xlink" xml:space="preserve" style="fill-rule:evenodd;clip-rule:evenodd;stroke-linejoin:round;stroke-miterlimit:2;">
    <g transform="matrix(1,0,0,1,-2800,-273)">
        <g id="Artboard1" transform="matrix(1,0,0,1,2800,273)">
            <rect x="0" y="0" width="40" height="40" style="fill:none;"/>
            <g transform="matrix(1,0,0,1,-2800,-273)">
                <path d="M2821.16,283.42C2820.87,283.138 2820.49,282.979 2820.09,282.979C2818.72,282.979 2814.38,282.979 2814.38,282.979C2813.74,282.979 2813.13,283.235 2812.68,283.691C2812.68,283.691 2812.68,283.691 2812.68,283.691C2812.23,284.144 2811.98,284.759 2811.98,285.4C2811.98,285.4 2811.98,300.6 2811.98,300.6C2811.98,301.241 2812.23,301.856 2812.68,302.309C2812.68,302.309 2812.68,302.309 2812.68,302.309C2813.13,302.765 2813.74,303.021 2814.38,303.021C2814.38,303.021 2825.62,303.021 2825.62,303.021C2826.26,303.021 2826.87,302.765 2827.32,302.309C2827.77,301.856 2828.02,301.241 2828.02,300.6L2828.02,290.908C2828.02,290.509 2827.86,290.126 2827.58,289.843L2821.16,283.42ZM2819.98,284.021L2814.38,284.021C2814.02,284.021 2813.67,284.166 2813.42,284.422C2813.16,284.682 2813.02,285.033 2813.02,285.4L2813.02,300.6C2813.02,300.967 2813.16,301.318 2813.42,301.578C2813.67,301.834 2814.02,301.979 2814.38,301.979L2825.62,301.979C2825.98,301.979 2826.33,301.834 2826.58,301.578C2826.58,301.578 2826.58,301.578 2826.58,301.578C2826.84,301.318 2826.98,300.967 2826.98,300.6L2826.98,291.021L2822.47,291.021C2821.1,291.021 2819.98,289.905 2819.98,288.528L2819.98,284.021ZM2821.02,284.757L2821.02,288.528C2821.02,289.33 2821.67,289.979 2822.47,289.979L2826.24,289.979L2821.02,284.757Z"/>
            </g>
        </g>
    </g>
</svg>
