<?xml version="1.0" encoding="UTF-8" standalone="no"?>
<!DOCTYPE svg PUBLIC "-//W3C//DTD SVG 1.1//EN" "http://www.w3.org/Graphics/SVG/1.1/DTD/svg11.dtd">
<svg width="100%" height="100%" viewBox="0 0 40 40" version="1.1" xmlns="http://www.w3.org/2000/svg" xmlns:xlink="http://www.w3.org/1999/xlink" xml:space="preserve" style="fill-rule:evenodd;clip-rule:evenodd;stroke-linejoin:round;stroke-miterlimit:2;">
    <g transform="matrix(1,0,0,1,-377,-232)">
        <g id="Artboard1" transform="matrix(1,0,0,1,377,232)">
            <rect x="0" y="0" width="40" height="40" style="fill:none;"/>
            <g transform="matrix(1.34687,1.34687,-0.979071,0.979071,-324.553,-353.946)">
                <path d="M269.961,8.284C269.961,7.805 269.823,7.346 269.577,7.007C269.331,6.669 268.997,6.479 268.649,6.479C267.567,6.479 265.891,6.479 264.809,6.479C264.461,6.479 264.127,6.669 263.881,7.007C263.635,7.346 263.497,7.805 263.497,8.284L263.497,20.716C263.497,21.195 263.635,21.654 263.881,21.993C264.127,22.331 264.461,22.521 264.809,22.521C265.891,22.521 267.567,22.521 268.649,22.521C268.997,22.521 269.331,22.331 269.577,21.993C269.823,21.654 269.961,21.195 269.961,20.716L269.961,8.284ZM269.436,8.284L269.436,20.716C269.436,21.003 269.354,21.279 269.206,21.482C269.058,21.685 268.858,21.799 268.649,21.799L264.809,21.799C264.6,21.799 264.4,21.685 264.252,21.482C264.105,21.279 264.022,21.003 264.022,20.716C264.022,20.716 264.022,8.284 264.022,8.284C264.022,7.997 264.105,7.721 264.252,7.518C264.4,7.315 264.6,7.201 264.809,7.201L268.649,7.201C268.858,7.201 269.058,7.315 269.206,7.518C269.354,7.721 269.436,7.997 269.436,8.284Z"/>
            </g>
            <g transform="matrix(0.841794,0.841794,-0.391628,0.391628,-201.352,-207.71)">
                <path d="M270.119,7.742C270.119,6.745 269.743,5.937 269.279,5.937L264.179,5.937C263.715,5.937 263.339,6.745 263.339,7.742C263.339,10.46 263.339,18.54 263.339,21.258C263.339,22.255 263.715,23.063 264.179,23.063L269.279,23.063C269.743,23.063 270.119,22.255 270.119,21.258L270.119,7.742ZM264.179,7.742L269.279,7.742L269.279,21.258C269.279,21.258 264.179,21.258 264.179,21.258L264.179,7.742Z"/>
            </g>
        </g>
    </g>
</svg>
