<?xml version="1.0" encoding="UTF-8" standalone="no"?>
<!DOCTYPE svg PUBLIC "-//W3C//DTD SVG 1.1//EN" "http://www.w3.org/Graphics/SVG/1.1/DTD/svg11.dtd">
<svg width="100%" height="100%" viewBox="0 0 40 40" version="1.1" xmlns="http://www.w3.org/2000/svg" xmlns:xlink="http://www.w3.org/1999/xlink" xml:space="preserve" style="fill-rule:evenodd;clip-rule:evenodd;stroke-linejoin:round;stroke-miterlimit:2;">
    <g transform="matrix(1,0,0,1,-3585.39,-257.25)">
        <g id="Artboard1" transform="matrix(1,0,0,1,3585.39,257.25)">
            <rect x="0" y="0" width="40" height="40" style="fill:none;"/>
            <g transform="matrix(1,0,0,1,-377.5,-328.628)">
                <path d="M387.061,350.36L399.232,338.189C399.701,337.72 400.337,337.457 401,337.457C401.663,337.457 402.299,337.72 402.768,338.189C404.225,339.646 406.482,341.904 407.939,343.36C408.408,343.829 408.672,344.465 408.672,345.128C408.672,345.791 408.408,346.427 407.939,346.896L395.768,359.068C395.299,359.536 394.663,359.8 394,359.8C393.337,359.8 392.701,359.536 392.232,359.068C390.775,357.611 388.518,355.353 387.061,353.896C386.592,353.427 386.328,352.791 386.328,352.128C386.328,351.465 386.592,350.829 387.061,350.36ZM393.5,345.335L400.793,352.628L395.061,358.36C394.779,358.642 394.398,358.8 394,358.8C393.602,358.8 393.221,358.642 392.939,358.36L387.768,353.189C387.486,352.908 387.328,352.526 387.328,352.128C387.328,351.73 387.486,351.349 387.768,351.068L393.5,345.335Z"/>
            </g>
        </g>
    </g>
</svg>
