<?xml version="1.0" encoding="UTF-8" standalone="no"?>
<!DOCTYPE svg PUBLIC "-//W3C//DTD SVG 1.1//EN" "http://www.w3.org/Graphics/SVG/1.1/DTD/svg11.dtd">
<svg width="100%" height="100%" viewBox="0 0 40 40" version="1.1" xmlns="http://www.w3.org/2000/svg" xmlns:xlink="http://www.w3.org/1999/xlink" xml:space="preserve" style="fill-rule:evenodd;clip-rule:evenodd;stroke-linejoin:round;stroke-miterlimit:2;">
    <g transform="matrix(1,0,0,1,-858,-257)">
        <g id="Artboard1" transform="matrix(1,0,0,1,858,257)">
            <rect x="0" y="0" width="40" height="40" style="fill:none;"/>
            <g transform="matrix(1,0,0,1,-858,-257)">
                <path d="M871,269.5L871,283.5C871,283.898 871.158,284.279 871.439,284.561C871.721,284.842 872.102,285 872.5,285C875.855,285 886.5,285 886.5,285C886.776,285 887,284.776 887,284.5C887,284.224 886.776,284 886.5,284L872.5,284C872.367,284 872.24,283.947 872.146,283.854C872.053,283.76 872,283.633 872,283.5L872,269.5C872,269.224 871.776,269 871.5,269C871.224,269 871,269.224 871,269.5ZM882.293,273L875.146,280.146C874.951,280.342 874.951,280.658 875.146,280.854C875.342,281.049 875.658,281.049 875.854,280.854L883,273.707L883,277.5C883,277.776 883.224,278 883.5,278C883.776,278 884,277.776 884,277.5L884,272.5C884,272.425 883.983,272.354 883.954,272.29L883.945,272.272L883.937,272.257L883.924,272.235L883.911,272.215L883.9,272.2L883.886,272.182L883.87,272.164L883.862,272.155C883.859,272.152 883.856,272.149 883.854,272.146L883.835,272.129L883.825,272.12L883.816,272.112L883.806,272.104L883.796,272.097L883.775,272.082L883.754,272.069L883.733,272.057L883.717,272.049L883.71,272.046C883.646,272.017 883.575,272 883.5,272L878.5,272C878.224,272 878,272.224 878,272.5C878,272.776 878.224,273 878.5,273L882.293,273Z"/>
            </g>
        </g>
    </g>
</svg>
