<?xml version="1.0" encoding="UTF-8" standalone="no"?>
<!DOCTYPE svg PUBLIC "-//W3C//DTD SVG 1.1//EN" "http://www.w3.org/Graphics/SVG/1.1/DTD/svg11.dtd">
<svg width="100%" height="100%" viewBox="0 0 20 20" version="1.1" xmlns="http://www.w3.org/2000/svg" xmlns:xlink="http://www.w3.org/1999/xlink" xml:space="preserve" style="fill-rule:evenodd;clip-rule:evenodd;stroke-linejoin:round;stroke-miterlimit:2;">
    <g transform="matrix(1,0,0,1,-1038,-267.25)">
        <g id="Artboard1" transform="matrix(0.5,0,0,0.5,1038,267.25)">
            <rect x="0" y="0" width="40" height="40" style="fill:none;"/>
            <g transform="matrix(2,0,0,2,-2076,-534.5)">
                <path d="M1052.39,272.152C1051.04,271.571 1049.56,271.25 1048,271.25C1043.83,271.25 1040.17,273.555 1038.26,277.007C1038.17,277.158 1038.17,277.342 1038.26,277.493C1039.29,279.347 1040.82,280.87 1042.66,281.883L1040.15,284.396C1039.95,284.592 1039.95,284.908 1040.15,285.104C1040.34,285.299 1040.66,285.299 1040.85,285.104L1043.61,282.348C1044.96,282.929 1046.44,283.25 1048,283.25C1052.17,283.25 1055.83,280.945 1057.75,277.493C1057.83,277.342 1057.83,277.158 1057.75,277.007C1056.71,275.153 1055.18,273.63 1053.34,272.617L1055.85,270.104C1056.05,269.908 1056.05,269.592 1055.85,269.396C1055.66,269.201 1055.34,269.201 1055.15,269.396L1052.39,272.152ZM1052.6,273.356L1050.78,275.182C1051.2,275.759 1051.46,276.474 1051.46,277.248C1051.46,279.158 1049.91,280.708 1048,280.708C1047.23,280.708 1046.51,280.453 1045.93,280.023L1044.38,281.58C1045.5,282.014 1046.72,282.25 1048,282.25C1051.7,282.25 1054.95,280.258 1056.73,277.25C1055.75,275.586 1054.31,274.233 1052.6,273.356ZM1051.62,272.92C1050.5,272.486 1049.28,272.25 1048,272.25C1044.3,272.25 1041.05,274.242 1039.27,277.25L1039.27,277.25C1040.25,278.914 1041.69,280.267 1043.4,281.144L1045.23,279.316C1044.8,278.739 1044.54,278.023 1044.54,277.248C1044.54,275.339 1046.09,273.788 1048,273.788C1048.78,273.788 1049.49,274.044 1050.07,274.475L1051.62,272.92ZM1050.06,275.9C1050.31,276.287 1050.46,276.751 1050.46,277.248C1050.46,278.606 1049.36,279.708 1048,279.708C1047.5,279.708 1047.04,279.56 1046.65,279.305L1050.06,275.9ZM1049.35,275.192L1045.94,278.599C1045.69,278.211 1045.54,277.747 1045.54,277.248C1045.54,275.891 1046.64,274.788 1048,274.788C1048.5,274.788 1048.96,274.937 1049.35,275.192Z"/>
            </g>
        </g>
    </g>
</svg>
