<?xml version="1.0" encoding="UTF-8" standalone="no"?>
<!DOCTYPE svg PUBLIC "-//W3C//DTD SVG 1.1//EN" "http://www.w3.org/Graphics/SVG/1.1/DTD/svg11.dtd">
<svg width="100%" height="100%" viewBox="0 0 20 20" version="1.1" xmlns="http://www.w3.org/2000/svg" xmlns:xlink="http://www.w3.org/1999/xlink" xml:space="preserve" style="fill-rule:evenodd;clip-rule:evenodd;stroke-linejoin:round;stroke-miterlimit:2;">
    <g transform="matrix(1,0,0,1,-1001,-267.25)">
        <g id="Artboard1" transform="matrix(0.5,0,0,0.5,1001,267.25)">
            <rect x="0" y="0" width="40" height="40" style="fill:none;"/>
            <g transform="matrix(1.69231,0,0,1.69231,-1596.15,-244)">
                <path d="M943.484,155.713C943.384,155.891 943.384,156.109 943.484,156.287C945.752,160.367 950.066,163.091 955,163.091C959.934,163.091 964.248,160.367 966.516,156.287C966.616,156.109 966.616,155.891 966.516,155.713C964.248,151.633 959.934,148.909 955,148.909C950.066,148.909 945.752,151.633 943.484,155.713ZM944.682,156C946.786,152.445 950.625,150.091 955,150.091C959.375,150.091 963.214,152.446 965.319,156C963.214,159.555 959.375,161.909 955,161.909C950.625,161.909 946.786,159.554 944.681,156L944.682,156ZM955,151.909C952.743,151.909 950.911,153.741 950.911,155.998C950.911,158.255 952.743,160.087 955,160.087C957.257,160.087 959.089,158.255 959.089,155.998C959.089,153.741 957.257,151.909 955,151.909ZM955,153.091C956.604,153.091 957.907,154.393 957.907,155.998C957.907,157.602 956.604,158.905 955,158.905C953.396,158.905 952.093,157.602 952.093,155.998C952.093,154.393 953.396,153.091 955,153.091Z"/>
            </g>
        </g>
    </g>
</svg>
