<?xml version="1.0" encoding="UTF-8" standalone="no"?><!DOCTYPE svg PUBLIC "-//W3C//DTD SVG 1.1//EN" "http://www.w3.org/Graphics/SVG/1.1/DTD/svg11.dtd"><svg width="100%" height="100%" viewBox="0 0 696 696" version="1.1" xmlns="http://www.w3.org/2000/svg" xmlns:xlink="http://www.w3.org/1999/xlink" xml:space="preserve" style="fill-rule:evenodd;clip-rule:evenodd;stroke-linejoin:round;stroke-miterlimit:2;"><path d="M611.404,338.377c-31.912,-11.52 -56.705,-14.399 -78.209,-10.162c-21.703,4.281 -40.208,15.804 -59.254,33.746c-17.96,16.929 -39.159,42.238 -58.934,59.366c-6.187,5.363 -12.213,9.897 -17.95,12.98c-4.817,2.585 -9.301,4.171 -13.458,3.877c-4.992,-0.356 -8.971,-3.852 -12.398,-10.619c-6.993,-13.814 -10.856,-39.061 -10.856,-80.395c0,-44.674 -5.191,-71.848 -13.287,-86.748c-6.626,-12.198 -15.292,-17.292 -24.862,-17.902c-12.584,-0.802 -27.781,7.348 -43.287,20.197c-20.919,17.328 -43.073,42.88 -61.164,59.98c-36.94,34.915 -72.342,41.141 -130.031,20.316c-3.583,-1.289 -7.526,0.563 -8.811,4.139c-1.289,3.572 0.555,7.522 4.139,8.811c31.778,11.476 57.435,15.223 80.213,11.473c23.072,-3.801 43.326,-15.241 63.955,-34.73c17.906,-16.922 39.78,-42.237 60.488,-59.388c12.239,-10.14 23.693,-17.688 33.623,-17.056c7.192,0.461 12.554,6.19 16.842,17.974c5.402,14.864 8.404,38.266 8.404,72.934c0,44.576 4.804,71.721 12.344,86.614c6.263,12.376 14.588,17.488 23.708,18.134c11.93,0.846 26.481,-7.261 41.399,-20.182c19.909,-17.245 41.282,-42.709 59.373,-59.755c16.911,-15.938 33.183,-26.455 52.472,-30.257c19.5,-3.841 41.919,-0.838 70.868,9.607c3.569,1.289 7.527,-0.567 8.812,-4.139c1.289,-3.576 -0.57,-7.526 -4.139,-8.815Z"/></svg>