<?xml version="1.0" encoding="UTF-8" standalone="no"?>
<!DOCTYPE svg PUBLIC "-//W3C//DTD SVG 1.1//EN" "http://www.w3.org/Graphics/SVG/1.1/DTD/svg11.dtd">
<svg width="100%" height="100%" viewBox="0 0 40 40" version="1.1" xmlns="http://www.w3.org/2000/svg" xmlns:xlink="http://www.w3.org/1999/xlink" xml:space="preserve" style="fill-rule:evenodd;clip-rule:evenodd;stroke-linejoin:round;stroke-miterlimit:2;">
    <g transform="matrix(1,0,0,1,-2729,-273)">
        <g id="Artboard1" transform="matrix(1,0,0,1,2729,273)">
            <rect x="0" y="0" width="40" height="40" style="fill:none;"/>
            <g transform="matrix(1,0,0,1,9,11.5)">
                <path d="M19.536,17.5C20.184,17.5 20.806,17.259 21.264,16.834C21.264,16.834 21.264,16.834 21.264,16.834C21.737,16.396 22,15.801 22,15.182L22,3.818C22,3.199 21.737,2.604 21.264,2.166C21.264,2.166 21.264,2.166 21.264,2.166C20.806,1.741 20.184,1.5 19.536,1.5L11.503,1.5C10.661,1.493 10.255,1.06 9.841,0.648C9.259,0.069 8.671,-0.488 7.505,-0.5L2.464,-0.5C1.816,-0.5 1.194,-0.259 0.736,0.166C0.263,0.604 0,1.199 0,1.818C0,1.818 0,15.182 0,15.182C0,15.801 0.263,16.396 0.736,16.834C0.736,16.834 0.736,16.834 0.736,16.834C1.194,17.259 1.816,17.5 2.464,17.5L19.536,17.5ZM19.536,16.5L2.464,16.5C2.071,16.5 1.693,16.358 1.415,16.101C1.151,15.856 1,15.527 1,15.182L1,1.818C1,1.473 1.151,1.144 1.415,0.899C1.693,0.642 2.071,0.5 2.464,0.5C2.464,0.5 7.497,0.5 7.497,0.5C8.324,0.509 8.722,0.945 9.136,1.357C9.717,1.935 10.314,2.491 11.496,2.5L19.536,2.5C19.929,2.5 20.307,2.642 20.585,2.899C20.849,3.144 21,3.473 21,3.818C21,3.818 21,15.182 21,15.182C21,15.527 20.849,15.856 20.585,16.101C20.307,16.358 19.929,16.5 19.536,16.5Z"/>
            </g>
        </g>
    </g>
</svg>
