<?xml version="1.0" encoding="UTF-8" standalone="no"?>
<!DOCTYPE svg PUBLIC "-//W3C//DTD SVG 1.1//EN" "http://www.w3.org/Graphics/SVG/1.1/DTD/svg11.dtd">
<svg width="100%" height="100%" viewBox="0 0 20 20" version="1.1" xmlns="http://www.w3.org/2000/svg" xmlns:xlink="http://www.w3.org/1999/xlink" xml:space="preserve" style="fill-rule:evenodd;clip-rule:evenodd;stroke-linejoin:round;stroke-miterlimit:2;">
    <g transform="matrix(1,0,0,1,-1889,-319)">
        <g id="Artboard1" transform="matrix(0.5,0,0,0.5,1889,319)">
            <rect x="0" y="0" width="40" height="40" style="fill:none;"/>
            <g transform="matrix(2,0,0,2,-3778,-638)">
                <path d="M1905,335C1905,335 1901.5,335 1901.5,335C1901.22,335 1901,335.224 1901,335.5C1901,335.776 1901.22,336 1901.5,336L1905,336C1905.27,336 1905.52,335.895 1905.71,335.707C1905.89,335.52 1906,335.265 1906,335C1906,333.927 1906,331.5 1906,331.5C1906,331.224 1905.78,331 1905.5,331C1905.22,331 1905,331.224 1905,331.5L1905,335ZM1893,335C1893,335 1893,331.5 1893,331.5C1893,331.224 1892.78,331 1892.5,331C1892.22,331 1892,331.224 1892,331.5L1892,335C1892,335.265 1892.11,335.52 1892.29,335.707C1892.48,335.895 1892.74,336 1893,336C1894.07,336 1896.5,336 1896.5,336C1896.78,336 1897,335.776 1897,335.5C1897,335.224 1896.78,335 1896.5,335L1893,335ZM1893,323C1893,323 1896.5,323 1896.5,323C1896.78,323 1897,322.776 1897,322.5C1897,322.224 1896.78,322 1896.5,322L1893,322C1892.74,322 1892.48,322.105 1892.29,322.293C1892.11,322.48 1892,322.735 1892,323C1892,324.073 1892,326.5 1892,326.5C1892,326.776 1892.22,327 1892.5,327C1892.78,327 1893,326.776 1893,326.5L1893,323ZM1905,323C1905,323 1905,326.5 1905,326.5C1905,326.776 1905.22,327 1905.5,327C1905.78,327 1906,326.776 1906,326.5L1906,323C1906,322.735 1905.89,322.48 1905.71,322.293C1905.52,322.105 1905.27,322 1905,322C1903.93,322 1901.5,322 1901.5,322C1901.22,322 1901,322.224 1901,322.5C1901,322.776 1901.22,323 1901.5,323L1905,323Z"/>
            </g>
        </g>
    </g>
</svg>
