<?xml version="1.0" encoding="UTF-8" standalone="no"?>
<!DOCTYPE svg PUBLIC "-//W3C//DTD SVG 1.1//EN" "http://www.w3.org/Graphics/SVG/1.1/DTD/svg11.dtd">
<svg width="100%" height="100%" viewBox="0 0 40 40" version="1.1" xmlns="http://www.w3.org/2000/svg" xmlns:xlink="http://www.w3.org/1999/xlink" xml:space="preserve" style="fill-rule:evenodd;clip-rule:evenodd;stroke-linejoin:round;stroke-miterlimit:2;">
    <g transform="matrix(1,0,0,1,-922,-257)">
        <g id="Artboard1" transform="matrix(1,0,0,1,922,257)">
            <rect x="0" y="0" width="40" height="40" style="fill:none;"/>
            <g transform="matrix(1,0,0,1,-922,-257)">
                <path d="M949,269.5L949,283.5C949,283.633 948.947,283.76 948.854,283.854C948.76,283.947 948.633,284 948.5,284L934.5,284C934.224,284 934,284.224 934,284.5C934,284.776 934.224,285 934.5,285L948.5,285C948.898,285 949.279,284.842 949.561,284.561C949.842,284.279 950,283.898 950,283.5C950,280.145 950,269.5 950,269.5C950,269.224 949.776,269 949.5,269C949.224,269 949,269.224 949,269.5ZM944.293,280L940.5,280C940.224,280 940,280.224 940,280.5C940,280.776 940.224,281 940.5,281L945.5,281C945.575,281 945.646,280.983 945.71,280.954L945.728,280.945L945.743,280.937L945.765,280.924L945.785,280.911L945.8,280.9L945.818,280.886L945.836,280.87L945.845,280.862C945.848,280.859 945.851,280.856 945.854,280.854L945.871,280.835L945.88,280.825L945.888,280.816L945.896,280.806L945.903,280.796L945.918,280.775L945.931,280.754L945.943,280.733L945.951,280.717L945.954,280.71C945.983,280.646 946,280.575 946,280.5L946,275.5C946,275.224 945.776,275 945.5,275C945.224,275 945,275.224 945,275.5L945,279.293L937.854,272.146C937.658,271.951 937.342,271.951 937.146,272.146C936.951,272.342 936.951,272.658 937.146,272.854L944.293,280Z"/>
            </g>
        </g>
    </g>
</svg>
