<svg width="17" height="22" viewBox="0 0 17 22" fill="none" xmlns="http://www.w3.org/2000/svg">
<path d="M8.5 0C3.80375 -4.10539e-07 0 3.59143 0 8.02553V13.9729C0 18.4071 3.80375 21.9985 8.5 21.9985C13.1962 21.9985 17 18.4071 17 13.9729V8.02554C17 3.59143 13.1963 4.10597e-07 8.5 0Z" fill-opacity="0.2"/>
<path d="M1.00309 8C0.449612 8 -0.0054369 7.54802 0.0684767 6.99951C0.535683 3.53232 3.34368 0.757545 6.95063 0.130948C7.51592 0.0327471 8 0.494169 8 1.06792V7C8 7.55228 7.55229 8 7 8H1.00309Z" fill-opacity="0.8"/>
</svg>
