<?xml version="1.0" encoding="UTF-8" standalone="no"?>
<!DOCTYPE svg PUBLIC "-//W3C//DTD SVG 1.1//EN" "http://www.w3.org/Graphics/SVG/1.1/DTD/svg11.dtd">
<svg width="100%" height="100%" viewBox="0 0 40 40" version="1.1" xmlns="http://www.w3.org/2000/svg" xmlns:xlink="http://www.w3.org/1999/xlink" xml:space="preserve" style="fill-rule:evenodd;clip-rule:evenodd;stroke-linejoin:round;stroke-miterlimit:2;">
    <g transform="matrix(1,0,0,1,-306,-232)">
        <g id="Artboard1" transform="matrix(1,0,0,1,306,232)">
            <rect x="0" y="0" width="40" height="40" style="fill:none;"/>
            <g transform="matrix(1,0,0,1,-306,-232)">
                <path d="M334.406,248.301C334.884,247.823 335.152,247.175 335.152,246.5C335.152,245.825 334.884,245.177 334.406,244.699C334.371,244.664 334.336,244.629 334.301,244.594C333.823,244.116 333.175,243.848 332.5,243.848C331.825,243.848 331.177,244.116 330.699,244.594C327.311,247.982 319.146,256.146 319.146,256.146C319.053,256.24 319,256.367 319,256.5L319,259.5C319,259.776 319.224,260 319.5,260L322.5,260C322.633,260 322.76,259.947 322.854,259.854L334.406,248.301ZM332,257L330.5,257C330.224,257 330,257.224 330,257.5C330,257.776 330.224,258 330.5,258L332,258L332,259.5C332,259.776 332.224,260 332.5,260C332.776,260 333,259.776 333,259.5L333,258L334.5,258C334.776,258 335,257.776 335,257.5C335,257.224 334.776,257 334.5,257L333,257L333,255.5C333,255.224 332.776,255 332.5,255C332.224,255 332,255.224 332,255.5L332,257ZM333.699,247.594L322.293,259C322.293,259 320,259 320,259C320,259 320,256.707 320,256.707C320,256.707 331.406,245.301 331.406,245.301C331.696,245.011 332.09,244.848 332.5,244.848C332.91,244.848 333.304,245.011 333.594,245.301C333.629,245.336 333.664,245.371 333.699,245.406C333.989,245.696 334.152,246.09 334.152,246.5C334.152,246.91 333.989,247.304 333.699,247.594ZM318,249L315.5,249C315.224,249 315,249.224 315,249.5C315,249.776 315.224,250 315.5,250L318,250L318,252.5C318,252.776 318.224,253 318.5,253C318.776,253 319,252.776 319,252.5L319,250L321.5,250C321.776,250 322,249.776 322,249.5C322,249.224 321.776,249 321.5,249L319,249L319,246.5C319,246.224 318.776,246 318.5,246C318.224,246 318,246.224 318,246.5L318,249ZM324,244L322.5,244C322.224,244 322,244.224 322,244.5C322,244.776 322.224,245 322.5,245L324,245L324,246.5C324,246.776 324.224,247 324.5,247C324.776,247 325,246.776 325,246.5L325,245L326.5,245C326.776,245 327,244.776 327,244.5C327,244.224 326.776,244 326.5,244L325,244L325,242.5C325,242.224 324.776,242 324.5,242C324.224,242 324,242.224 324,242.5L324,244Z"/>
            </g>
        </g>
    </g>
</svg>
