<?xml version="1.0" encoding="UTF-8" standalone="no"?>
<!DOCTYPE svg PUBLIC "-//W3C//DTD SVG 1.1//EN" "http://www.w3.org/Graphics/SVG/1.1/DTD/svg11.dtd">
<svg width="100%" height="100%" viewBox="0 0 40 40" version="1.1" xmlns="http://www.w3.org/2000/svg" xmlns:xlink="http://www.w3.org/1999/xlink" xml:space="preserve" style="fill-rule:evenodd;clip-rule:evenodd;stroke-linejoin:round;stroke-miterlimit:2;">
    <g transform="matrix(1,0,0,1,0,-231)">
        <g id="Artboard1" transform="matrix(1,0,0,1,0,231)">
            <rect x="0" y="0" width="40" height="40" style="fill:none;"/>
            <g transform="matrix(0.764706,0,0,0.906977,4.70588,19.0698)">
                <path d="M10.846,9.295C10.846,10.026 11.191,10.727 11.804,11.244C12.417,11.761 13.248,12.051 14.115,12.051C17.312,12.051 22.688,12.051 25.885,12.051C26.752,12.051 27.583,11.761 28.196,11.244C28.809,10.727 29.154,10.026 29.154,9.295C29.154,6.161 29.154,0.557 29.154,-1.61C29.154,-2.323 28.828,-3.009 28.244,-3.524L21.418,-9.547C21.048,-9.873 20.536,-10.058 20,-10.058C19.464,-10.058 18.952,-9.873 18.582,-9.547C16.871,-8.037 13.295,-4.881 11.756,-3.524C11.172,-3.009 10.846,-2.323 10.846,-1.61L10.846,9.295ZM12.154,9.295L12.154,-1.61C12.154,-2.039 12.35,-2.452 12.702,-2.762L19.527,-8.785C19.651,-8.894 19.821,-8.955 20,-8.955C20.179,-8.955 20.349,-8.894 20.473,-8.785L27.298,-2.763C27.65,-2.452 27.846,-2.039 27.846,-1.61C27.846,0.557 27.846,6.161 27.846,9.295C27.846,9.733 27.639,10.154 27.272,10.464C26.904,10.774 26.405,10.949 25.885,10.949C22.688,10.949 17.312,10.949 14.115,10.949C13.595,10.949 13.096,10.774 12.728,10.464C12.361,10.154 12.154,9.733 12.154,9.295Z"/>
            </g>
        </g>
    </g>
</svg>
