<?xml version="1.0" encoding="UTF-8" standalone="no"?>
<!DOCTYPE svg PUBLIC "-//W3C//DTD SVG 1.1//EN" "http://www.w3.org/Graphics/SVG/1.1/DTD/svg11.dtd">
<svg width="100%" height="100%" viewBox="0 0 40 40" version="1.1" xmlns="http://www.w3.org/2000/svg" xmlns:xlink="http://www.w3.org/1999/xlink" xml:space="preserve" style="fill-rule:evenodd;clip-rule:evenodd;stroke-linejoin:round;stroke-miterlimit:2;">
    <g transform="matrix(1,0,0,1,-182,-231)">
        <g id="Artboard1" transform="matrix(1,0,0,1,182,231)">
            <rect x="0" y="0" width="40" height="40" style="fill:none;"/>
            <g transform="matrix(1,0,0,1,-182,-231)">
                <path d="M194.707,251L202,251L202,258.293L199.854,256.146C199.658,255.951 199.342,255.951 199.146,256.146C198.951,256.342 198.951,256.658 199.146,256.854C199.146,256.854 201,258.707 201.793,259.5C201.98,259.687 202.235,259.793 202.5,259.793L202.5,259.793C202.765,259.793 203.02,259.687 203.207,259.5C204,258.707 205.854,256.854 205.854,256.854C206.049,256.658 206.049,256.342 205.854,256.146C205.658,255.951 205.342,255.951 205.146,256.146L203,258.293L203,251L210.293,251L208.146,253.146C207.951,253.342 207.951,253.658 208.146,253.854C208.342,254.049 208.658,254.049 208.854,253.854C208.854,253.854 210.707,252 211.5,251.207C211.687,251.02 211.793,250.765 211.793,250.5L211.793,250.5C211.793,250.235 211.687,249.98 211.5,249.793C210.707,249 208.854,247.146 208.854,247.146C208.658,246.951 208.342,246.951 208.146,247.146C207.951,247.342 207.951,247.658 208.146,247.854L210.293,250L203,250L203,242.707L205.146,244.854C205.342,245.049 205.658,245.049 205.854,244.854C206.049,244.658 206.049,244.342 205.854,244.146C205.854,244.146 204,242.293 203.207,241.5C203.02,241.313 202.765,241.207 202.5,241.207L202.5,241.207C202.235,241.207 201.98,241.313 201.793,241.5C201,242.293 199.146,244.146 199.146,244.146C198.951,244.342 198.951,244.658 199.146,244.854C199.342,245.049 199.658,245.049 199.854,244.854L202,242.707L202,250L194.707,250L196.854,247.854C197.049,247.658 197.049,247.342 196.854,247.146C196.658,246.951 196.342,246.951 196.146,247.146C196.146,247.146 194.293,249 193.5,249.793C193.313,249.98 193.207,250.235 193.207,250.5L193.207,250.5C193.207,250.765 193.313,251.02 193.5,251.207C194.293,252 196.146,253.854 196.146,253.854C196.342,254.049 196.658,254.049 196.854,253.854C197.049,253.658 197.049,253.342 196.854,253.146L194.707,251Z"/>
            </g>
        </g>
    </g>
</svg>
