<?xml version="1.0" encoding="UTF-8" standalone="no"?>
<!DOCTYPE svg PUBLIC "-//W3C//DTD SVG 1.1//EN" "http://www.w3.org/Graphics/SVG/1.1/DTD/svg11.dtd">
<svg width="100%" height="100%" viewBox="0 0 40 40" version="1.1" xmlns="http://www.w3.org/2000/svg" xmlns:xlink="http://www.w3.org/1999/xlink" xml:space="preserve" style="fill-rule:evenodd;clip-rule:evenodd;stroke-linejoin:round;stroke-miterlimit:2;">
    <g transform="matrix(1,0,0,1,-3695.16,-257.25)">
        <g id="Artboard1" transform="matrix(1,0,0,1,3695.16,257.25)">
            <rect x="0" y="0" width="40" height="40" style="fill:none;"/>
            <g transform="matrix(1,0,0,1,-3695.16,-257.25)">
                <path d="M3723.73,270.056C3723.25,268.926 3722.27,267.957 3720.97,267.282C3719.09,266.309 3716.53,265.943 3713.93,266.572C3712.03,267.03 3710.34,267.759 3708.89,268.643C3707.6,269.427 3706.14,270.81 3705.2,271.881C3704.23,272.973 3703.5,274.326 3703.1,275.702C3702.87,276.461 3702.3,279.1 3702.97,281.374C3703.61,283.574 3705.5,285.411 3706.41,286.019C3708.37,287.339 3710.06,288.138 3713.43,288.237C3714.33,288.264 3715.36,288.123 3716.32,287.796C3716.58,287.706 3716.72,287.422 3716.63,287.161C3716.54,286.9 3716.26,286.76 3716,286.849C3715.16,287.137 3714.25,287.261 3713.46,287.238C3710.35,287.146 3708.78,286.409 3706.96,285.189C3706.16,284.652 3704.5,283.033 3703.93,281.092C3703.33,279.044 3703.86,276.667 3704.06,275.984C3704.42,274.745 3705.08,273.526 3705.95,272.542C3706.83,271.536 3708.2,270.233 3709.41,269.498C3710.78,268.664 3712.37,267.976 3714.16,267.544C3716.51,266.977 3718.82,267.293 3720.51,268.17C3721.59,268.728 3722.41,269.511 3722.81,270.444C3722.91,270.699 3723.21,270.818 3723.46,270.711C3723.72,270.603 3723.83,270.31 3723.73,270.056ZM3721.91,273.172L3714.87,280.206C3714.21,280.865 3714.21,281.937 3714.87,282.597C3714.87,282.597 3717.77,285.493 3717.77,285.493C3718.43,286.153 3719.5,286.153 3720.16,285.493L3727.2,278.46C3727.86,277.8 3727.86,276.728 3727.2,276.068C3727.2,276.068 3724.3,273.172 3724.3,273.172C3723.64,272.513 3722.57,272.513 3721.91,273.172ZM3718.76,277.794L3722.57,281.608L3719.43,284.756C3719.17,285.01 3718.76,285.01 3718.51,284.756C3718.51,284.756 3715.61,281.86 3715.61,281.86C3715.36,281.607 3715.36,281.196 3715.61,280.942L3718.76,277.794Z"/>
            </g>
        </g>
    </g>
</svg>
