<?xml version="1.0" encoding="UTF-8" standalone="no"?>
<!DOCTYPE svg PUBLIC "-//W3C//DTD SVG 1.1//EN" "http://www.w3.org/Graphics/SVG/1.1/DTD/svg11.dtd">
<svg width="100%" height="100%" viewBox="0 0 40 40" version="1.1" xmlns="http://www.w3.org/2000/svg" xmlns:xlink="http://www.w3.org/1999/xlink" xml:space="preserve" style="fill-rule:evenodd;clip-rule:evenodd;stroke-linejoin:round;stroke-miterlimit:2;">
    <g transform="matrix(1,0,0,1,-249,-232)">
        <g id="Artboard1" transform="matrix(1,0,0,1,249,232)">
            <rect x="0" y="0" width="40" height="40" style="fill:none;"/>
            <g transform="matrix(0.505076,0.505076,-0.848528,0.848528,-100.915,-128.522)">
                <path d="M270.399,8.545C270.399,7.982 270.023,7.443 269.355,7.045C268.686,6.647 267.779,6.423 266.834,6.423C266.764,6.423 266.694,6.423 266.625,6.423C265.679,6.423 264.772,6.647 264.104,7.045C263.435,7.443 263.059,7.982 263.059,8.545C263.059,12.539 263.059,22.16 263.059,22.16C263.059,22.271 263.133,22.377 263.264,22.455L266.234,24.223C266.508,24.385 266.951,24.385 267.224,24.223L270.194,22.455C270.325,22.377 270.399,22.271 270.399,22.16L270.399,8.545ZM268.999,8.545L268.999,21.988C268.999,21.988 266.729,23.339 266.729,23.339C266.729,23.339 264.459,21.988 264.459,21.988C264.459,21.988 264.459,8.545 264.459,8.545C264.459,8.203 264.687,7.876 265.093,7.634C265.5,7.392 266.05,7.256 266.625,7.256C266.694,7.256 266.764,7.256 266.834,7.256C267.408,7.256 267.959,7.392 268.365,7.634C268.771,7.876 268.999,8.203 268.999,8.545Z"/>
            </g>
        </g>
    </g>
</svg>
