<?xml version="1.0" encoding="UTF-8" standalone="no"?>
<!DOCTYPE svg PUBLIC "-//W3C//DTD SVG 1.1//EN" "http://www.w3.org/Graphics/SVG/1.1/DTD/svg11.dtd">
<svg width="100%" height="100%" viewBox="0 0 40 40" version="1.1" xmlns="http://www.w3.org/2000/svg" xmlns:xlink="http://www.w3.org/1999/xlink" xml:space="preserve" style="fill-rule:evenodd;clip-rule:evenodd;stroke-linejoin:round;stroke-miterlimit:2;">
    <g transform="matrix(1,0,0,1,-2235.01,-409.981)">
        <g id="Artboard1" transform="matrix(1,0,0,1,2235.01,409.981)">
            <rect x="0" y="0" width="40" height="40" style="fill:none;"/>
            <g transform="matrix(1,0,0,1,-2235.01,-409.981)">
                <path d="M2257.43,420.987C2257.35,421 2257.28,421.032 2257.21,421.083C2257.19,421.099 2257.17,421.116 2257.15,421.134L2253.16,425.127C2252.96,425.322 2252.96,425.639 2253.16,425.834C2253.35,426.029 2253.67,426.029 2253.87,425.834L2257.61,422.089L2264.67,425.618L2250.65,439.637L2247.12,432.579L2250.87,428.834C2251.06,428.639 2251.06,428.322 2250.87,428.127C2250.67,427.932 2250.35,427.932 2250.16,428.127L2246.16,432.12C2246.15,432.138 2246.13,432.157 2246.11,432.177C2246.06,432.244 2246.03,432.321 2246.02,432.401C2246.01,432.48 2246.01,432.563 2246.04,432.643C2246.05,432.667 2246.06,432.691 2246.07,432.713L2250.06,440.696C2250.07,440.722 2250.09,440.748 2250.11,440.772L2250.11,440.774C2250.14,440.814 2250.17,440.849 2250.21,440.878C2250.28,440.929 2250.35,440.961 2250.43,440.974C2250.51,440.987 2250.59,440.981 2250.67,440.954C2250.72,440.938 2250.76,440.916 2250.8,440.887L2250.8,440.886C2250.83,440.868 2250.85,440.849 2250.87,440.828L2265.86,425.841C2265.88,425.821 2265.9,425.798 2265.92,425.774L2265.92,425.772C2265.95,425.732 2265.97,425.689 2265.98,425.643C2266.01,425.563 2266.02,425.48 2266.01,425.401C2265.99,425.321 2265.96,425.244 2265.91,425.177C2265.88,425.139 2265.85,425.105 2265.8,425.076L2265.8,425.074C2265.78,425.057 2265.75,425.042 2265.73,425.029L2257.74,421.038C2257.72,421.026 2257.7,421.016 2257.67,421.008C2257.59,420.98 2257.51,420.974 2257.43,420.987ZM2247.51,421.981L2247.49,421.981C2247.43,421.983 2247.38,421.996 2247.32,422.018L2247.32,422.019C2247.26,422.043 2247.2,422.079 2247.16,422.127C2247.11,422.175 2247.07,422.23 2247.05,422.289L2247.04,422.319L2247.03,422.353L2247.02,422.386L2247.01,422.417L2247.01,422.449L2247.01,422.481C2247.01,422.481 2247.01,426.481 2247.01,426.481C2247.01,426.757 2247.24,426.981 2247.51,426.981C2247.79,426.981 2248.01,426.757 2248.01,426.481L2248.01,423.688L2254.16,429.834C2254.35,430.029 2254.67,430.029 2254.87,429.834C2255.06,429.639 2255.06,429.322 2254.87,429.127L2248.72,422.981L2251.51,422.981C2251.79,422.981 2252.01,422.757 2252.01,422.481C2252.01,422.205 2251.79,421.981 2251.51,421.981L2247.51,421.981Z"/>
            </g>
        </g>
    </g>
</svg>
