<?xml version="1.0" encoding="UTF-8" standalone="no"?>
<!DOCTYPE svg PUBLIC "-//W3C//DTD SVG 1.1//EN" "http://www.w3.org/Graphics/SVG/1.1/DTD/svg11.dtd">
<svg width="100%" height="100%" viewBox="0 0 40 40" version="1.1" xmlns="http://www.w3.org/2000/svg"
  xmlns:xlink="http://www.w3.org/1999/xlink" xml:space="preserve"
  style="fill-rule:evenodd;clip-rule:evenodd;stroke-linejoin:round;stroke-miterlimit:2;">
    <g transform="matrix(5.55977e-17,0.907979,-0.637132,3.90131e-17,34.3584,1.56451)">
        <path d="M19.383,9.062C19.595,8.637 19.938,8.385 20.304,8.385C20.67,8.385 21.013,8.637 21.225,9.062C23.544,13.699 29.625,25.863 32.283,31.178C32.529,31.669 32.561,32.315 32.367,32.852C32.173,33.388 31.785,33.725 31.362,33.725C26.374,33.725 14.234,33.725 9.246,33.725C8.822,33.725 8.434,33.388 8.24,32.852C8.046,32.315 8.079,31.669 8.325,31.178C10.982,25.863 17.064,13.699 19.383,9.062Z"/>
    </g>
</svg>
