<?xml version="1.0" encoding="UTF-8" standalone="no"?>
<!DOCTYPE svg PUBLIC "-//W3C//DTD SVG 1.1//EN" "http://www.w3.org/Graphics/SVG/1.1/DTD/svg11.dtd">
<svg width="100%" height="100%" viewBox="0 0 71 71" version="1.1" xmlns="http://www.w3.org/2000/svg" xmlns:xlink="http://www.w3.org/1999/xlink" xml:space="preserve" style="fill-rule:evenodd;clip-rule:evenodd;stroke-linejoin:round;stroke-miterlimit:2;">
    <path d="M33.495,32.491L4.875,32.491C3.495,32.491 2.375,33.612 2.375,34.991C2.375,36.371 3.495,37.491 4.875,37.491L33.495,37.491L33.495,65.958C33.495,67.338 34.615,68.458 35.995,68.458C37.375,68.458 38.495,67.338 38.495,65.958L38.495,37.491L67,37.491C68.38,37.491 69.5,36.371 69.5,34.991C69.5,33.612 68.38,32.491 67,32.491L38.495,32.491L38.495,3.834C38.495,2.454 37.375,1.334 35.995,1.334C34.615,1.334 33.495,2.454 33.495,3.834L33.495,32.491Z"/>
</svg>
