<?xml version="1.0" encoding="UTF-8" standalone="no"?>
<!DOCTYPE svg PUBLIC "-//W3C//DTD SVG 1.1//EN" "http://www.w3.org/Graphics/SVG/1.1/DTD/svg11.dtd">
<svg width="100%" height="100%" viewBox="0 0 40 40" version="1.1" xmlns="http://www.w3.org/2000/svg" xmlns:xlink="http://www.w3.org/1999/xlink" xml:space="preserve" style="fill-rule:evenodd;clip-rule:evenodd;stroke-linejoin:round;stroke-miterlimit:2;">
    <g transform="matrix(1,0,0,1,-3234,-136.974)">
        <g id="Artboard1" transform="matrix(1,0,0,1,3234,136.974)">
            <rect x="0" y="0" width="40" height="40" style="fill:none;"/>
            <g transform="matrix(1,0,0,1,-3234,-136.974)">
                <path d="M3263.15,147.12L3244.15,166.12C3243.95,166.315 3243.95,166.632 3244.15,166.827C3244.34,167.022 3244.66,167.022 3244.85,166.827L3263.85,147.827C3264.05,147.632 3264.05,147.315 3263.85,147.12C3263.66,146.925 3263.34,146.925 3263.15,147.12ZM3265.5,162.974L3256.5,162.974C3256.22,162.974 3256,163.198 3256,163.474C3256,163.75 3256.22,163.974 3256.5,163.974L3265.5,163.974C3265.78,163.974 3266,163.75 3266,163.474C3266,163.198 3265.78,162.974 3265.5,162.974ZM3247,150.974L3247,155.474C3247,155.75 3247.22,155.974 3247.5,155.974C3247.78,155.974 3248,155.75 3248,155.474L3248,150.974C3248,150.974 3252.5,150.974 3252.5,150.974C3252.78,150.974 3253,150.75 3253,150.474C3253,150.198 3252.78,149.974 3252.5,149.974L3248,149.974L3248,145.474C3248,145.198 3247.78,144.974 3247.5,144.974C3247.22,144.974 3247,145.198 3247,145.474L3247,149.974C3247,149.974 3242.5,149.974 3242.5,149.974C3242.22,149.974 3242,150.198 3242,150.474C3242,150.75 3242.22,150.974 3242.5,150.974L3247,150.974Z"/>
            </g>
        </g>
    </g>
</svg>
