<?xml version="1.0" encoding="UTF-8" standalone="no"?>
<!DOCTYPE svg PUBLIC "-//W3C//DTD SVG 1.1//EN" "http://www.w3.org/Graphics/SVG/1.1/DTD/svg11.dtd">
<svg width="100%" height="100%" viewBox="0 0 40 40" version="1.1" xmlns="http://www.w3.org/2000/svg" xmlns:xlink="http://www.w3.org/1999/xlink" xml:space="preserve" style="fill-rule:evenodd;clip-rule:evenodd;stroke-linejoin:round;stroke-miterlimit:2;">
    <g transform="matrix(1,0,0,1,-3182,-137)">
        <g id="Artboard1" transform="matrix(1,0,0,1,3182,137)">
            <rect x="0" y="0" width="40" height="40" style="fill:none;"/>
            <g transform="matrix(1,0,0,1,-3182,-137)">
                <path d="M3213.14,145.146L3190.14,168.146C3189.95,168.342 3189.95,168.658 3190.14,168.854C3190.34,169.049 3190.66,169.049 3190.85,168.854L3213.85,145.854C3214.05,145.658 3214.05,145.342 3213.85,145.146C3213.66,144.951 3213.34,144.951 3213.14,145.146ZM3215.5,164L3203.5,164C3203.22,164 3203,164.224 3203,164.5C3203,164.776 3203.22,165 3203.5,165L3215.5,165C3215.77,165 3216,164.776 3216,164.5C3216,164.224 3215.77,164 3215.5,164ZM3194,150L3194,155.5C3194,155.776 3194.22,156 3194.5,156C3194.77,156 3195,155.776 3195,155.5L3195,150C3195,150 3200.5,150 3200.5,150C3200.77,150 3201,149.776 3201,149.5C3201,149.224 3200.77,149 3200.5,149L3195,149L3195,143.5C3195,143.224 3194.77,143 3194.5,143C3194.22,143 3194,143.224 3194,143.5L3194,149C3194,149 3188.5,149 3188.5,149C3188.22,149 3188,149.224 3188,149.5C3188,149.776 3188.22,150 3188.5,150L3194,150Z"/>
            </g>
        </g>
    </g>
</svg>
