<svg width="17" height="17" viewBox="0 0 17 17" fill="none" xmlns="http://www.w3.org/2000/svg">
<path d="M1.08105 0.25L3.19043 2.35938C1.54492 3.84863 0.5 5.98731 0.5 8.375C0.5 12.8574 4.14258 16.5 8.625 16.5C13.1074 16.5 16.75 12.8574 16.75 8.375C16.75 3.89258 13.1074 0.25 8.625 0.25H8V1.5H8.625C12.4287 1.5 15.5 4.57129 15.5 8.375C15.5 12.1787 12.4287 15.25 8.625 15.25C4.82129 15.25 1.75 12.1787 1.75 8.375C1.75 6.32422 2.65332 4.50293 4.07422 3.24316L5.5 4.66894V0.25H1.08105Z" fill="black"/>
</svg>
