<?xml version="1.0" encoding="UTF-8" standalone="no"?><!DOCTYPE svg PUBLIC "-//W3C//DTD SVG 1.1//EN" "http://www.w3.org/Graphics/SVG/1.1/DTD/svg11.dtd"><svg width="100%" height="100%" viewBox="0 0 71 71" version="1.1" xmlns="http://www.w3.org/2000/svg" xmlns:xlink="http://www.w3.org/1999/xlink" xml:space="preserve" style="fill-rule:evenodd;clip-rule:evenodd;stroke-linejoin:round;stroke-miterlimit:2;"><path d="M67.371,1.042l-8.789,8.789c6.856,6.205 11.21,15.116 11.21,25.065c-0,18.677 -15.178,33.854 -33.855,33.854c-18.676,0 -33.854,-15.177 -33.854,-33.854c0,-18.677 15.178,-33.854 33.855,-33.854l2.604,-0l-0,5.208l-2.605,-0c-15.848,-0 -28.645,12.797 -28.645,28.646c-0,15.849 12.797,28.646 28.645,28.646c15.849,-0 28.646,-12.797 28.646,-28.646c0,-8.545 -3.764,-16.134 -9.684,-21.383l-5.941,5.941l0,-18.412l18.413,-0Z" style="fill-rule:nonzero;"/></svg>