<?xml version="1.0" encoding="UTF-8" standalone="no"?>
<!DOCTYPE svg PUBLIC "-//W3C//DTD SVG 1.1//EN" "http://www.w3.org/Graphics/SVG/1.1/DTD/svg11.dtd">
<svg width="100%" height="100%" viewBox="0 0 40 40" version="1.1" xmlns="http://www.w3.org/2000/svg" xmlns:xlink="http://www.w3.org/1999/xlink" xml:space="preserve" style="fill-rule:evenodd;clip-rule:evenodd;stroke-linejoin:round;stroke-miterlimit:2;">
    <g transform="matrix(1,0,0,1,-3330.32,-136.974)">
        <g id="Artboard1" transform="matrix(1,0,0,1,3330.32,136.974)">
            <rect x="0" y="0" width="40" height="40" style="fill:none;"/>
            <g transform="matrix(1,0,0,1,-3330.32,-136.974)">
                <path d="M3362.52,150.883L3356.41,144.773C3355.57,143.935 3354.21,143.935 3353.37,144.773C3353.37,144.773 3338.12,160.029 3338.12,160.029C3337.28,160.866 3337.28,162.227 3338.12,163.065C3338.12,163.065 3344.23,169.174 3344.23,169.174C3345.06,170.012 3346.42,170.012 3347.26,169.174C3347.26,169.174 3362.52,153.919 3362.52,153.919C3363.36,153.081 3363.36,151.721 3362.52,150.883ZM3355.49,145.688L3361.6,151.798C3361.93,152.131 3361.93,152.671 3361.6,153.004C3361.6,153.004 3346.35,168.26 3346.35,168.26C3346.01,168.593 3345.47,168.593 3345.14,168.26C3345.14,168.26 3339.03,162.15 3339.03,162.15C3338.7,161.817 3338.7,161.276 3339.03,160.943C3339.03,160.943 3354.29,145.688 3354.29,145.688C3354.62,145.355 3355.16,145.355 3355.49,145.688ZM3342.54,161.089L3344.37,162.918C3344.62,163.171 3345.03,163.171 3345.29,162.918C3345.54,162.666 3345.54,162.256 3345.29,162.004L3343.46,160.175C3343.2,159.922 3342.79,159.922 3342.54,160.175C3342.29,160.427 3342.29,160.837 3342.54,161.089ZM3345.28,158.346L3348.94,162.004C3349.2,162.257 3349.61,162.257 3349.86,162.004C3350.11,161.752 3350.11,161.342 3349.86,161.09L3346.2,157.431C3345.95,157.179 3345.54,157.179 3345.28,157.431C3345.03,157.684 3345.03,158.094 3345.28,158.346ZM3348.03,155.602L3349.86,157.432C3350.11,157.684 3350.52,157.684 3350.77,157.432C3351.03,157.179 3351.03,156.77 3350.77,156.517L3348.94,154.688C3348.69,154.436 3348.28,154.436 3348.03,154.688C3347.78,154.94 3347.78,155.35 3348.03,155.602ZM3350.77,152.859L3354.43,156.517C3354.68,156.77 3355.09,156.77 3355.35,156.517C3355.6,156.265 3355.6,155.855 3355.35,155.603L3351.69,151.944C3351.43,151.692 3351.03,151.692 3350.77,151.944C3350.52,152.197 3350.52,152.607 3350.77,152.859ZM3353.52,150.116L3355.35,151.945C3355.6,152.197 3356.01,152.197 3356.26,151.945C3356.51,151.692 3356.51,151.283 3356.26,151.03L3354.43,149.201C3354.18,148.949 3353.77,148.949 3353.52,149.201C3353.26,149.454 3353.26,149.863 3353.52,150.116Z"/>
            </g>
        </g>
    </g>
</svg>
