<?xml version="1.0" encoding="UTF-8" standalone="no"?>
<!DOCTYPE svg PUBLIC "-//W3C//DTD SVG 1.1//EN" "http://www.w3.org/Graphics/SVG/1.1/DTD/svg11.dtd">
<svg width="100%" height="100%" viewBox="0 0 40 40" version="1.1" xmlns="http://www.w3.org/2000/svg" xmlns:xlink="http://www.w3.org/1999/xlink" xml:space="preserve" style="fill-rule:evenodd;clip-rule:evenodd;stroke-linejoin:round;stroke-miterlimit:2;">
    <g transform="matrix(1,0,0,1,-2146,-256)">
        <g id="Artboard1" transform="matrix(1,0,0,1,2146,256)">
            <rect x="0" y="0" width="40" height="40" style="fill:none;"/>
            <g transform="matrix(1,0,0,1,-2146,-256)">
                <path d="M2176.5,263.979L2161.85,263.979C2161.51,263.979 2161.17,264.094 2160.91,264.305L2154.57,269.3C2154.52,269.338 2154.47,269.38 2154.43,269.425C2154.14,269.71 2153.98,270.097 2153.98,270.5C2153.98,273.651 2153.98,283.349 2153.98,286.5C2153.98,286.903 2154.14,287.29 2154.43,287.575C2154.71,287.861 2155.1,288.021 2155.5,288.021C2158.65,288.021 2168.35,288.021 2171.5,288.021C2171.9,288.021 2172.29,287.861 2172.57,287.575C2172.62,287.536 2172.65,287.495 2172.69,287.452L2177.62,282.142C2177.88,281.861 2178.02,281.491 2178.02,281.107L2178.02,265.5C2178.02,264.66 2177.34,263.979 2176.5,263.979ZM2171.88,286.791C2171.94,286.708 2171.98,286.606 2171.98,286.5L2171.98,270.5C2171.98,270.373 2171.93,270.251 2171.84,270.161C2171.75,270.071 2171.63,270.021 2171.5,270.021L2155.5,270.021C2155.37,270.021 2155.25,270.071 2155.16,270.161C2155.07,270.251 2155.02,270.373 2155.02,270.5L2155.02,286.5C2155.02,286.627 2155.07,286.749 2155.16,286.839C2155.25,286.929 2155.37,286.979 2155.5,286.979L2171.5,286.979C2171.63,286.979 2171.75,286.929 2171.84,286.839C2171.85,286.825 2171.87,286.811 2171.88,286.797L2171.88,286.791ZM2176.98,265.757L2172.88,269.858C2172.97,270.057 2173.02,270.276 2173.02,270.5L2173.02,285.56L2176.85,281.433C2176.93,281.345 2176.98,281.228 2176.98,281.107L2176.98,265.757ZM2169.56,278.764C2169.87,278.455 2170.04,278.037 2170.04,277.601C2170.04,277.165 2169.87,276.746 2169.56,276.438C2169.56,276.437 2169.56,276.437 2169.56,276.437C2169.25,276.128 2168.83,275.955 2168.39,275.955C2167.96,275.955 2167.54,276.128 2167.23,276.437C2165.42,278.25 2161.13,282.534 2161.13,282.534C2161.03,282.632 2160.98,282.765 2160.98,282.903L2160.98,284.493C2160.98,284.781 2161.21,285.014 2161.5,285.014L2163.09,285.014C2163.23,285.014 2163.36,284.959 2163.46,284.862L2169.56,278.764ZM2168.82,278.027L2162.88,283.972C2162.88,283.972 2162.02,283.972 2162.02,283.972C2162.02,283.972 2162.02,283.118 2162.02,283.118C2162.02,283.118 2167.97,277.173 2167.97,277.173C2168.08,277.06 2168.23,276.997 2168.39,276.997C2168.55,276.997 2168.71,277.06 2168.82,277.173L2168.82,277.174C2168.93,277.287 2169,277.441 2169,277.601C2169,277.761 2168.93,277.914 2168.82,278.027ZM2158.98,276.955L2157,276.955C2156.71,276.955 2156.48,277.188 2156.48,277.476C2156.48,277.763 2156.71,277.997 2157,277.997L2158.98,277.997L2158.98,279.952C2158.98,280.239 2159.21,280.473 2159.5,280.473C2159.79,280.473 2160.02,280.239 2160.02,279.952L2160.02,277.997L2162,277.997C2162.29,277.997 2162.52,277.763 2162.52,277.476C2162.52,277.188 2162.29,276.955 2162,276.955L2160.02,276.955L2160.02,275C2160.02,274.713 2159.79,274.479 2159.5,274.479C2159.21,274.479 2158.98,274.713 2158.98,275L2158.98,276.955ZM2164.48,272.979L2163.5,272.979C2163.21,272.979 2162.98,273.213 2162.98,273.5C2162.98,273.787 2163.21,274.021 2163.5,274.021L2164.48,274.021L2164.48,275C2164.48,275.287 2164.71,275.521 2165,275.521C2165.29,275.521 2165.52,275.287 2165.52,275L2165.52,274.021L2166.5,274.021C2166.79,274.021 2167.02,273.787 2167.02,273.5C2167.02,273.213 2166.79,272.979 2166.5,272.979L2165.52,272.979L2165.52,272C2165.52,271.713 2165.29,271.479 2165,271.479C2164.71,271.479 2164.48,271.713 2164.48,272L2164.48,272.979ZM2176.24,265.021L2161.85,265.021C2161.74,265.021 2161.64,265.057 2161.55,265.124L2156.66,268.979L2171.5,268.979C2171.72,268.979 2171.94,269.029 2172.14,269.121L2176.24,265.021Z"/>
            </g>
        </g>
    </g>
</svg>
