<?xml version="1.0" encoding="UTF-8" standalone="no"?>
<!DOCTYPE svg PUBLIC "-//W3C//DTD SVG 1.1//EN" "http://www.w3.org/Graphics/SVG/1.1/DTD/svg11.dtd">
<svg width="100%" height="100%" viewBox="0 0 40 40" version="1.1" xmlns="http://www.w3.org/2000/svg" xmlns:xlink="http://www.w3.org/1999/xlink" xml:space="preserve" style="fill-rule:evenodd;clip-rule:evenodd;stroke-linejoin:round;stroke-miterlimit:2;">
    <g transform="matrix(1,0,0,1,-3643.14,-257.25)">
        <g id="Artboard1" transform="matrix(1,0,0,1,3643.14,257.25)">
            <rect x="0" y="0" width="40" height="40" style="fill:none;"/>
            <g transform="matrix(1,0,0,1,-3643.14,-257.25)">
                <path d="M3652.7,278.982L3664.87,266.811C3665.34,266.342 3665.98,266.078 3666.64,266.078C3667.3,266.078 3667.94,266.342 3668.41,266.811C3669.86,268.268 3672.12,270.525 3673.58,271.982C3674.05,272.451 3674.31,273.087 3674.31,273.75C3674.31,274.413 3674.05,275.049 3673.58,275.518L3661.41,287.689C3660.94,288.158 3660.3,288.422 3659.64,288.422C3658.98,288.422 3658.34,288.158 3657.87,287.689C3656.41,286.232 3654.16,283.975 3652.7,282.518C3652.23,282.049 3651.97,281.413 3651.97,280.75C3651.97,280.087 3652.23,279.451 3652.7,278.982ZM3659.14,273.957L3666.43,281.25L3660.7,286.982C3660.42,287.264 3660.04,287.422 3659.64,287.422C3659.24,287.422 3658.86,287.264 3658.58,286.982L3653.41,281.811C3653.13,281.529 3652.97,281.148 3652.97,280.75C3652.97,280.352 3653.13,279.971 3653.41,279.689L3659.14,273.957ZM3671.14,283.25L3669.64,283.25C3669.36,283.25 3669.14,283.474 3669.14,283.75C3669.14,284.026 3669.36,284.25 3669.64,284.25L3671.14,284.25L3671.14,285.75C3671.14,286.026 3671.36,286.25 3671.64,286.25C3671.92,286.25 3672.14,286.026 3672.14,285.75L3672.14,284.25L3673.64,284.25C3673.92,284.25 3674.14,284.026 3674.14,283.75C3674.14,283.474 3673.92,283.25 3673.64,283.25L3672.14,283.25L3672.14,281.75C3672.14,281.474 3671.92,281.25 3671.64,281.25C3671.36,281.25 3671.14,281.474 3671.14,281.75L3671.14,283.25ZM3652.14,271.25L3649.64,271.25C3649.36,271.25 3649.14,271.474 3649.14,271.75C3649.14,272.026 3649.36,272.25 3649.64,272.25L3652.14,272.25L3652.14,274.75C3652.14,275.026 3652.36,275.25 3652.64,275.25C3652.92,275.25 3653.14,275.026 3653.14,274.75L3653.14,272.25L3655.64,272.25C3655.92,272.25 3656.14,272.026 3656.14,271.75C3656.14,271.474 3655.92,271.25 3655.64,271.25L3653.14,271.25L3653.14,268.75C3653.14,268.474 3652.92,268.25 3652.64,268.25C3652.36,268.25 3652.14,268.474 3652.14,268.75L3652.14,271.25ZM3658.14,266.25L3656.64,266.25C3656.36,266.25 3656.14,266.474 3656.14,266.75C3656.14,267.026 3656.36,267.25 3656.64,267.25L3658.14,267.25L3658.14,268.75C3658.14,269.026 3658.36,269.25 3658.64,269.25C3658.92,269.25 3659.14,269.026 3659.14,268.75L3659.14,267.25L3660.64,267.25C3660.92,267.25 3661.14,267.026 3661.14,266.75C3661.14,266.474 3660.92,266.25 3660.64,266.25L3659.14,266.25L3659.14,264.75C3659.14,264.474 3658.92,264.25 3658.64,264.25C3658.36,264.25 3658.14,264.474 3658.14,264.75L3658.14,266.25Z"/>
            </g>
        </g>
    </g>
</svg>
