<?xml version="1.0" encoding="UTF-8" standalone="no"?>
<!DOCTYPE svg PUBLIC "-//W3C//DTD SVG 1.1//EN" "http://www.w3.org/Graphics/SVG/1.1/DTD/svg11.dtd">
<svg width="100%" height="100%" viewBox="0 0 40 40" version="1.1" xmlns="http://www.w3.org/2000/svg" xmlns:xlink="http://www.w3.org/1999/xlink" xml:space="preserve" style="fill-rule:evenodd;clip-rule:evenodd;stroke-linejoin:round;stroke-miterlimit:2;">
    <g transform="matrix(1,0,0,1,-2439,-273)">
        <g id="Artboard1" transform="matrix(1,0,0,1,2439,273)">
            <rect x="0" y="0" width="40" height="40" style="fill:none;"/>
            <g transform="matrix(1.16653,0,0,1.19176,8.33347,10.29)">
                <path d="M4.407,5.609C2.316,5.71 0.549,7.56 0.549,9.641C0.549,12.4 2.907,14.044 5.542,14.044L12.144,14.044C12.393,14.044 12.595,13.846 12.595,13.602C12.595,13.358 12.393,13.16 12.144,13.16L5.542,13.16C3.407,13.16 1.451,11.877 1.451,9.641C1.451,8.019 2.822,6.57 4.451,6.491C4.7,6.479 4.892,6.272 4.88,6.028C4.867,5.784 4.655,5.597 4.407,5.609Z"/>
            </g>
            <g transform="matrix(1.16653,0,0,1.16653,8.33347,10.4333)">
                <path d="M18.424,12.407C19.197,11.787 19.449,10.738 19.449,10.139C19.449,7.854 17.686,6.722 15.973,6.503C15.52,3.209 13.641,1.351 10.781,1.325C9.101,1.31 8.054,1.685 7.196,2.394C7.006,2.551 6.979,2.833 7.136,3.023C7.293,3.213 7.575,3.239 7.765,3.082C8.483,2.49 9.368,2.205 10.773,2.218C13.276,2.241 14.824,3.986 15.129,6.961C15.151,7.18 15.331,7.35 15.551,7.361C16.951,7.432 18.556,8.252 18.556,10.139C18.556,10.552 18.398,11.283 17.865,11.71C17.673,11.865 17.642,12.146 17.797,12.338C17.951,12.53 18.232,12.561 18.424,12.407Z"/>
            </g>
            <g transform="matrix(1.14899,-0.0175453,-0.0175453,1.14899,8.89289,10.9927)">
                <path d="M16.733,14.302L3.476,1.044C3.296,0.865 3.009,0.86 2.835,1.035C2.66,1.209 2.665,1.496 2.844,1.676L16.102,14.933C16.282,15.113 16.569,15.117 16.743,14.943C16.917,14.769 16.913,14.481 16.733,14.302Z"/>
            </g>
        </g>
    </g>
</svg>
