<?xml version="1.0" encoding="UTF-8" standalone="no"?>
<!DOCTYPE svg PUBLIC "-//W3C//DTD SVG 1.1//EN" "http://www.w3.org/Graphics/SVG/1.1/DTD/svg11.dtd">
<svg width="100%" height="100%" viewBox="0 0 40 40" version="1.1" xmlns="http://www.w3.org/2000/svg" xmlns:xlink="http://www.w3.org/1999/xlink" xml:space="preserve" style="fill-rule:evenodd;clip-rule:evenodd;stroke-linejoin:round;stroke-miterlimit:2;">
    <g transform="matrix(1,0,0,1,-3959.41,-306.5)">
        <g id="Artboard1" transform="matrix(1,0,0,1,3959.41,306.5)">
            <rect x="0" y="0" width="40" height="40" style="fill:none;"/>
            <g transform="matrix(0.825339,0,0,1.6,-3267.37,-499.9)">
                <path d="M3968.46,326.66L3973.44,322.088C3973.44,322.088 3975.86,323.699 3975.86,323.699C3975.97,323.772 3976.14,323.818 3976.31,323.825C3976.49,323.831 3976.67,323.798 3976.8,323.734L3980.21,322.029C3980.21,322.029 3982.5,324.158 3982.5,324.158C3982.56,324.215 3982.66,324.262 3982.77,324.291L3987.62,325.541C3987.64,325.548 3987.67,325.554 3987.7,325.559L3994.97,326.809C3995.3,326.866 3995.66,326.773 3995.77,326.603C3995.88,326.432 3995.7,326.248 3995.37,326.191L3988.14,324.948C3988.14,324.948 3983.51,323.754 3983.51,323.754C3983.51,323.754 3980.91,321.342 3980.91,321.342C3980.82,321.253 3980.65,321.193 3980.45,321.178C3980.26,321.163 3980.06,321.196 3979.92,321.266L3976.43,323.013C3976.43,323.013 3973.86,321.301 3973.86,321.301C3973.73,321.214 3973.52,321.167 3973.31,321.175C3973.1,321.183 3972.91,321.245 3972.81,321.34L3967.36,326.34C3967.19,326.497 3967.29,326.696 3967.6,326.784C3967.9,326.872 3968.29,326.816 3968.46,326.66Z" style="fill-opacity:0.45;"/>
            </g>
            <g transform="matrix(1,0,0,1,-3959.41,-306.5)">
                <path d="M3991.41,328.5L3967.41,328.5L3967.41,326.521C3967.41,326.233 3967.18,326 3966.91,326C3966.63,326 3966.41,326.233 3966.41,326.521L3966.41,331.479C3966.41,331.767 3966.63,332 3966.91,332C3967.18,332 3967.41,331.767 3967.41,331.479L3967.41,329.5L3991.41,329.5L3991.41,331.479C3991.41,331.767 3991.63,332 3991.91,332C3992.18,332 3992.41,331.767 3992.41,331.479L3992.41,326.521C3992.41,326.233 3992.18,326 3991.91,326C3991.63,326 3991.41,326.233 3991.41,326.521L3991.41,328.5Z"/>
            </g>
        </g>
    </g>
</svg>
