<svg width="24" height="24" viewBox="0 0 24 24" fill="none" xmlns="http://www.w3.org/2000/svg">
  <path fill-rule="evenodd" clip-rule="evenodd"
    d="M10.5855 3.5H13.4145C13.2084 2.91765 12.6526 2.5 12 2.5C11.3474 2.5 10.7916 2.91765 10.5855 3.5ZM14.4499 3.5C14.2181 2.35924 13.2089 1.5 12 1.5C10.7911 1.5 9.78186 2.35924 9.55007 3.5H6C5.72386 3.5 5.5 3.72386 5.5 4C5.5 4.27614 5.72386 4.5 6 4.5H18.3529C18.629 4.5 18.8529 4.27614 18.8529 4C18.8529 3.72386 18.629 3.5 18.3529 3.5H14.4499ZM5.5 6C5.5 5.72386 5.72386 5.5 6 5.5H18.0006C18.2768 5.5 18.5006 5.72386 18.5006 6H18.0006C18.5006 6 18.5006 6 18.5006 6V20.0002C18.5006 21.3805 17.3817 22.4993 16.0006 22.4993H8.00009C6.6213 22.4993 5.5 21.3808 5.5 20.0002V6ZM17.5006 6.5H6.5V20.0002C6.5 20.8276 7.17269 21.4993 8.00009 21.4993H16.0006C16.8296 21.4993 17.5006 20.8279 17.5006 20.0002V6.5ZM9 8.5C9.27614 8.5 9.5 8.72386 9.5 9V19C9.5 19.2761 9.27614 19.5 9 19.5C8.72386 19.5 8.5 19.2761 8.5 19V9C8.5 8.72386 8.72386 8.5 9 8.5ZM12 8.5C12.2761 8.5 12.5 8.72386 12.5 9V19C12.5 19.2761 12.2761 19.5 12 19.5C11.7239 19.5 11.5 19.2761 11.5 19V9C11.5 8.72386 11.7239 8.5 12 8.5ZM15 8.5C15.2761 8.5 15.5 8.72386 15.5 9V19C15.5 19.2761 15.2761 19.5 15 19.5C14.7239 19.5 14.5 19.2761 14.5 19V9C14.5 8.72386 14.7239 8.5 15 8.5Z"
  />
</svg>
