<?xml version="1.0" encoding="UTF-8" standalone="no"?>
<!DOCTYPE svg PUBLIC "-//W3C//DTD SVG 1.1//EN" "http://www.w3.org/Graphics/SVG/1.1/DTD/svg11.dtd">
<svg width="100%" height="100%" viewBox="0 0 40 40" version="1.1" xmlns="http://www.w3.org/2000/svg" xmlns:xlink="http://www.w3.org/1999/xlink" xml:space="preserve" style="fill-rule:evenodd;clip-rule:evenodd;stroke-linejoin:round;stroke-miterlimit:2;">
    <g transform="matrix(1,0,0,1,-555,-232)">
        <g id="Artboard1" transform="matrix(1,0,0,1,555,232)">
            <rect x="0" y="0" width="40" height="40" style="fill:none;"/>
            <g transform="matrix(1,0,0,1,-555,-232)">
                <path d="M581,245.5C581,245.224 580.776,245 580.5,245L568.5,245C568.224,245 568,245.224 568,245.5L568,259.5C568,260.881 569.119,262 570.5,262L578.5,262C579.881,262 581,260.881 581,259.5C581,255.208 581,245.5 581,245.5ZM580,246L580,259.5C580,260.328 579.328,261 578.5,261C578.5,261 570.5,261 570.5,261C569.672,261 569,260.328 569,259.5C569,259.5 569,246 569,246C569,246 580,246 580,246ZM574,248.5L574,258.5C574,258.776 574.224,259 574.5,259C574.776,259 575,258.776 575,258.5L575,248.5C575,248.224 574.776,248 574.5,248C574.224,248 574,248.224 574,248.5ZM577,248.5L577,258.5C577,258.776 577.224,259 577.5,259C577.776,259 578,258.776 578,258.5L578,248.5C578,248.224 577.776,248 577.5,248C577.224,248 577,248.224 577,248.5ZM571,248.5L571,258.5C571,258.776 571.224,259 571.5,259C571.776,259 572,258.776 572,258.5L572,248.5C572,248.224 571.776,248 571.5,248C571.224,248 571,248.224 571,248.5ZM572.05,243L568.324,243C568.048,243 567.824,243.224 567.824,243.5C567.824,243.776 568.048,244 568.324,244L580.676,244C580.952,244 581.176,243.776 581.176,243.5C581.176,243.224 580.952,243 580.676,243L576.95,243C576.718,241.859 575.709,241 574.5,241C573.291,241 572.282,241.859 572.05,243ZM575.915,243L573.085,243C573.292,242.418 573.847,242 574.5,242C575.153,242 575.708,242.418 575.915,243Z"/>
            </g>
        </g>
    </g>
</svg>
