<?xml version="1.0" encoding="UTF-8" standalone="no"?>
<!DOCTYPE svg PUBLIC "-//W3C//DTD SVG 1.1//EN" "http://www.w3.org/Graphics/SVG/1.1/DTD/svg11.dtd">
<svg width="100%" height="100%" viewBox="0 0 40 40" version="1.1" xmlns="http://www.w3.org/2000/svg" xmlns:xlink="http://www.w3.org/1999/xlink" xml:space="preserve" style="fill-rule:evenodd;clip-rule:evenodd;stroke-linejoin:round;stroke-miterlimit:2;">
    <g transform="matrix(1,0,0,1,-1205.74,-203.963)">
        <g id="Artboard1" transform="matrix(1,0,0,1,1205.74,203.963)">
            <rect x="0" y="0" width="40" height="40" style="fill:none;"/>
            <g transform="matrix(1,0,0,1,-1257,-203.963)">
                <path d="M1266.43,226.522L1265.43,223.784C1265.33,223.525 1265.05,223.391 1264.79,223.486C1264.53,223.58 1264.39,223.868 1264.49,224.127L1265.91,228.033C1265.94,228.106 1265.98,228.169 1266.04,228.22C1266.09,228.271 1266.15,228.312 1266.23,228.336C1266.28,228.353 1266.33,228.361 1266.38,228.362L1266.4,228.361C1266.43,228.36 1266.45,228.357 1266.48,228.352L1266.51,228.346L1266.53,228.339L1266.55,228.331C1266.55,228.331 1270.46,226.906 1270.46,226.906C1270.72,226.811 1270.85,226.524 1270.76,226.265C1270.66,226.006 1270.38,225.872 1270.12,225.966L1267.31,226.992C1268.34,224.953 1271.31,220.583 1277.82,220.565C1284.93,220.546 1287.85,225.868 1288.59,227.544C1288.7,227.796 1288.99,227.911 1289.25,227.799C1289.5,227.688 1289.61,227.392 1289.5,227.14C1288.7,225.321 1285.54,219.544 1277.82,219.565C1270.8,219.584 1267.57,224.269 1266.43,226.522Z"/>
            </g>
        </g>
    </g>
</svg>
