<svg width="34" height="22" viewBox="0 0 34 22" fill="none" xmlns="http://www.w3.org/2000/svg">
<path d="M19.188 5.39435C19.3607 5.56696 19.3607 5.8468 19.188 6.01941C19.0154 6.19202 18.7356 6.19202 18.563 6.01941L17.0025 4.45892L15.4381 6.02325C15.2655 6.19586 14.9857 6.19586 14.813 6.02325C14.6404 5.85065 14.6404 5.5708 14.813 5.39819L16.6619 3.54938C16.6703 3.53931 16.6793 3.52954 16.6887 3.52008C16.8613 3.34747 17.1411 3.34747 17.3138 3.52008L19.188 5.39435Z" />
<path fill-rule="evenodd" clip-rule="evenodd" d="M12 6.99976V3C12 1.34314 13.3431 0 15 0H18.9998C20.6567 0 21.9998 1.34314 21.9998 3V6.99976C21.9998 8.65656 20.6567 9.99976 18.9998 9.99976H15C13.3431 9.99976 12 8.65656 12 6.99976ZM15 1C13.8954 1 13 1.89545 13 3V6.99976C13 8.10431 13.8954 8.99976 15 8.99976H18.9998C20.1044 8.99976 20.9998 8.10431 20.9998 6.99976V3C20.9998 1.89545 20.1044 1 18.9998 1H15Z" />
<path d="M6.01355 14.813C5.84094 14.6404 5.5611 14.6404 5.38852 14.813L3.51422 16.6873C3.34161 16.8599 3.34161 17.1398 3.51422 17.3124C3.51859 17.3167 3.52301 17.321 3.5275 17.3251L5.39041 19.188C5.56302 19.3607 5.84286 19.3607 6.01547 19.188C6.18805 19.0154 6.18805 18.7356 6.01547 18.563L4.45206 16.9996L6.01355 15.4381C6.18616 15.2655 6.18616 14.9857 6.01355 14.813Z" fill-opacity="0.2"/>
<path fill-rule="evenodd" clip-rule="evenodd" d="M0 15V18.9998C0 20.6566 1.34314 21.9998 3 21.9998H6.99982C8.65668 21.9998 9.99982 20.6566 9.99982 18.9998V15C9.99982 13.3431 8.65668 12 6.99982 12H3C1.34314 12 0 13.3431 0 15ZM1 15C1 13.8954 1.89542 13 3 13H6.99982C8.1044 13 8.99982 13.8954 8.99982 15V18.9998C8.99982 20.1043 8.1044 20.9998 6.99982 20.9998H3C1.89542 20.9998 1 20.1043 1 18.9998V15Z" fill-opacity="0.2"/>
<path d="M18.563 15.8834C18.7356 15.7108 19.0154 15.7108 19.188 15.8834C19.3607 16.056 19.3607 16.3358 19.188 16.5084L17.3392 18.3572C17.3308 18.3673 17.3218 18.3771 17.3124 18.3865C17.1398 18.5591 16.8599 18.5591 16.6873 18.3865L14.813 16.5123C14.6404 16.3397 14.6404 16.0598 14.813 15.8872C14.9857 15.7146 15.2655 15.7146 15.4381 15.8872L16.9986 17.4478L18.563 15.8834Z" fill-opacity="0.2"/>
<path fill-rule="evenodd" clip-rule="evenodd" d="M12 18.9998V15C12 13.3431 13.3431 12 15 12H18.9998C20.6567 12 21.9998 13.3431 21.9998 15V18.9998C21.9998 20.6566 20.6567 21.9998 18.9998 21.9998H15C13.3431 21.9998 12 20.6566 12 18.9998ZM15 13C13.8954 13 13 13.8954 13 15V18.9998C13 20.1043 13.8954 20.9998 15 20.9998H18.9998C20.1044 20.9998 20.9998 20.1043 20.9998 18.9998V15C20.9998 13.8954 20.1044 13 18.9998 13H15Z" fill-opacity="0.2"/>
<path d="M27.9849 15.4381C27.8123 15.2655 27.8123 14.9857 27.9849 14.813C28.1575 14.6404 28.4374 14.6404 28.61 14.813L30.4729 16.676C30.4774 16.6801 30.4818 16.6843 30.4862 16.6887C30.6588 16.8613 30.6588 17.1412 30.4862 17.3138L28.6119 19.188C28.4393 19.3607 28.1594 19.3607 27.9868 19.188C27.8142 19.0154 27.8142 18.7356 27.9868 18.563L29.5483 17.0015L27.9849 15.4381Z" fill-opacity="0.2"/>
<path fill-rule="evenodd" clip-rule="evenodd" d="M24 18.9998V15C24 13.3431 25.3431 12 27 12H30.9998C32.6567 12 33.9998 13.3431 33.9998 15V18.9998C33.9998 20.6566 32.6567 21.9998 30.9998 21.9998H27C25.3431 21.9998 24 20.6566 24 18.9998ZM27 13C25.8954 13 25 13.8954 25 15V18.9998C25 20.1043 25.8954 20.9998 27 20.9998H30.9998C32.1044 20.9998 32.9998 20.1043 32.9998 18.9998V15C32.9998 13.8954 32.1044 13 30.9998 13H27Z" fill-opacity="0.2"/>
</svg>
