<?xml version="1.0" encoding="UTF-8" standalone="no"?>
<!DOCTYPE svg PUBLIC "-//W3C//DTD SVG 1.1//EN" "http://www.w3.org/Graphics/SVG/1.1/DTD/svg11.dtd">
<svg width="100%" height="100%" viewBox="0 0 23 23" version="1.1" xmlns="http://www.w3.org/2000/svg"
  xmlns:xlink="http://www.w3.org/1999/xlink" xml:space="preserve"
  style="fill-rule:evenodd;clip-rule:evenodd;stroke-linejoin:round;stroke-miterlimit:2;">
    <g transform="matrix(-1,1.22465e-16,-1.22465e-16,-1,1760.5,356.852)">
        <g>
            <g>
                <path d="M1749,333.852C1755.35,333.852 1760.5,339.005 1760.5,345.352C1760.5,351.699 1755.35,356.852 1749,356.852C1742.65,356.852 1737.5,351.699 1737.5,345.352C1737.5,339.005 1742.65,333.852 1749,333.852ZM1749,334.894C1754.77,334.894 1759.46,339.58 1759.46,345.352C1759.46,351.124 1754.77,355.811 1749,355.811C1743.23,355.811 1738.54,351.124 1738.54,345.352C1738.54,339.58 1743.23,334.894 1749,334.894ZM1748.38,342.852L1748.38,350.852C1748.38,351.197 1748.65,351.477 1749,351.477C1749.35,351.477 1749.62,351.197 1749.62,350.852L1749.62,342.852C1749.62,342.507 1749.35,342.227 1749,342.227C1748.65,342.227 1748.38,342.507 1748.38,342.852ZM1747.99,339.941C1747.99,339.38 1748.44,338.926 1749,338.926C1749.56,338.926 1750.02,339.38 1750.02,339.941C1750.02,340.501 1749.56,340.955 1749,340.955C1748.44,340.955 1747.99,340.501 1747.99,339.941Z"/>
            </g>
        </g>
    </g>
</svg>
