<?xml version="1.0" encoding="UTF-8" standalone="no"?>
<!DOCTYPE svg PUBLIC "-//W3C//DTD SVG 1.1//EN" "http://www.w3.org/Graphics/SVG/1.1/DTD/svg11.dtd">
<svg width="100%" height="100%" viewBox="0 0 40 40" version="1.1" xmlns="http://www.w3.org/2000/svg" xmlns:xlink="http://www.w3.org/1999/xlink" xml:space="preserve" style="fill-rule:evenodd;clip-rule:evenodd;stroke-linejoin:round;stroke-miterlimit:2;">
    <g transform="matrix(1,0,0,1,-3116,-137)">
        <g id="Artboard1" transform="matrix(1,0,0,1,3116,137)">
            <rect x="0" y="0" width="40" height="40" style="fill:none;"/>
            <g transform="matrix(1.09091,0,0,1.09091,8.0001,8)">
                <path d="M5.65,7.856C5.921,7.395 6.25,6.97 6.631,6.589L3.402,3.045C2.589,3.821 1.893,4.722 1.344,5.718L5.65,7.856Z" style="fill-rule:nonzero;"/>
            </g>
            <g transform="matrix(1.09091,0,0,1.09091,8.0001,8)">
                <path d="M13.578,5.355C14.069,5.582 14.523,5.867 14.933,6.204L18.177,2.667C17.32,1.928 16.354,1.32 15.299,0.873L13.578,5.355Z" style="fill-rule:nonzero;"/>
            </g>
            <g transform="matrix(1.09091,0,0,1.09091,8.0001,8)">
                <path d="M21.002,6.422L16.703,8.567C16.908,9.044 17.054,9.549 17.135,10.083L21.917,9.63C21.77,8.502 21.463,7.418 21.002,6.422" style="fill-rule:nonzero;"/>
            </g>
            <g transform="matrix(1.09091,0,0,1.09091,8.0001,8)">
                <path d="M16.393,7.946L20.692,5.8C20.157,4.812 19.476,3.918 18.686,3.135L15.441,6.672C15.807,7.053 16.13,7.477 16.393,7.946Z" style="fill-rule:nonzero;"/>
            </g>
            <g transform="matrix(1.09091,0,0,1.09091,8.0001,8)">
                <path d="M4.798,11.001C4.798,10.905 4.798,10.803 4.803,10.708L0.021,10.283C0.005,10.518 0,10.759 0,11.001C0,11.916 0.11,12.81 0.322,13.659L4.943,12.334C4.848,11.902 4.797,11.455 4.797,11.001" style="fill-rule:nonzero;"/>
            </g>
            <g transform="matrix(1.09091,0,0,1.09091,8.0001,8)">
                <path d="M15.801,14.924C15.464,15.342 15.069,15.707 14.637,16.022L17.156,20.108C18.093,19.479 18.928,18.703 19.631,17.816L15.801,14.924Z" style="fill-rule:nonzero;"/>
            </g>
            <g transform="matrix(1.09091,0,0,1.09091,8.0001,8)">
                <path d="M17.202,10.997C17.202,11.444 17.149,11.891 17.063,12.316L21.676,13.641C21.889,12.791 21.998,11.906 21.998,10.997C21.998,10.771 21.993,10.544 21.977,10.316L17.195,10.77C17.2,10.844 17.2,10.917 17.2,10.997" style="fill-rule:nonzero;"/>
            </g>
            <g transform="matrix(1.09091,0,0,1.09091,8.0001,8)">
                <path d="M6.28,15.018L2.457,17.925C3.167,18.796 4.01,19.558 4.954,20.18L7.473,16.101C7.034,15.794 6.631,15.428 6.28,15.018Z" style="fill-rule:nonzero;"/>
            </g>
            <g transform="matrix(1.09091,0,0,1.09091,8.0001,8)">
                <path d="M4.879,10.017C4.96,9.476 5.121,8.963 5.333,8.48L1.042,6.334C0.566,7.345 0.236,8.443 0.09,9.585L4.879,10.017Z" style="fill-rule:nonzero;"/>
            </g>
            <g transform="matrix(1.09091,0,0,1.09091,8.0001,8)">
                <path d="M16.565,20.479L14.046,16.393C13.585,16.656 13.094,16.854 12.574,16.993L13.46,21.716C14.566,21.46 15.613,21.035 16.565,20.479Z" style="fill-rule:nonzero;"/>
            </g>
            <g transform="matrix(1.09091,0,0,1.09091,8.0001,8)">
                <path d="M16.874,12.982C16.713,13.473 16.485,13.934 16.207,14.366L20.037,17.259C20.659,16.366 21.157,15.37 21.487,14.308L16.874,12.982Z" style="fill-rule:nonzero;"/>
            </g>
            <g transform="matrix(1.09091,0,0,1.09091,8.0001,8)">
                <path d="M11.891,17.137C11.598,17.179 11.298,17.203 10.998,17.203C10.749,17.203 10.515,17.187 10.273,17.16L9.387,21.884C9.914,21.957 10.449,22 10.998,22C11.606,22 12.199,21.947 12.777,21.854L11.891,17.137Z" style="fill-rule:nonzero;"/>
            </g>
            <g transform="matrix(1.09091,0,0,1.09091,8.0001,8)">
                <path d="M11.395,4.804C11.929,4.841 12.442,4.943 12.932,5.104L14.653,0.622C13.628,0.256 12.537,0.044 11.395,0L11.395,4.804Z" style="fill-rule:nonzero;"/>
            </g>
            <g transform="matrix(1.09091,0,0,1.09091,8.0001,8)">
                <path d="M9.593,17.038C9.058,16.913 8.545,16.715 8.069,16.459L5.543,20.545C6.517,21.102 7.579,21.512 8.707,21.754L9.593,17.038Z" style="fill-rule:nonzero;"/>
            </g>
            <g transform="matrix(1.09091,0,0,1.09091,8.0001,8)">
                <path d="M9.134,5.082C9.639,4.921 10.159,4.826 10.701,4.804L10.701,0C9.551,0.032 8.438,0.242 7.398,0.601L9.134,5.082Z" style="fill-rule:nonzero;"/>
            </g>
            <g transform="matrix(1.09091,0,0,1.09091,8.0001,8)">
                <path d="M5.858,14.463C5.557,14.016 5.308,13.525 5.125,12.998L0.512,14.323C0.864,15.422 1.383,16.447 2.035,17.37L5.858,14.463Z" style="fill-rule:nonzero;"/>
            </g>
            <g transform="matrix(1.09091,0,0,1.09091,8.0001,8)">
                <path d="M7.151,6.126C7.561,5.811 8,5.54 8.484,5.32L6.748,0.846C5.716,1.278 4.764,1.871 3.914,2.581L7.151,6.126Z" style="fill-rule:nonzero;"/>
            </g>
        </g>
    </g>
</svg>
