<?xml version="1.0" encoding="UTF-8" standalone="no"?>
<!DOCTYPE svg PUBLIC "-//W3C//DTD SVG 1.1//EN" "http://www.w3.org/Graphics/SVG/1.1/DTD/svg11.dtd">
<svg width="100%" height="100%" viewBox="0 0 40 40" version="1.1" xmlns="http://www.w3.org/2000/svg" xmlns:xlink="http://www.w3.org/1999/xlink" xml:space="preserve" style="fill-rule:evenodd;clip-rule:evenodd;stroke-linejoin:round;stroke-miterlimit:2;">
    <g transform="matrix(1,0,0,1,-798,-257.25)">
        <g id="Artboard1" transform="matrix(1,0,0,1,798,257.25)">
            <rect x="0" y="0" width="40" height="40" style="fill:none;"/>
            <g transform="matrix(1,0,0,1,-798,-258.25)">
                <path d="M812.915,276L807.835,274.222C807.634,274.152 807.5,273.962 807.5,273.75C807.5,273.538 807.634,273.348 807.835,273.278L817.835,269.778C817.942,269.741 818.058,269.741 818.165,269.778L828.165,273.278C828.366,273.348 828.5,273.538 828.5,273.75C828.5,273.962 828.366,274.152 828.165,274.222L823.085,276L828.165,277.778C828.366,277.848 828.5,278.038 828.5,278.25C828.5,278.462 828.366,278.652 828.165,278.722L823.085,280.5L828.165,282.278C828.366,282.348 828.5,282.538 828.5,282.75C828.5,282.962 828.366,283.152 828.165,283.222L818.165,286.722C818.058,286.759 817.942,286.759 817.835,286.722L807.835,283.222C807.634,283.152 807.5,282.962 807.5,282.75C807.5,282.538 807.634,282.348 807.835,282.278L812.915,280.5L807.835,278.722C807.634,278.652 807.5,278.462 807.5,278.25C807.5,278.038 807.634,277.848 807.835,277.778L812.915,276ZM814.429,281.03L817.835,282.222C817.942,282.259 818.058,282.259 818.165,282.222L821.571,281.03L826.486,282.75L818,285.72C818,285.72 809.514,282.75 809.514,282.75L814.429,281.03ZM814.429,276.53L809.514,278.25C809.514,278.25 818,281.22 818,281.22L826.486,278.25L821.571,276.53L818.165,277.722C818.058,277.759 817.942,277.759 817.835,277.722L814.429,276.53ZM826.486,273.75L818,276.72C818,276.72 809.514,273.75 809.514,273.75C809.514,273.75 818,270.78 818,270.78L826.486,273.75Z"/>
            </g>
        </g>
    </g>
</svg>
