<?xml version="1.0" encoding="UTF-8" standalone="no"?>
<!DOCTYPE svg PUBLIC "-//W3C//DTD SVG 1.1//EN" "http://www.w3.org/Graphics/SVG/1.1/DTD/svg11.dtd">
<svg width="100%" height="100%" viewBox="0 0 40 40" version="1.1" xmlns="http://www.w3.org/2000/svg" xmlns:xlink="http://www.w3.org/1999/xlink" xml:space="preserve" style="fill-rule:evenodd;clip-rule:evenodd;stroke-linejoin:round;stroke-miterlimit:2;">
    <g transform="matrix(1,0,0,1,-2553,-273)">
        <g id="Artboard1" transform="matrix(1,0,0,1,2553,273)">
            <rect x="0" y="0" width="40" height="40" style="fill:none;"/>
            <g transform="matrix(1,0,0,1,-2553,-273)">
                <path d="M2563.5,301.021C2564.34,301.021 2565.02,300.34 2565.02,299.5C2565.02,298.66 2564.34,297.979 2563.5,297.979C2562.66,297.979 2561.98,298.66 2561.98,299.5C2561.98,300.34 2562.66,301.021 2563.5,301.021ZM2567.5,300.038L2583.5,300.038C2583.8,300.038 2584.04,299.797 2584.04,299.5C2584.04,299.203 2583.8,298.962 2583.5,298.962L2567.5,298.962C2567.2,298.962 2566.96,299.203 2566.96,299.5C2566.96,299.797 2567.2,300.038 2567.5,300.038ZM2563.5,294.521C2564.34,294.521 2565.02,293.84 2565.02,293C2565.02,292.16 2564.34,291.479 2563.5,291.479C2562.66,291.479 2561.98,292.16 2561.98,293C2561.98,293.84 2562.66,294.521 2563.5,294.521ZM2567.5,293.538L2583.5,293.538C2583.8,293.538 2584.04,293.297 2584.04,293C2584.04,292.703 2583.8,292.462 2583.5,292.462L2567.5,292.462C2567.2,292.462 2566.96,292.703 2566.96,293C2566.96,293.297 2567.2,293.538 2567.5,293.538ZM2563.5,288.021C2564.34,288.021 2565.02,287.34 2565.02,286.5C2565.02,285.66 2564.34,284.979 2563.5,284.979C2562.66,284.979 2561.98,285.66 2561.98,286.5C2561.98,287.34 2562.66,288.021 2563.5,288.021ZM2567.5,287.038L2583.5,287.038C2583.8,287.038 2584.04,286.797 2584.04,286.5C2584.04,286.203 2583.8,285.962 2583.5,285.962L2567.5,285.962C2567.2,285.962 2566.96,286.203 2566.96,286.5C2566.96,286.797 2567.2,287.038 2567.5,287.038Z"/>
            </g>
        </g>
    </g>
</svg>
