<?xml version="1.0" encoding="UTF-8" standalone="no"?>
<!DOCTYPE svg PUBLIC "-//W3C//DTD SVG 1.1//EN" "http://www.w3.org/Graphics/SVG/1.1/DTD/svg11.dtd">
<svg width="100%" height="100%" viewBox="0 0 40 40" version="1.1" xmlns="http://www.w3.org/2000/svg" xmlns:xlink="http://www.w3.org/1999/xlink" xml:space="preserve" style="fill-rule:evenodd;clip-rule:evenodd;stroke-linejoin:round;stroke-miterlimit:2;">
    <path d="M28.136,17.179C28.743,15.593 28.29,14.123 27.171,13.015C25.61,11.467 22.68,10.646 19.673,11.372C19.673,11.372 19.673,11.372 19.673,11.372C18.048,11.765 16.598,12.39 15.353,13.147C15.352,13.147 15.352,13.147 15.352,13.147C14.247,13.819 12.997,15.005 12.188,15.923C11.361,16.863 10.731,18.027 10.383,19.21C10.191,19.863 9.697,22.134 10.272,24.09C10.272,24.09 10.272,24.09 10.272,24.09C10.829,25.985 12.454,27.568 13.234,28.092C14.922,29.225 16.374,29.912 19.263,29.996C21.064,30.049 23.419,29.304 24.327,27.661C24.461,27.419 24.373,27.114 24.131,26.981C23.89,26.847 23.585,26.935 23.451,27.177C22.712,28.515 20.758,29.04 19.292,28.996C19.292,28.996 19.292,28.996 19.292,28.996C16.657,28.92 15.332,28.295 13.792,27.261C13.792,27.261 13.792,27.261 13.792,27.261C13.118,26.809 11.713,25.444 11.232,23.808C10.723,22.078 11.173,20.07 11.343,19.492C11.343,19.492 11.343,19.492 11.343,19.492C11.651,18.446 12.207,17.416 12.939,16.584C13.69,15.732 14.846,14.626 15.872,14.001C17.036,13.294 18.39,12.711 19.908,12.344C22.534,11.71 25.103,12.374 26.467,13.726C27.299,14.55 27.653,15.641 27.201,16.821C27.103,17.079 27.232,17.368 27.49,17.467C27.747,17.566 28.037,17.437 28.136,17.179ZM25,21.5L23,21.5C22.724,21.5 22.5,21.724 22.5,22C22.5,22.276 22.724,22.5 23,22.5L25,22.5L25,24.5C25,24.776 25.224,25 25.5,25C25.776,25 26,24.776 26,24.5L26,22.5L28,22.5C28.276,22.5 28.5,22.276 28.5,22C28.5,21.724 28.276,21.5 28,21.5L26,21.5L26,19.5C26,19.224 25.776,19 25.5,19C25.224,19 25,19.224 25,19.5L25,21.5Z"/>
</svg>
