<?xml version="1.0" encoding="UTF-8" standalone="no"?>
<!DOCTYPE svg PUBLIC "-//W3C//DTD SVG 1.1//EN" "http://www.w3.org/Graphics/SVG/1.1/DTD/svg11.dtd">
<svg width="100%" height="100%" viewBox="0 0 40 40" version="1.1" xmlns="http://www.w3.org/2000/svg" xmlns:xlink="http://www.w3.org/1999/xlink" xml:space="preserve" style="fill-rule:evenodd;clip-rule:evenodd;stroke-linejoin:round;stroke-miterlimit:2;">
    <g transform="matrix(1,0,0,1,-1263.78,-203.963)">
        <g id="Artboard1" transform="matrix(1,0,0,1,1263.78,203.963)">
            <rect x="0" y="0" width="40" height="40" style="fill:none;"/>
            <g transform="matrix(1,0,0,1,-1200,-203.963)">
                <path d="M1229.69,226.992L1226.88,225.966C1226.62,225.872 1226.34,226.006 1226.24,226.265C1226.15,226.524 1226.28,226.811 1226.54,226.906L1230.45,228.331L1230.46,228.335C1230.51,228.351 1230.55,228.36 1230.6,228.361L1230.62,228.362C1230.67,228.361 1230.72,228.353 1230.77,228.336C1230.85,228.312 1230.91,228.271 1230.96,228.22L1230.98,228.207L1230.99,228.193L1231.01,228.174L1231.02,228.155L1231.04,228.134L1231.05,228.113L1231.06,228.091L1231.07,228.068L1231.08,228.045L1231.09,228.033C1231.09,228.033 1232.51,224.127 1232.51,224.127C1232.61,223.868 1232.47,223.58 1232.21,223.486C1231.95,223.391 1231.67,223.525 1231.57,223.784L1230.57,226.522C1229.43,224.269 1226.2,219.584 1219.18,219.565C1211.46,219.544 1208.3,225.321 1207.5,227.14C1207.39,227.392 1207.5,227.688 1207.76,227.799C1208.01,227.911 1208.3,227.796 1208.41,227.544C1209.15,225.868 1212.07,220.546 1219.18,220.565C1225.69,220.583 1228.66,224.953 1229.69,226.992Z"/>
            </g>
        </g>
    </g>
</svg>
