<svg width="17" height="22" viewBox="0 0 17 22" fill="none" xmlns="http://www.w3.org/2000/svg">
<path d="M8.5 0C13.1962 -4.10539e-07 17 3.59143 17 8.02553V13.9729C17 18.4071 13.1962 21.9985 8.5 21.9985C3.80375 21.9985 0 18.4071 0 13.9729V8.02554C0 3.59143 3.80375 4.10597e-07 8.5 0Z" fill-opacity="0.2"/>
<path d="M15.9969 8C16.5504 8 17.0054 7.54802 16.9315 6.99951C16.4643 3.53232 13.6563 0.757545 10.0494 0.130948C9.48408 0.0327471 9 0.494169 9 1.06792V7C9 7.55228 9.44771 8 10 8H15.9969Z" fill-opacity="0.8"/>
</svg>
