<?xml version="1.0" encoding="UTF-8"?>
<svg width="24px" height="24px" viewBox="0 0 24 24" version="1.1" xmlns="http://www.w3.org/2000/svg" xmlns:xlink="http://www.w3.org/1999/xlink">
    <!-- Generator: Sketch 62 (91390) - https://sketch.com -->
    <title>Settings</title>
    <desc>Created with Sketch.</desc>
    <g id="Page-1" stroke="none" stroke-width="1" fill="none" fill-rule="evenodd">
        <g id="Workspace---Scan-List" transform="translate(-238.000000, -339.000000)" fill="#FFFFFF" fill-rule="nonzero">
            <path d="M248.14125,339 C247.158,339 246.36,339.798 246.36,340.78125 L246.36,341.375 L239.235,341.375 C238.806745,341.368943 238.408403,341.593946 238.192508,341.963849 C237.976613,342.333752 237.976613,342.791248 238.192508,343.161151 C238.408403,343.531054 238.806745,343.756057 239.235,343.75 L246.36,343.75 L246.36,344.34375 C246.36,345.327 247.158,346.125 248.14125,346.125 C249.1245,346.125 249.9225,345.327 249.9225,344.34375 L249.9225,340.78125 C249.9225,339.798 249.1245,339 248.14125,339 Z M252.2975,341.375 L252.2975,343.75 L260.61,343.75 C261.265838,343.75 261.7975,343.218338 261.7975,342.5625 C261.7975,341.906662 261.265838,341.375 260.61,341.375 L252.2975,341.375 Z M254.07875,347.3125 C253.0955,347.3125 252.2975,348.1105 252.2975,349.09375 L252.2975,349.6875 L239.235,349.6875 C238.806745,349.681443 238.408403,349.906446 238.192508,350.276349 C237.976613,350.646252 237.976613,351.103748 238.192508,351.473651 C238.408403,351.843554 238.806745,352.068557 239.235,352.0625 L252.2975,352.0625 L252.2975,352.65625 C252.2975,353.6395 253.0955,354.4375 254.07875,354.4375 C255.062,354.4375 255.86,353.6395 255.86,352.65625 L255.86,349.09375 C255.86,348.1105 255.062,347.3125 254.07875,347.3125 Z M258.235,349.6875 L258.235,352.0625 L260.61,352.0625 C261.265838,352.0625 261.7975,351.530838 261.7975,350.875 C261.7975,350.219162 261.265838,349.6875 260.61,349.6875 L258.235,349.6875 Z M242.20375,355.625 C241.2205,355.625 240.4225,356.423 240.4225,357.40625 L240.4225,358 L239.235,358 C238.806745,357.993943 238.408403,358.218946 238.192508,358.588849 C237.976613,358.958752 237.976613,359.416248 238.192508,359.786151 C238.408403,360.156054 238.806745,360.381057 239.235,360.375 L240.4225,360.375 L240.4225,360.96875 C240.4225,361.952 241.2205,362.75 242.20375,362.75 C243.187,362.75 243.985,361.952 243.985,360.96875 L243.985,357.40625 C243.985,356.423 243.187,355.625 242.20375,355.625 Z M246.36,358 L246.36,360.375 L260.61,360.375 C261.265838,360.375 261.7975,359.843338 261.7975,359.1875 C261.7975,358.531662 261.265838,358 260.61,358 L246.36,358 Z" id="Settings"></path>
        </g>
    </g>
</svg>